G75*
%MOIN*%
%OFA0B0*%
%FSLAX25Y25*%
%IPPOS*%
%LPD*%
%AMOC8*
5,1,8,0,0,1.08239X$1,22.5*
%
%ADD10C,0.00394*%
%ADD11C,0.00800*%
%ADD12C,0.00700*%
%ADD13R,0.20000X0.21250*%
%ADD14C,0.01900*%
%ADD15C,0.00500*%
%ADD16C,0.01100*%
%ADD17R,0.46250X0.38750*%
%ADD18C,0.00400*%
%ADD19R,0.25000X0.25000*%
%ADD20R,0.15000X0.20000*%
%ADD21R,0.05000X0.10000*%
%ADD22C,0.00600*%
D10*
X0003350Y0001500D02*
X0397051Y0001500D01*
X0397051Y0395201D01*
X0003350Y0395201D01*
X0003350Y0001500D01*
D11*
X0024600Y0105250D02*
X0027100Y0107750D01*
X0029600Y0105250D01*
X0024600Y0105250D01*
X0024657Y0105306D02*
X0029544Y0105306D01*
X0028745Y0106105D02*
X0025455Y0106105D01*
X0026254Y0106903D02*
X0027947Y0106903D01*
X0027148Y0107702D02*
X0027052Y0107702D01*
X0019600Y0124000D02*
X0019600Y0174000D01*
X0048350Y0174000D01*
X0048350Y0124000D01*
X0053350Y0124000D02*
X0053350Y0174000D01*
X0082100Y0174000D01*
X0082100Y0124000D01*
X0087100Y0124000D02*
X0087100Y0174000D01*
X0115850Y0174000D01*
X0115850Y0124000D01*
X0120850Y0124000D02*
X0120850Y0174000D01*
X0149600Y0174000D01*
X0149600Y0124000D01*
X0154600Y0124000D02*
X0154600Y0174000D01*
X0183350Y0174000D01*
X0183350Y0124000D01*
X0188350Y0124000D02*
X0188350Y0174000D01*
X0217100Y0174000D01*
X0217100Y0124000D01*
X0222100Y0124000D02*
X0222100Y0174000D01*
X0250850Y0174000D01*
X0250850Y0124000D01*
X0255850Y0124000D02*
X0255850Y0174000D01*
X0284600Y0174000D01*
X0284600Y0124000D01*
X0265850Y0105250D02*
X0263350Y0107750D01*
X0260850Y0105250D01*
X0265850Y0105250D01*
X0265794Y0105306D02*
X0260907Y0105306D01*
X0261705Y0106105D02*
X0264995Y0106105D01*
X0264197Y0106903D02*
X0262504Y0106903D01*
X0263302Y0107702D02*
X0263398Y0107702D01*
X0232100Y0105250D02*
X0229600Y0107750D01*
X0227100Y0105250D01*
X0232100Y0105250D01*
X0232044Y0105306D02*
X0227157Y0105306D01*
X0227955Y0106105D02*
X0231245Y0106105D01*
X0230447Y0106903D02*
X0228754Y0106903D01*
X0229552Y0107702D02*
X0229648Y0107702D01*
X0198350Y0105250D02*
X0195850Y0107750D01*
X0193350Y0105250D01*
X0198350Y0105250D01*
X0198294Y0105306D02*
X0193407Y0105306D01*
X0194205Y0106105D02*
X0197495Y0106105D01*
X0196697Y0106903D02*
X0195004Y0106903D01*
X0195802Y0107702D02*
X0195898Y0107702D01*
X0164600Y0105250D02*
X0162100Y0107750D01*
X0159600Y0105250D01*
X0164600Y0105250D01*
X0164544Y0105306D02*
X0159657Y0105306D01*
X0160455Y0106105D02*
X0163745Y0106105D01*
X0162947Y0106903D02*
X0161254Y0106903D01*
X0162052Y0107702D02*
X0162148Y0107702D01*
X0130850Y0105250D02*
X0128350Y0107750D01*
X0125850Y0105250D01*
X0130850Y0105250D01*
X0130794Y0105306D02*
X0125907Y0105306D01*
X0126705Y0106105D02*
X0129995Y0106105D01*
X0129197Y0106903D02*
X0127504Y0106903D01*
X0128302Y0107702D02*
X0128398Y0107702D01*
X0097100Y0105250D02*
X0094600Y0107750D01*
X0092100Y0105250D01*
X0097100Y0105250D01*
X0097044Y0105306D02*
X0092157Y0105306D01*
X0092955Y0106105D02*
X0096245Y0106105D01*
X0095447Y0106903D02*
X0093754Y0106903D01*
X0094552Y0107702D02*
X0094648Y0107702D01*
X0063350Y0105250D02*
X0060850Y0107750D01*
X0058350Y0105250D01*
X0063350Y0105250D01*
X0063294Y0105306D02*
X0058407Y0105306D01*
X0059205Y0106105D02*
X0062495Y0106105D01*
X0061697Y0106903D02*
X0060004Y0106903D01*
X0060802Y0107702D02*
X0060898Y0107702D01*
X0063350Y0161500D02*
X0058350Y0161500D01*
X0060850Y0164000D01*
X0063350Y0161500D01*
X0062850Y0162001D02*
X0058851Y0162001D01*
X0059650Y0162799D02*
X0062051Y0162799D01*
X0061253Y0163598D02*
X0060448Y0163598D01*
X0029600Y0161500D02*
X0027100Y0164000D01*
X0024600Y0161500D01*
X0029600Y0161500D01*
X0029100Y0162001D02*
X0025101Y0162001D01*
X0025900Y0162799D02*
X0028301Y0162799D01*
X0027503Y0163598D02*
X0026698Y0163598D01*
X0028200Y0220500D02*
X0050250Y0220500D01*
X0050250Y0292100D01*
X0028200Y0292100D01*
X0028200Y0220500D01*
X0056750Y0220500D02*
X0077550Y0220500D01*
X0077550Y0292100D01*
X0056750Y0292100D01*
X0056750Y0220500D01*
X0084050Y0220500D02*
X0104850Y0220500D01*
X0104850Y0292100D01*
X0084050Y0292100D01*
X0084050Y0220500D01*
X0111350Y0220500D02*
X0132150Y0220500D01*
X0132150Y0292100D01*
X0111350Y0292100D01*
X0111350Y0220500D01*
X0139900Y0220500D02*
X0160700Y0220500D01*
X0160700Y0292100D01*
X0139900Y0292100D01*
X0139900Y0220500D01*
X0167200Y0220500D02*
X0188000Y0220500D01*
X0188000Y0292100D01*
X0167200Y0292100D01*
X0167200Y0220500D01*
X0194500Y0220500D02*
X0215300Y0220500D01*
X0215300Y0292100D01*
X0194500Y0292100D01*
X0194500Y0220500D01*
X0221800Y0220500D02*
X0242600Y0220500D01*
X0242600Y0292100D01*
X0221800Y0292100D01*
X0221800Y0220500D01*
X0229600Y0164000D02*
X0227100Y0161500D01*
X0232100Y0161500D01*
X0229600Y0164000D01*
X0229198Y0163598D02*
X0230003Y0163598D01*
X0230801Y0162799D02*
X0228400Y0162799D01*
X0227601Y0162001D02*
X0231600Y0162001D01*
X0260850Y0161500D02*
X0263350Y0164000D01*
X0265850Y0161500D01*
X0260850Y0161500D01*
X0261351Y0162001D02*
X0265350Y0162001D01*
X0264551Y0162799D02*
X0262150Y0162799D01*
X0262948Y0163598D02*
X0263753Y0163598D01*
X0198350Y0161500D02*
X0195850Y0164000D01*
X0193350Y0161500D01*
X0198350Y0161500D01*
X0197850Y0162001D02*
X0193851Y0162001D01*
X0194650Y0162799D02*
X0197051Y0162799D01*
X0196253Y0163598D02*
X0195448Y0163598D01*
X0164600Y0161500D02*
X0162100Y0164000D01*
X0159600Y0161500D01*
X0164600Y0161500D01*
X0164100Y0162001D02*
X0160101Y0162001D01*
X0160900Y0162799D02*
X0163301Y0162799D01*
X0162503Y0163598D02*
X0161698Y0163598D01*
X0130850Y0161500D02*
X0128350Y0164000D01*
X0125850Y0161500D01*
X0130850Y0161500D01*
X0130350Y0162001D02*
X0126351Y0162001D01*
X0127150Y0162799D02*
X0129551Y0162799D01*
X0128753Y0163598D02*
X0127948Y0163598D01*
X0097100Y0161500D02*
X0094600Y0164000D01*
X0092100Y0161500D01*
X0097100Y0161500D01*
X0096600Y0162001D02*
X0092601Y0162001D01*
X0093400Y0162799D02*
X0095801Y0162799D01*
X0095003Y0163598D02*
X0094198Y0163598D01*
X0084050Y0296700D02*
X0104850Y0296700D01*
X0104850Y0368300D01*
X0084050Y0368300D01*
X0084050Y0296700D01*
X0077550Y0296700D02*
X0077550Y0368300D01*
X0056750Y0368300D01*
X0056750Y0296700D01*
X0077550Y0296700D01*
X0050250Y0296700D02*
X0050250Y0368300D01*
X0028200Y0368300D01*
X0028200Y0296700D01*
X0050250Y0296700D01*
X0111350Y0296700D02*
X0132150Y0296700D01*
X0132150Y0368300D01*
X0111350Y0368300D01*
X0111350Y0296700D01*
X0139900Y0296700D02*
X0160700Y0296700D01*
X0160700Y0368300D01*
X0139900Y0368300D01*
X0139900Y0296700D01*
X0167200Y0296700D02*
X0188000Y0296700D01*
X0188000Y0368300D01*
X0167200Y0368300D01*
X0167200Y0296700D01*
X0194500Y0296700D02*
X0215300Y0296700D01*
X0215300Y0368300D01*
X0194500Y0368300D01*
X0194500Y0296700D01*
X0221800Y0296700D02*
X0242600Y0296700D01*
X0242600Y0368300D01*
X0221800Y0368300D01*
X0221800Y0296700D01*
D12*
X0224000Y0165350D02*
X0226200Y0165350D01*
X0224000Y0165350D02*
X0224000Y0162150D01*
X0228500Y0160150D02*
X0230700Y0160150D01*
X0233000Y0165350D02*
X0235200Y0165350D01*
X0235200Y0162150D01*
X0237750Y0162150D02*
X0237750Y0165350D01*
X0239950Y0165350D01*
X0242250Y0160150D02*
X0244450Y0160150D01*
X0248950Y0162150D02*
X0248950Y0165350D01*
X0246750Y0165350D01*
X0257750Y0165350D02*
X0257750Y0162150D01*
X0257750Y0165350D02*
X0259950Y0165350D01*
X0262250Y0160150D02*
X0264450Y0160150D01*
X0268950Y0162150D02*
X0268950Y0165350D01*
X0266750Y0165350D01*
X0271500Y0165350D02*
X0271500Y0162150D01*
X0271500Y0165350D02*
X0273700Y0165350D01*
X0276000Y0160150D02*
X0278200Y0160150D01*
X0282700Y0162150D02*
X0282700Y0165350D01*
X0280500Y0165350D01*
X0295850Y0147750D02*
X0295850Y0140250D01*
X0313350Y0140250D01*
X0313350Y0147750D01*
X0295850Y0147750D01*
X0284600Y0124000D02*
X0255850Y0124000D01*
X0250850Y0124000D02*
X0222100Y0124000D01*
X0217100Y0124000D02*
X0188350Y0124000D01*
X0183350Y0124000D02*
X0154600Y0124000D01*
X0149600Y0124000D02*
X0120850Y0124000D01*
X0115850Y0124000D02*
X0087100Y0124000D01*
X0082100Y0124000D02*
X0053350Y0124000D01*
X0048350Y0124000D02*
X0019600Y0124000D01*
X0019600Y0117750D02*
X0048350Y0117750D01*
X0048350Y0067750D01*
X0019600Y0067750D01*
X0019600Y0117750D01*
X0021500Y0109100D02*
X0023700Y0109100D01*
X0021500Y0109100D02*
X0021500Y0105900D01*
X0026000Y0103900D02*
X0028200Y0103900D01*
X0032700Y0105900D02*
X0032700Y0109100D01*
X0030500Y0109100D01*
X0035250Y0109100D02*
X0035250Y0105900D01*
X0035250Y0109100D02*
X0037450Y0109100D01*
X0039750Y0103900D02*
X0041950Y0103900D01*
X0046450Y0105900D02*
X0046450Y0109100D01*
X0044250Y0109100D01*
X0055250Y0109100D02*
X0055250Y0105900D01*
X0055250Y0109100D02*
X0057450Y0109100D01*
X0059750Y0103900D02*
X0061950Y0103900D01*
X0066450Y0105900D02*
X0066450Y0109100D01*
X0064250Y0109100D01*
X0069000Y0109100D02*
X0069000Y0105900D01*
X0069000Y0109100D02*
X0071200Y0109100D01*
X0073500Y0103900D02*
X0075700Y0103900D01*
X0078000Y0109100D02*
X0080200Y0109100D01*
X0080200Y0105900D01*
X0089000Y0105900D02*
X0089000Y0109100D01*
X0091200Y0109100D01*
X0093500Y0103900D02*
X0095700Y0103900D01*
X0100200Y0105900D02*
X0100200Y0109100D01*
X0098000Y0109100D01*
X0102750Y0109100D02*
X0102750Y0105900D01*
X0102750Y0109100D02*
X0104950Y0109100D01*
X0107250Y0103900D02*
X0109450Y0103900D01*
X0113950Y0105900D02*
X0113950Y0109100D01*
X0111750Y0109100D01*
X0115850Y0117750D02*
X0115850Y0067750D01*
X0087100Y0067750D01*
X0087100Y0117750D01*
X0115850Y0117750D01*
X0120850Y0117750D02*
X0149600Y0117750D01*
X0149600Y0067750D01*
X0120850Y0067750D01*
X0120850Y0117750D01*
X0122750Y0109100D02*
X0124950Y0109100D01*
X0122750Y0109100D02*
X0122750Y0105900D01*
X0127250Y0103900D02*
X0129450Y0103900D01*
X0133950Y0105900D02*
X0133950Y0109100D01*
X0131750Y0109100D01*
X0136500Y0109100D02*
X0136500Y0105900D01*
X0136500Y0109100D02*
X0138700Y0109100D01*
X0141000Y0103900D02*
X0143200Y0103900D01*
X0145500Y0109100D02*
X0147700Y0109100D01*
X0147700Y0105900D01*
X0156500Y0105900D02*
X0156500Y0109100D01*
X0158700Y0109100D01*
X0161000Y0103900D02*
X0163200Y0103900D01*
X0165500Y0109100D02*
X0167700Y0109100D01*
X0167700Y0105900D01*
X0170250Y0105900D02*
X0170250Y0109100D01*
X0172450Y0109100D01*
X0174750Y0103900D02*
X0176950Y0103900D01*
X0181450Y0105900D02*
X0181450Y0109100D01*
X0179250Y0109100D01*
X0183350Y0117750D02*
X0183350Y0067750D01*
X0154600Y0067750D01*
X0154600Y0117750D01*
X0183350Y0117750D01*
X0188350Y0117750D02*
X0217100Y0117750D01*
X0217100Y0067750D01*
X0188350Y0067750D01*
X0188350Y0117750D01*
X0190250Y0109100D02*
X0192450Y0109100D01*
X0190250Y0109100D02*
X0190250Y0105900D01*
X0194750Y0103900D02*
X0196950Y0103900D01*
X0201450Y0105900D02*
X0201450Y0109100D01*
X0199250Y0109100D01*
X0204000Y0109100D02*
X0204000Y0105900D01*
X0204000Y0109100D02*
X0206200Y0109100D01*
X0208500Y0103900D02*
X0210700Y0103900D01*
X0213000Y0109100D02*
X0215200Y0109100D01*
X0215200Y0105900D01*
X0224000Y0105900D02*
X0224000Y0109100D01*
X0226200Y0109100D01*
X0228500Y0103900D02*
X0230700Y0103900D01*
X0233000Y0109100D02*
X0235200Y0109100D01*
X0235200Y0105900D01*
X0237750Y0105900D02*
X0237750Y0109100D01*
X0239950Y0109100D01*
X0242250Y0103900D02*
X0244450Y0103900D01*
X0248950Y0105900D02*
X0248950Y0109100D01*
X0246750Y0109100D01*
X0250850Y0117750D02*
X0250850Y0067750D01*
X0222100Y0067750D01*
X0222100Y0117750D01*
X0250850Y0117750D01*
X0255850Y0117750D02*
X0284600Y0117750D01*
X0284600Y0067750D01*
X0255850Y0067750D01*
X0255850Y0117750D01*
X0257750Y0109100D02*
X0259950Y0109100D01*
X0257750Y0109100D02*
X0257750Y0105900D01*
X0262250Y0103900D02*
X0264450Y0103900D01*
X0268950Y0105900D02*
X0268950Y0109100D01*
X0266750Y0109100D01*
X0271500Y0109100D02*
X0271500Y0105900D01*
X0271500Y0109100D02*
X0273700Y0109100D01*
X0276000Y0103900D02*
X0278200Y0103900D01*
X0282700Y0105900D02*
X0282700Y0109100D01*
X0280500Y0109100D01*
X0295850Y0077750D02*
X0295850Y0070250D01*
X0313350Y0070250D01*
X0313350Y0077750D01*
X0295850Y0077750D01*
X0314600Y0084000D02*
X0334600Y0084000D01*
X0334600Y0089000D02*
X0314600Y0089000D01*
X0314600Y0094000D02*
X0334600Y0094000D01*
X0334600Y0099000D02*
X0314600Y0099000D01*
X0335850Y0077750D02*
X0335850Y0070250D01*
X0353350Y0070250D01*
X0353350Y0077750D01*
X0335850Y0077750D01*
X0334783Y0041031D02*
X0331914Y0041031D01*
X0334783Y0038162D01*
X0335500Y0038879D01*
X0335500Y0040314D01*
X0334783Y0041031D01*
X0331914Y0041031D02*
X0331197Y0040314D01*
X0331197Y0038879D01*
X0331914Y0038162D01*
X0334783Y0038162D01*
X0335500Y0036427D02*
X0335500Y0033558D01*
X0335500Y0034992D02*
X0331197Y0034992D01*
X0332631Y0033558D01*
X0331197Y0031823D02*
X0335500Y0028954D01*
X0333349Y0027219D02*
X0334066Y0026502D01*
X0334066Y0024350D01*
X0335500Y0024350D02*
X0331197Y0024350D01*
X0331197Y0026502D01*
X0331914Y0027219D01*
X0333349Y0027219D01*
X0331197Y0028954D02*
X0335500Y0031823D01*
X0341197Y0031823D02*
X0345500Y0028954D01*
X0343349Y0027219D02*
X0341914Y0027219D01*
X0341197Y0026502D01*
X0341197Y0024350D01*
X0345500Y0024350D01*
X0344066Y0024350D02*
X0344066Y0026502D01*
X0343349Y0027219D01*
X0341197Y0028954D02*
X0345500Y0031823D01*
X0345500Y0033558D02*
X0345500Y0036427D01*
X0345500Y0034992D02*
X0341197Y0034992D01*
X0342631Y0033558D01*
X0342631Y0038162D02*
X0341197Y0039596D01*
X0345500Y0039596D01*
X0345500Y0038162D02*
X0345500Y0041031D01*
X0351197Y0040314D02*
X0351197Y0038879D01*
X0351914Y0038162D01*
X0351197Y0040314D02*
X0351914Y0041031D01*
X0352631Y0041031D01*
X0355500Y0038162D01*
X0355500Y0041031D01*
X0355500Y0036427D02*
X0355500Y0033558D01*
X0355500Y0034992D02*
X0351197Y0034992D01*
X0352631Y0033558D01*
X0351197Y0031823D02*
X0355500Y0028954D01*
X0353349Y0027219D02*
X0354066Y0026502D01*
X0354066Y0024350D01*
X0355500Y0024350D02*
X0351197Y0024350D01*
X0351197Y0026502D01*
X0351914Y0027219D01*
X0353349Y0027219D01*
X0351197Y0028954D02*
X0355500Y0031823D01*
X0361197Y0031823D02*
X0365500Y0028954D01*
X0363349Y0027219D02*
X0361914Y0027219D01*
X0361197Y0026502D01*
X0361197Y0024350D01*
X0365500Y0024350D01*
X0364066Y0024350D02*
X0364066Y0026502D01*
X0363349Y0027219D01*
X0361197Y0028954D02*
X0365500Y0031823D01*
X0365500Y0033558D02*
X0365500Y0036427D01*
X0365500Y0034992D02*
X0361197Y0034992D01*
X0362631Y0033558D01*
X0361914Y0038162D02*
X0361197Y0038879D01*
X0361197Y0040314D01*
X0361914Y0041031D01*
X0362631Y0041031D01*
X0363349Y0040314D01*
X0364066Y0041031D01*
X0364783Y0041031D01*
X0365500Y0040314D01*
X0365500Y0038879D01*
X0364783Y0038162D01*
X0363349Y0039596D02*
X0363349Y0040314D01*
X0371197Y0040314D02*
X0373349Y0038162D01*
X0373349Y0041031D01*
X0373349Y0038162D01*
X0371197Y0040314D01*
X0375500Y0040314D01*
X0371197Y0040314D01*
X0375500Y0036427D02*
X0375500Y0033558D01*
X0375500Y0036427D01*
X0375500Y0034992D02*
X0371197Y0034992D01*
X0372631Y0033558D01*
X0371197Y0034992D01*
X0375500Y0034992D01*
X0375500Y0031823D02*
X0371197Y0028954D01*
X0375500Y0031823D01*
X0375500Y0028954D02*
X0371197Y0031823D01*
X0375500Y0028954D01*
X0373349Y0027219D02*
X0374066Y0026502D01*
X0374066Y0024350D01*
X0374066Y0026502D01*
X0373349Y0027219D01*
X0371914Y0027219D01*
X0371197Y0026502D01*
X0371197Y0024350D01*
X0375500Y0024350D01*
X0371197Y0024350D01*
X0371197Y0026502D01*
X0371914Y0027219D01*
X0373349Y0027219D01*
X0325500Y0028954D02*
X0321197Y0031823D01*
X0321914Y0033558D02*
X0322631Y0033558D01*
X0323349Y0034275D01*
X0323349Y0036427D01*
X0324783Y0036427D02*
X0321914Y0036427D01*
X0321197Y0035710D01*
X0321197Y0034275D01*
X0321914Y0033558D01*
X0324783Y0033558D02*
X0325500Y0034275D01*
X0325500Y0035710D01*
X0324783Y0036427D01*
X0325500Y0031823D02*
X0321197Y0028954D01*
X0321914Y0027219D02*
X0323349Y0027219D01*
X0324066Y0026502D01*
X0324066Y0024350D01*
X0325500Y0024350D02*
X0321197Y0024350D01*
X0321197Y0026502D01*
X0321914Y0027219D01*
X0315500Y0028954D02*
X0311197Y0031823D01*
X0311914Y0033558D02*
X0312631Y0033558D01*
X0313349Y0034275D01*
X0313349Y0035710D01*
X0314066Y0036427D01*
X0314783Y0036427D01*
X0315500Y0035710D01*
X0315500Y0034275D01*
X0314783Y0033558D01*
X0314066Y0033558D01*
X0313349Y0034275D01*
X0313349Y0035710D02*
X0312631Y0036427D01*
X0311914Y0036427D01*
X0311197Y0035710D01*
X0311197Y0034275D01*
X0311914Y0033558D01*
X0315500Y0031823D02*
X0311197Y0028954D01*
X0311914Y0027219D02*
X0313349Y0027219D01*
X0314066Y0026502D01*
X0314066Y0024350D01*
X0315500Y0024350D02*
X0311197Y0024350D01*
X0311197Y0026502D01*
X0311914Y0027219D01*
X0305500Y0028954D02*
X0301197Y0031823D01*
X0301197Y0033558D02*
X0301197Y0036427D01*
X0301914Y0036427D01*
X0304783Y0033558D01*
X0305500Y0033558D01*
X0305500Y0031823D02*
X0301197Y0028954D01*
X0301914Y0027219D02*
X0303349Y0027219D01*
X0304066Y0026502D01*
X0304066Y0024350D01*
X0305500Y0024350D02*
X0301197Y0024350D01*
X0301197Y0026502D01*
X0301914Y0027219D01*
X0295500Y0028954D02*
X0291197Y0031823D01*
X0293349Y0033558D02*
X0293349Y0035710D01*
X0294066Y0036427D01*
X0294783Y0036427D01*
X0295500Y0035710D01*
X0295500Y0034275D01*
X0294783Y0033558D01*
X0293349Y0033558D01*
X0291914Y0034992D01*
X0291197Y0036427D01*
X0295500Y0031823D02*
X0291197Y0028954D01*
X0291914Y0027219D02*
X0293349Y0027219D01*
X0294066Y0026502D01*
X0294066Y0024350D01*
X0295500Y0024350D02*
X0291197Y0024350D01*
X0291197Y0026502D01*
X0291914Y0027219D01*
X0285500Y0028954D02*
X0281197Y0031823D01*
X0281197Y0033558D02*
X0283349Y0033558D01*
X0282631Y0034992D01*
X0282631Y0035710D01*
X0283349Y0036427D01*
X0284783Y0036427D01*
X0285500Y0035710D01*
X0285500Y0034275D01*
X0284783Y0033558D01*
X0285500Y0031823D02*
X0281197Y0028954D01*
X0281914Y0027219D02*
X0283349Y0027219D01*
X0284066Y0026502D01*
X0284066Y0024350D01*
X0285500Y0024350D02*
X0281197Y0024350D01*
X0281197Y0026502D01*
X0281914Y0027219D01*
X0275500Y0028954D02*
X0271197Y0031823D01*
X0273349Y0033558D02*
X0273349Y0036427D01*
X0275500Y0035710D02*
X0271197Y0035710D01*
X0273349Y0033558D01*
X0275500Y0031823D02*
X0271197Y0028954D01*
X0271914Y0027219D02*
X0273349Y0027219D01*
X0274066Y0026502D01*
X0274066Y0024350D01*
X0275500Y0024350D02*
X0271197Y0024350D01*
X0271197Y0026502D01*
X0271914Y0027219D01*
X0265500Y0028954D02*
X0261197Y0031823D01*
X0261914Y0033558D02*
X0261197Y0034275D01*
X0261197Y0035710D01*
X0261914Y0036427D01*
X0262631Y0036427D01*
X0263349Y0035710D01*
X0264066Y0036427D01*
X0264783Y0036427D01*
X0265500Y0035710D01*
X0265500Y0034275D01*
X0264783Y0033558D01*
X0265500Y0031823D02*
X0261197Y0028954D01*
X0261914Y0027219D02*
X0263349Y0027219D01*
X0264066Y0026502D01*
X0264066Y0024350D01*
X0265500Y0024350D02*
X0261197Y0024350D01*
X0261197Y0026502D01*
X0261914Y0027219D01*
X0255500Y0028954D02*
X0251197Y0031823D01*
X0251914Y0033558D02*
X0251197Y0034275D01*
X0251197Y0035710D01*
X0251914Y0036427D01*
X0252631Y0036427D01*
X0255500Y0033558D01*
X0255500Y0036427D01*
X0255500Y0031823D02*
X0251197Y0028954D01*
X0251914Y0027219D02*
X0253349Y0027219D01*
X0254066Y0026502D01*
X0254066Y0024350D01*
X0255500Y0024350D02*
X0251197Y0024350D01*
X0251197Y0026502D01*
X0251914Y0027219D01*
X0245500Y0028954D02*
X0241197Y0031823D01*
X0242631Y0033558D02*
X0241197Y0034992D01*
X0245500Y0034992D01*
X0245500Y0033558D02*
X0245500Y0036427D01*
X0245500Y0031823D02*
X0241197Y0028954D01*
X0241914Y0027219D02*
X0243349Y0027219D01*
X0244066Y0026502D01*
X0244066Y0024350D01*
X0245500Y0024350D02*
X0241197Y0024350D01*
X0241197Y0026502D01*
X0241914Y0027219D01*
X0235500Y0028954D02*
X0231197Y0031823D01*
X0231914Y0033558D02*
X0231197Y0034275D01*
X0231197Y0035710D01*
X0231914Y0036427D01*
X0234783Y0033558D01*
X0235500Y0034275D01*
X0235500Y0035710D01*
X0234783Y0036427D01*
X0231914Y0036427D01*
X0231914Y0033558D02*
X0234783Y0033558D01*
X0235500Y0031823D02*
X0231197Y0028954D01*
X0231914Y0027219D02*
X0233349Y0027219D01*
X0234066Y0026502D01*
X0234066Y0024350D01*
X0235500Y0024350D02*
X0231197Y0024350D01*
X0231197Y0026502D01*
X0231914Y0027219D01*
X0225500Y0025785D02*
X0224066Y0027219D01*
X0221197Y0027219D01*
X0223349Y0028954D02*
X0223349Y0031823D01*
X0224783Y0030388D02*
X0221914Y0030388D01*
X0225500Y0025785D02*
X0224066Y0024350D01*
X0221197Y0024350D01*
X0215500Y0025785D02*
X0214066Y0027219D01*
X0211197Y0027219D01*
X0213349Y0028954D02*
X0213349Y0031823D01*
X0214783Y0030388D02*
X0211914Y0030388D01*
X0215500Y0025785D02*
X0214066Y0024350D01*
X0211197Y0024350D01*
X0205500Y0025067D02*
X0205500Y0026502D01*
X0204783Y0027219D01*
X0203349Y0027219D01*
X0203349Y0025785D01*
X0204783Y0024350D02*
X0205500Y0025067D01*
X0204783Y0024350D02*
X0201914Y0024350D01*
X0201197Y0025067D01*
X0201197Y0026502D01*
X0201914Y0027219D01*
X0201197Y0028954D02*
X0205500Y0031823D01*
X0201197Y0031823D01*
X0201197Y0033558D02*
X0201197Y0035710D01*
X0201914Y0036427D01*
X0204783Y0036427D01*
X0205500Y0035710D01*
X0205500Y0033558D01*
X0201197Y0033558D01*
X0201197Y0028954D02*
X0205500Y0028954D01*
X0195500Y0028954D02*
X0191197Y0028954D01*
X0195500Y0031823D01*
X0191197Y0031823D01*
X0191197Y0033558D02*
X0191197Y0035710D01*
X0191914Y0036427D01*
X0194783Y0036427D01*
X0195500Y0035710D01*
X0195500Y0033558D01*
X0191197Y0033558D01*
X0185500Y0031106D02*
X0185500Y0029671D01*
X0184783Y0028954D01*
X0183349Y0029671D02*
X0183349Y0031106D01*
X0184066Y0031823D01*
X0184783Y0031823D01*
X0185500Y0031106D01*
X0183349Y0029671D02*
X0182631Y0028954D01*
X0181914Y0028954D01*
X0181197Y0029671D01*
X0181197Y0031106D01*
X0181914Y0031823D01*
X0175500Y0031823D02*
X0175500Y0028954D01*
X0171197Y0028954D01*
X0171197Y0031823D01*
X0171197Y0033558D02*
X0175500Y0033558D01*
X0175500Y0036427D01*
X0175500Y0038162D02*
X0175500Y0041031D01*
X0175500Y0039596D02*
X0171197Y0039596D01*
X0172631Y0038162D01*
X0173349Y0042766D02*
X0171197Y0042766D01*
X0171197Y0045635D01*
X0172631Y0044918D02*
X0173349Y0045635D01*
X0174783Y0045635D01*
X0175500Y0044918D01*
X0175500Y0043483D01*
X0174783Y0042766D01*
X0173349Y0042766D02*
X0172631Y0044200D01*
X0172631Y0044918D01*
X0165500Y0044918D02*
X0161197Y0044918D01*
X0163349Y0042766D01*
X0163349Y0045635D01*
X0165500Y0041031D02*
X0165500Y0038162D01*
X0165500Y0039596D02*
X0161197Y0039596D01*
X0162631Y0038162D01*
X0165500Y0036427D02*
X0165500Y0033558D01*
X0161197Y0033558D01*
X0161197Y0031823D02*
X0161197Y0028954D01*
X0165500Y0028954D01*
X0165500Y0031823D01*
X0163349Y0030388D02*
X0163349Y0028954D01*
X0164066Y0027219D02*
X0163349Y0026502D01*
X0163349Y0025067D01*
X0162631Y0024350D01*
X0161914Y0024350D01*
X0161197Y0025067D01*
X0161197Y0026502D01*
X0161914Y0027219D01*
X0164066Y0027219D02*
X0164783Y0027219D01*
X0165500Y0026502D01*
X0165500Y0025067D01*
X0164783Y0024350D01*
X0171197Y0025067D02*
X0171914Y0024350D01*
X0172631Y0024350D01*
X0173349Y0025067D01*
X0173349Y0026502D01*
X0174066Y0027219D01*
X0174783Y0027219D01*
X0175500Y0026502D01*
X0175500Y0025067D01*
X0174783Y0024350D01*
X0171197Y0025067D02*
X0171197Y0026502D01*
X0171914Y0027219D01*
X0173349Y0028954D02*
X0173349Y0030388D01*
X0181197Y0026502D02*
X0181197Y0025067D01*
X0181914Y0024350D01*
X0184783Y0024350D01*
X0185500Y0025067D01*
X0185500Y0026502D01*
X0184783Y0027219D01*
X0181914Y0027219D02*
X0181197Y0026502D01*
X0191197Y0026502D02*
X0191197Y0025067D01*
X0191914Y0024350D01*
X0194783Y0024350D01*
X0195500Y0025067D01*
X0195500Y0026502D01*
X0194783Y0027219D01*
X0193349Y0027219D01*
X0193349Y0025785D01*
X0191914Y0027219D02*
X0191197Y0026502D01*
X0155500Y0026502D02*
X0155500Y0025067D01*
X0154783Y0024350D01*
X0153349Y0025067D02*
X0153349Y0026502D01*
X0154066Y0027219D01*
X0154783Y0027219D01*
X0155500Y0026502D01*
X0155500Y0028954D02*
X0155500Y0031823D01*
X0155500Y0033558D02*
X0155500Y0036427D01*
X0155500Y0038162D02*
X0155500Y0041031D01*
X0155500Y0039596D02*
X0151197Y0039596D01*
X0152631Y0038162D01*
X0151914Y0042766D02*
X0151197Y0043483D01*
X0151197Y0044918D01*
X0151914Y0045635D01*
X0152631Y0045635D01*
X0153349Y0044918D01*
X0154066Y0045635D01*
X0154783Y0045635D01*
X0155500Y0044918D01*
X0155500Y0043483D01*
X0154783Y0042766D01*
X0153349Y0044200D02*
X0153349Y0044918D01*
X0145500Y0045635D02*
X0145500Y0042766D01*
X0142631Y0045635D01*
X0141914Y0045635D01*
X0141197Y0044918D01*
X0141197Y0043483D01*
X0141914Y0042766D01*
X0141197Y0039596D02*
X0145500Y0039596D01*
X0145500Y0038162D02*
X0145500Y0041031D01*
X0142631Y0038162D02*
X0141197Y0039596D01*
X0145500Y0036427D02*
X0145500Y0033558D01*
X0141197Y0033558D01*
X0141197Y0031823D02*
X0141197Y0028954D01*
X0145500Y0028954D01*
X0145500Y0031823D01*
X0143349Y0030388D02*
X0143349Y0028954D01*
X0144066Y0027219D02*
X0143349Y0026502D01*
X0143349Y0025067D01*
X0142631Y0024350D01*
X0141914Y0024350D01*
X0141197Y0025067D01*
X0141197Y0026502D01*
X0141914Y0027219D01*
X0144066Y0027219D02*
X0144783Y0027219D01*
X0145500Y0026502D01*
X0145500Y0025067D01*
X0144783Y0024350D01*
X0151197Y0025067D02*
X0151914Y0024350D01*
X0152631Y0024350D01*
X0153349Y0025067D01*
X0151197Y0025067D02*
X0151197Y0026502D01*
X0151914Y0027219D01*
X0151197Y0028954D02*
X0155500Y0028954D01*
X0153349Y0028954D02*
X0153349Y0030388D01*
X0151197Y0031823D02*
X0151197Y0028954D01*
X0151197Y0033558D02*
X0155500Y0033558D01*
X0135500Y0033558D02*
X0135500Y0036427D01*
X0135500Y0038162D02*
X0135500Y0041031D01*
X0135500Y0039596D02*
X0131197Y0039596D01*
X0132631Y0038162D01*
X0132631Y0042766D02*
X0131197Y0044200D01*
X0135500Y0044200D01*
X0135500Y0042766D02*
X0135500Y0045635D01*
X0125500Y0044918D02*
X0125500Y0043483D01*
X0124783Y0042766D01*
X0121914Y0045635D01*
X0124783Y0045635D01*
X0125500Y0044918D01*
X0124783Y0042766D02*
X0121914Y0042766D01*
X0121197Y0043483D01*
X0121197Y0044918D01*
X0121914Y0045635D01*
X0125500Y0041031D02*
X0125500Y0038162D01*
X0125500Y0039596D02*
X0121197Y0039596D01*
X0122631Y0038162D01*
X0125500Y0036427D02*
X0125500Y0033558D01*
X0121197Y0033558D01*
X0121197Y0031823D02*
X0121197Y0028954D01*
X0125500Y0028954D01*
X0125500Y0031823D01*
X0123349Y0030388D02*
X0123349Y0028954D01*
X0124066Y0027219D02*
X0123349Y0026502D01*
X0123349Y0025067D01*
X0122631Y0024350D01*
X0121914Y0024350D01*
X0121197Y0025067D01*
X0121197Y0026502D01*
X0121914Y0027219D01*
X0124066Y0027219D02*
X0124783Y0027219D01*
X0125500Y0026502D01*
X0125500Y0025067D01*
X0124783Y0024350D01*
X0131197Y0025067D02*
X0131914Y0024350D01*
X0132631Y0024350D01*
X0133349Y0025067D01*
X0133349Y0026502D01*
X0134066Y0027219D01*
X0134783Y0027219D01*
X0135500Y0026502D01*
X0135500Y0025067D01*
X0134783Y0024350D01*
X0131197Y0025067D02*
X0131197Y0026502D01*
X0131914Y0027219D01*
X0131197Y0028954D02*
X0135500Y0028954D01*
X0135500Y0031823D01*
X0135500Y0033558D02*
X0131197Y0033558D01*
X0131197Y0031823D02*
X0131197Y0028954D01*
X0133349Y0028954D02*
X0133349Y0030388D01*
X0115500Y0028954D02*
X0115500Y0031823D01*
X0115500Y0033558D02*
X0115500Y0036427D01*
X0114783Y0038162D02*
X0115500Y0038879D01*
X0115500Y0040314D01*
X0114783Y0041031D01*
X0111914Y0041031D01*
X0111197Y0040314D01*
X0111197Y0038879D01*
X0111914Y0038162D01*
X0112631Y0038162D01*
X0113349Y0038879D01*
X0113349Y0041031D01*
X0111197Y0033558D02*
X0115500Y0033558D01*
X0113349Y0030388D02*
X0113349Y0028954D01*
X0114066Y0027219D02*
X0114783Y0027219D01*
X0115500Y0026502D01*
X0115500Y0025067D01*
X0114783Y0024350D01*
X0113349Y0025067D02*
X0113349Y0026502D01*
X0114066Y0027219D01*
X0111914Y0027219D02*
X0111197Y0026502D01*
X0111197Y0025067D01*
X0111914Y0024350D01*
X0112631Y0024350D01*
X0113349Y0025067D01*
X0111197Y0028954D02*
X0115500Y0028954D01*
X0111197Y0028954D02*
X0111197Y0031823D01*
X0105500Y0031823D02*
X0105500Y0028954D01*
X0101197Y0028954D01*
X0101197Y0031823D01*
X0101197Y0033558D02*
X0105500Y0033558D01*
X0105500Y0036427D01*
X0104783Y0038162D02*
X0104066Y0038162D01*
X0103349Y0038879D01*
X0103349Y0040314D01*
X0104066Y0041031D01*
X0104783Y0041031D01*
X0105500Y0040314D01*
X0105500Y0038879D01*
X0104783Y0038162D01*
X0103349Y0038879D02*
X0102631Y0038162D01*
X0101914Y0038162D01*
X0101197Y0038879D01*
X0101197Y0040314D01*
X0101914Y0041031D01*
X0102631Y0041031D01*
X0103349Y0040314D01*
X0095500Y0038162D02*
X0094783Y0038162D01*
X0091914Y0041031D01*
X0091197Y0041031D01*
X0091197Y0038162D01*
X0091197Y0033558D02*
X0095500Y0033558D01*
X0095500Y0036427D01*
X0095500Y0031823D02*
X0095500Y0028954D01*
X0091197Y0028954D01*
X0091197Y0031823D01*
X0093349Y0030388D02*
X0093349Y0028954D01*
X0094066Y0027219D02*
X0094783Y0027219D01*
X0095500Y0026502D01*
X0095500Y0025067D01*
X0094783Y0024350D01*
X0093349Y0025067D02*
X0093349Y0026502D01*
X0094066Y0027219D01*
X0091914Y0027219D02*
X0091197Y0026502D01*
X0091197Y0025067D01*
X0091914Y0024350D01*
X0092631Y0024350D01*
X0093349Y0025067D01*
X0101197Y0025067D02*
X0101914Y0024350D01*
X0102631Y0024350D01*
X0103349Y0025067D01*
X0103349Y0026502D01*
X0104066Y0027219D01*
X0104783Y0027219D01*
X0105500Y0026502D01*
X0105500Y0025067D01*
X0104783Y0024350D01*
X0101197Y0025067D02*
X0101197Y0026502D01*
X0101914Y0027219D01*
X0103349Y0028954D02*
X0103349Y0030388D01*
X0085500Y0028954D02*
X0085500Y0031823D01*
X0085500Y0033558D02*
X0085500Y0036427D01*
X0084783Y0038162D02*
X0085500Y0038879D01*
X0085500Y0040314D01*
X0084783Y0041031D01*
X0084066Y0041031D01*
X0083349Y0040314D01*
X0083349Y0038162D01*
X0084783Y0038162D01*
X0083349Y0038162D02*
X0081914Y0039596D01*
X0081197Y0041031D01*
X0075500Y0040314D02*
X0075500Y0038879D01*
X0074783Y0038162D01*
X0073349Y0038162D02*
X0072631Y0039596D01*
X0072631Y0040314D01*
X0073349Y0041031D01*
X0074783Y0041031D01*
X0075500Y0040314D01*
X0073349Y0038162D02*
X0071197Y0038162D01*
X0071197Y0041031D01*
X0065500Y0040314D02*
X0061197Y0040314D01*
X0063349Y0038162D01*
X0063349Y0041031D01*
X0065500Y0036427D02*
X0065500Y0033558D01*
X0061197Y0033558D01*
X0061197Y0031823D02*
X0061197Y0028954D01*
X0065500Y0028954D01*
X0065500Y0031823D01*
X0063349Y0030388D02*
X0063349Y0028954D01*
X0064066Y0027219D02*
X0063349Y0026502D01*
X0063349Y0025067D01*
X0062631Y0024350D01*
X0061914Y0024350D01*
X0061197Y0025067D01*
X0061197Y0026502D01*
X0061914Y0027219D01*
X0064066Y0027219D02*
X0064783Y0027219D01*
X0065500Y0026502D01*
X0065500Y0025067D01*
X0064783Y0024350D01*
X0071197Y0025067D02*
X0071914Y0024350D01*
X0072631Y0024350D01*
X0073349Y0025067D01*
X0073349Y0026502D01*
X0074066Y0027219D01*
X0074783Y0027219D01*
X0075500Y0026502D01*
X0075500Y0025067D01*
X0074783Y0024350D01*
X0071197Y0025067D02*
X0071197Y0026502D01*
X0071914Y0027219D01*
X0071197Y0028954D02*
X0075500Y0028954D01*
X0075500Y0031823D01*
X0075500Y0033558D02*
X0075500Y0036427D01*
X0075500Y0033558D02*
X0071197Y0033558D01*
X0071197Y0031823D02*
X0071197Y0028954D01*
X0073349Y0028954D02*
X0073349Y0030388D01*
X0081197Y0028954D02*
X0085500Y0028954D01*
X0084783Y0027219D02*
X0085500Y0026502D01*
X0085500Y0025067D01*
X0084783Y0024350D01*
X0083349Y0025067D02*
X0083349Y0026502D01*
X0084066Y0027219D01*
X0084783Y0027219D01*
X0083349Y0028954D02*
X0083349Y0030388D01*
X0081197Y0031823D02*
X0081197Y0028954D01*
X0081914Y0027219D02*
X0081197Y0026502D01*
X0081197Y0025067D01*
X0081914Y0024350D01*
X0082631Y0024350D01*
X0083349Y0025067D01*
X0081197Y0033558D02*
X0085500Y0033558D01*
X0055500Y0033558D02*
X0055500Y0036427D01*
X0054783Y0038162D02*
X0055500Y0038879D01*
X0055500Y0040314D01*
X0054783Y0041031D01*
X0054066Y0041031D01*
X0053349Y0040314D01*
X0053349Y0039596D01*
X0053349Y0040314D02*
X0052631Y0041031D01*
X0051914Y0041031D01*
X0051197Y0040314D01*
X0051197Y0038879D01*
X0051914Y0038162D01*
X0051197Y0033558D02*
X0055500Y0033558D01*
X0055500Y0031823D02*
X0055500Y0028954D01*
X0051197Y0028954D01*
X0051197Y0031823D01*
X0053349Y0030388D02*
X0053349Y0028954D01*
X0054066Y0027219D02*
X0054783Y0027219D01*
X0055500Y0026502D01*
X0055500Y0025067D01*
X0054783Y0024350D01*
X0053349Y0025067D02*
X0053349Y0026502D01*
X0054066Y0027219D01*
X0051914Y0027219D02*
X0051197Y0026502D01*
X0051197Y0025067D01*
X0051914Y0024350D01*
X0052631Y0024350D01*
X0053349Y0025067D01*
X0045500Y0025067D02*
X0044783Y0024350D01*
X0045500Y0025067D02*
X0045500Y0026502D01*
X0044783Y0027219D01*
X0044066Y0027219D01*
X0043349Y0026502D01*
X0043349Y0025067D01*
X0042631Y0024350D01*
X0041914Y0024350D01*
X0041197Y0025067D01*
X0041197Y0026502D01*
X0041914Y0027219D01*
X0041197Y0028954D02*
X0045500Y0028954D01*
X0045500Y0031823D01*
X0045500Y0033558D02*
X0045500Y0036427D01*
X0045500Y0038162D02*
X0042631Y0041031D01*
X0041914Y0041031D01*
X0041197Y0040314D01*
X0041197Y0038879D01*
X0041914Y0038162D01*
X0045500Y0038162D02*
X0045500Y0041031D01*
X0045500Y0033558D02*
X0041197Y0033558D01*
X0041197Y0031823D02*
X0041197Y0028954D01*
X0043349Y0028954D02*
X0043349Y0030388D01*
X0035500Y0028954D02*
X0035500Y0031823D01*
X0035500Y0033558D02*
X0035500Y0036427D01*
X0035500Y0038162D02*
X0035500Y0041031D01*
X0035500Y0039596D02*
X0031197Y0039596D01*
X0032631Y0038162D01*
X0031197Y0033558D02*
X0035500Y0033558D01*
X0033349Y0030388D02*
X0033349Y0028954D01*
X0034066Y0027219D02*
X0034783Y0027219D01*
X0035500Y0026502D01*
X0035500Y0025067D01*
X0034783Y0024350D01*
X0033349Y0025067D02*
X0033349Y0026502D01*
X0034066Y0027219D01*
X0031914Y0027219D02*
X0031197Y0026502D01*
X0031197Y0025067D01*
X0031914Y0024350D01*
X0032631Y0024350D01*
X0033349Y0025067D01*
X0031197Y0028954D02*
X0035500Y0028954D01*
X0031197Y0028954D02*
X0031197Y0031823D01*
X0025500Y0031823D02*
X0025500Y0028954D01*
X0021197Y0028954D01*
X0021197Y0031823D01*
X0021197Y0033558D02*
X0025500Y0033558D01*
X0025500Y0036427D01*
X0024783Y0038162D02*
X0021914Y0041031D01*
X0024783Y0041031D01*
X0025500Y0040314D01*
X0025500Y0038879D01*
X0024783Y0038162D01*
X0021914Y0038162D01*
X0021197Y0038879D01*
X0021197Y0040314D01*
X0021914Y0041031D01*
X0023349Y0030388D02*
X0023349Y0028954D01*
X0024066Y0027219D02*
X0023349Y0026502D01*
X0023349Y0025067D01*
X0022631Y0024350D01*
X0021914Y0024350D01*
X0021197Y0025067D01*
X0021197Y0026502D01*
X0021914Y0027219D01*
X0024066Y0027219D02*
X0024783Y0027219D01*
X0025500Y0026502D01*
X0025500Y0025067D01*
X0024783Y0024350D01*
X0053350Y0067750D02*
X0082100Y0067750D01*
X0082100Y0117750D01*
X0053350Y0117750D01*
X0053350Y0067750D01*
X0059750Y0160150D02*
X0061950Y0160150D01*
X0066450Y0162150D02*
X0066450Y0165350D01*
X0064250Y0165350D01*
X0069000Y0165350D02*
X0069000Y0162150D01*
X0069000Y0165350D02*
X0071200Y0165350D01*
X0073500Y0160150D02*
X0075700Y0160150D01*
X0078000Y0165350D02*
X0080200Y0165350D01*
X0080200Y0162150D01*
X0089000Y0162150D02*
X0089000Y0165350D01*
X0091200Y0165350D01*
X0093500Y0160150D02*
X0095700Y0160150D01*
X0100200Y0162150D02*
X0100200Y0165350D01*
X0098000Y0165350D01*
X0102750Y0165350D02*
X0102750Y0162150D01*
X0102750Y0165350D02*
X0104950Y0165350D01*
X0107250Y0160150D02*
X0109450Y0160150D01*
X0113950Y0162150D02*
X0113950Y0165350D01*
X0111750Y0165350D01*
X0122750Y0165350D02*
X0122750Y0162150D01*
X0122750Y0165350D02*
X0124950Y0165350D01*
X0127250Y0160150D02*
X0129450Y0160150D01*
X0133950Y0162150D02*
X0133950Y0165350D01*
X0131750Y0165350D01*
X0136500Y0165350D02*
X0136500Y0162150D01*
X0136500Y0165350D02*
X0138700Y0165350D01*
X0141000Y0160150D02*
X0143200Y0160150D01*
X0145500Y0165350D02*
X0147700Y0165350D01*
X0147700Y0162150D01*
X0156500Y0162150D02*
X0156500Y0165350D01*
X0158700Y0165350D01*
X0161000Y0160150D02*
X0163200Y0160150D01*
X0165500Y0165350D02*
X0167700Y0165350D01*
X0167700Y0162150D01*
X0170250Y0162150D02*
X0170250Y0165350D01*
X0172450Y0165350D01*
X0174750Y0160150D02*
X0176950Y0160150D01*
X0181450Y0162150D02*
X0181450Y0165350D01*
X0179250Y0165350D01*
X0190250Y0165350D02*
X0190250Y0162150D01*
X0190250Y0165350D02*
X0192450Y0165350D01*
X0194750Y0160150D02*
X0196950Y0160150D01*
X0201450Y0162150D02*
X0201450Y0165350D01*
X0199250Y0165350D01*
X0204000Y0165350D02*
X0204000Y0162150D01*
X0204000Y0165350D02*
X0206200Y0165350D01*
X0208500Y0160150D02*
X0210700Y0160150D01*
X0213000Y0165350D02*
X0215200Y0165350D01*
X0215200Y0162150D01*
X0335850Y0147750D02*
X0335850Y0140250D01*
X0353350Y0140250D01*
X0353350Y0147750D01*
X0335850Y0147750D01*
X0281197Y0036427D02*
X0281197Y0033558D01*
X0263349Y0034992D02*
X0263349Y0035710D01*
X0057450Y0165350D02*
X0055250Y0165350D01*
X0055250Y0162150D01*
X0046450Y0162150D02*
X0046450Y0165350D01*
X0044250Y0165350D01*
X0041950Y0160150D02*
X0039750Y0160150D01*
X0035250Y0162150D02*
X0035250Y0165350D01*
X0037450Y0165350D01*
X0032700Y0165350D02*
X0032700Y0162150D01*
X0032700Y0165350D02*
X0030500Y0165350D01*
X0028200Y0160150D02*
X0026000Y0160150D01*
X0021500Y0162150D02*
X0021500Y0165350D01*
X0023700Y0165350D01*
D13*
X0039600Y0208375D03*
X0067100Y0208375D03*
X0094600Y0208375D03*
X0120850Y0208375D03*
X0149600Y0208375D03*
X0177100Y0208375D03*
X0204600Y0208375D03*
X0232100Y0208375D03*
X0232100Y0380875D03*
X0204600Y0380875D03*
X0177100Y0380875D03*
X0149600Y0380875D03*
X0120850Y0380875D03*
X0094600Y0380875D03*
X0067100Y0380875D03*
X0039600Y0380875D03*
D14*
X0378540Y0343283D02*
X0378540Y0336978D01*
X0391150Y0336978D01*
X0386947Y0336978D02*
X0386947Y0343283D01*
X0384845Y0345385D01*
X0380641Y0345385D01*
X0378540Y0343283D01*
X0382743Y0332034D02*
X0391150Y0332034D01*
X0384845Y0332034D02*
X0384845Y0323627D01*
X0382743Y0323627D02*
X0378540Y0327830D01*
X0382743Y0332034D01*
X0382743Y0323627D02*
X0391150Y0323627D01*
X0391150Y0318682D02*
X0378540Y0318682D01*
X0382743Y0314479D01*
X0378540Y0310275D01*
X0391150Y0310275D01*
X0391150Y0291980D02*
X0386947Y0287776D01*
X0386947Y0289878D02*
X0384845Y0291980D01*
X0380641Y0291980D01*
X0378540Y0289878D01*
X0378540Y0283572D01*
X0391150Y0283572D01*
X0386947Y0283572D02*
X0386947Y0289878D01*
X0391150Y0278628D02*
X0391150Y0270221D01*
X0378540Y0270221D01*
X0378540Y0278628D01*
X0384845Y0274425D02*
X0384845Y0270221D01*
X0378540Y0265277D02*
X0378540Y0256870D01*
X0378540Y0261073D02*
X0391150Y0261073D01*
X0389049Y0251925D02*
X0391150Y0249824D01*
X0391150Y0245620D01*
X0389049Y0243518D01*
X0380641Y0243518D01*
X0378540Y0245620D01*
X0378540Y0249824D01*
X0380641Y0251925D01*
X0382743Y0238574D02*
X0391150Y0238574D01*
X0384845Y0238574D02*
X0384845Y0230167D01*
X0382743Y0230167D02*
X0378540Y0234370D01*
X0382743Y0238574D01*
X0382743Y0230167D02*
X0391150Y0230167D01*
X0391150Y0225223D02*
X0386947Y0221019D01*
X0386947Y0223121D02*
X0384845Y0225223D01*
X0380641Y0225223D01*
X0378540Y0223121D01*
X0378540Y0216815D01*
X0391150Y0216815D01*
X0386947Y0216815D02*
X0386947Y0223121D01*
X0384845Y0211871D02*
X0384845Y0203464D01*
X0382743Y0203464D02*
X0378540Y0207668D01*
X0382743Y0211871D01*
X0391150Y0211871D01*
X0391150Y0203464D02*
X0382743Y0203464D01*
X0384845Y0198520D02*
X0384845Y0190113D01*
X0380641Y0185168D02*
X0378540Y0183067D01*
X0378540Y0178863D01*
X0380641Y0176761D01*
X0389049Y0176761D01*
X0391150Y0178863D01*
X0391150Y0183067D01*
X0389049Y0185168D01*
X0391150Y0190113D02*
X0378540Y0190113D01*
X0378540Y0198520D02*
X0391150Y0198520D01*
X0389049Y0158466D02*
X0378540Y0158466D01*
X0378540Y0150058D02*
X0389049Y0150058D01*
X0391150Y0152160D01*
X0391150Y0156364D01*
X0389049Y0158466D01*
X0378540Y0145114D02*
X0378540Y0136707D01*
X0378540Y0140911D02*
X0391150Y0140911D01*
X0389049Y0131763D02*
X0391150Y0129661D01*
X0391150Y0123356D01*
X0378540Y0123356D01*
X0378540Y0129661D01*
X0380641Y0131763D01*
X0382743Y0131763D01*
X0384845Y0129661D01*
X0384845Y0123356D01*
X0384845Y0129661D02*
X0386947Y0131763D01*
X0389049Y0131763D01*
X0391150Y0118411D02*
X0382743Y0118411D01*
X0378540Y0114208D01*
X0382743Y0110004D01*
X0391150Y0110004D01*
X0384845Y0110004D02*
X0384845Y0118411D01*
X0378540Y0105060D02*
X0378540Y0096653D01*
X0378540Y0100856D02*
X0391150Y0100856D01*
X0391150Y0087505D02*
X0384845Y0087505D01*
X0380641Y0091709D01*
X0378540Y0091709D01*
X0384845Y0087505D02*
X0380641Y0083301D01*
X0378540Y0083301D01*
X0382743Y0078357D02*
X0391150Y0078357D01*
X0384845Y0078357D02*
X0384845Y0069950D01*
X0382743Y0069950D02*
X0378540Y0074154D01*
X0382743Y0078357D01*
X0382743Y0069950D02*
X0391150Y0069950D01*
D15*
X0357671Y0065299D02*
X0357671Y0152701D01*
X0291530Y0152701D01*
X0291530Y0065299D01*
X0357671Y0065299D01*
X0274659Y0073154D02*
X0274659Y0079846D01*
X0273675Y0076894D02*
X0270526Y0076894D01*
X0272100Y0074531D01*
X0273675Y0076894D01*
X0269541Y0079846D02*
X0269541Y0073154D01*
X0268409Y0073154D02*
X0268409Y0079846D01*
X0267425Y0076894D02*
X0264276Y0076894D01*
X0265850Y0074531D01*
X0267425Y0076894D01*
X0263291Y0079846D02*
X0263291Y0073154D01*
X0262504Y0085191D02*
X0269197Y0085191D01*
X0266244Y0086175D02*
X0263882Y0087750D01*
X0266244Y0089325D01*
X0266244Y0086175D01*
X0269197Y0090309D02*
X0262504Y0090309D01*
X0262504Y0091441D02*
X0269197Y0091441D01*
X0266244Y0092425D02*
X0266244Y0095575D01*
X0263882Y0094000D01*
X0266244Y0092425D01*
X0269197Y0096559D02*
X0262504Y0096559D01*
X0240909Y0079846D02*
X0240909Y0073154D01*
X0238350Y0074531D02*
X0236776Y0076894D01*
X0239925Y0076894D01*
X0238350Y0074531D01*
X0235791Y0073154D02*
X0235791Y0079846D01*
X0234659Y0079846D02*
X0234659Y0073154D01*
X0232100Y0074531D02*
X0233675Y0076894D01*
X0230526Y0076894D01*
X0232100Y0074531D01*
X0229541Y0073154D02*
X0229541Y0079846D01*
X0228754Y0085191D02*
X0235447Y0085191D01*
X0232494Y0086175D02*
X0232494Y0089325D01*
X0230132Y0087750D01*
X0232494Y0086175D01*
X0235447Y0090309D02*
X0228754Y0090309D01*
X0228754Y0091441D02*
X0235447Y0091441D01*
X0232494Y0092425D02*
X0232494Y0095575D01*
X0230132Y0094000D01*
X0232494Y0092425D01*
X0235447Y0096559D02*
X0228754Y0096559D01*
X0207159Y0079846D02*
X0207159Y0073154D01*
X0204600Y0074531D02*
X0206175Y0076894D01*
X0203026Y0076894D01*
X0204600Y0074531D01*
X0202041Y0073154D02*
X0202041Y0079846D01*
X0200909Y0079846D02*
X0200909Y0073154D01*
X0198350Y0074531D02*
X0196776Y0076894D01*
X0199925Y0076894D01*
X0198350Y0074531D01*
X0195791Y0073154D02*
X0195791Y0079846D01*
X0195004Y0085191D02*
X0201697Y0085191D01*
X0198744Y0086175D02*
X0196382Y0087750D01*
X0198744Y0089325D01*
X0198744Y0086175D01*
X0201697Y0090309D02*
X0195004Y0090309D01*
X0195004Y0091441D02*
X0201697Y0091441D01*
X0198744Y0092425D02*
X0198744Y0095575D01*
X0196382Y0094000D01*
X0198744Y0092425D01*
X0201697Y0096559D02*
X0195004Y0096559D01*
X0173409Y0079846D02*
X0173409Y0073154D01*
X0170850Y0074531D02*
X0169276Y0076894D01*
X0172425Y0076894D01*
X0170850Y0074531D01*
X0168291Y0073154D02*
X0168291Y0079846D01*
X0167159Y0079846D02*
X0167159Y0073154D01*
X0164600Y0074531D02*
X0166175Y0076894D01*
X0163026Y0076894D01*
X0164600Y0074531D01*
X0162041Y0073154D02*
X0162041Y0079846D01*
X0161254Y0085191D02*
X0167947Y0085191D01*
X0164994Y0086175D02*
X0164994Y0089325D01*
X0162632Y0087750D01*
X0164994Y0086175D01*
X0167947Y0090309D02*
X0161254Y0090309D01*
X0161254Y0091441D02*
X0167947Y0091441D01*
X0164994Y0092425D02*
X0164994Y0095575D01*
X0162632Y0094000D01*
X0164994Y0092425D01*
X0167947Y0096559D02*
X0161254Y0096559D01*
X0139659Y0079846D02*
X0139659Y0073154D01*
X0137100Y0074531D02*
X0138675Y0076894D01*
X0135526Y0076894D01*
X0137100Y0074531D01*
X0134541Y0073154D02*
X0134541Y0079846D01*
X0133409Y0079846D02*
X0133409Y0073154D01*
X0130850Y0074531D02*
X0129276Y0076894D01*
X0132425Y0076894D01*
X0130850Y0074531D01*
X0128291Y0073154D02*
X0128291Y0079846D01*
X0127504Y0085191D02*
X0134197Y0085191D01*
X0131244Y0086175D02*
X0128882Y0087750D01*
X0131244Y0089325D01*
X0131244Y0086175D01*
X0134197Y0090309D02*
X0127504Y0090309D01*
X0127504Y0091441D02*
X0134197Y0091441D01*
X0131244Y0092425D02*
X0131244Y0095575D01*
X0128882Y0094000D01*
X0131244Y0092425D01*
X0134197Y0096559D02*
X0127504Y0096559D01*
X0105909Y0079846D02*
X0105909Y0073154D01*
X0103350Y0074531D02*
X0101776Y0076894D01*
X0104925Y0076894D01*
X0103350Y0074531D01*
X0100791Y0073154D02*
X0100791Y0079846D01*
X0099659Y0079846D02*
X0099659Y0073154D01*
X0097100Y0074531D02*
X0098675Y0076894D01*
X0095526Y0076894D01*
X0097100Y0074531D01*
X0094541Y0073154D02*
X0094541Y0079846D01*
X0093754Y0085191D02*
X0100447Y0085191D01*
X0097494Y0086175D02*
X0097494Y0089325D01*
X0095132Y0087750D01*
X0097494Y0086175D01*
X0100447Y0090309D02*
X0093754Y0090309D01*
X0093754Y0091441D02*
X0100447Y0091441D01*
X0097494Y0092425D02*
X0097494Y0095575D01*
X0095132Y0094000D01*
X0097494Y0092425D01*
X0100447Y0096559D02*
X0093754Y0096559D01*
X0072159Y0079846D02*
X0072159Y0073154D01*
X0069600Y0074531D02*
X0071175Y0076894D01*
X0068026Y0076894D01*
X0069600Y0074531D01*
X0067041Y0073154D02*
X0067041Y0079846D01*
X0065909Y0079846D02*
X0065909Y0073154D01*
X0063350Y0074531D02*
X0061776Y0076894D01*
X0064925Y0076894D01*
X0063350Y0074531D01*
X0060791Y0073154D02*
X0060791Y0079846D01*
X0060004Y0085191D02*
X0066697Y0085191D01*
X0063744Y0086175D02*
X0061382Y0087750D01*
X0063744Y0089325D01*
X0063744Y0086175D01*
X0066697Y0090309D02*
X0060004Y0090309D01*
X0060004Y0091441D02*
X0066697Y0091441D01*
X0063744Y0092425D02*
X0063744Y0095575D01*
X0061382Y0094000D01*
X0063744Y0092425D01*
X0066697Y0096559D02*
X0060004Y0096559D01*
X0038409Y0079846D02*
X0038409Y0073154D01*
X0035850Y0074531D02*
X0034276Y0076894D01*
X0037425Y0076894D01*
X0035850Y0074531D01*
X0033291Y0073154D02*
X0033291Y0079846D01*
X0032159Y0079846D02*
X0032159Y0073154D01*
X0029600Y0074531D02*
X0031175Y0076894D01*
X0028026Y0076894D01*
X0029600Y0074531D01*
X0027041Y0073154D02*
X0027041Y0079846D01*
X0026254Y0085191D02*
X0032947Y0085191D01*
X0029994Y0086175D02*
X0029994Y0089325D01*
X0027632Y0087750D01*
X0029994Y0086175D01*
X0032947Y0090309D02*
X0026254Y0090309D01*
X0026254Y0091441D02*
X0032947Y0091441D01*
X0029994Y0092425D02*
X0029994Y0095575D01*
X0027632Y0094000D01*
X0029994Y0092425D01*
X0032947Y0096559D02*
X0026254Y0096559D01*
X0027041Y0129404D02*
X0027041Y0136096D01*
X0028026Y0133144D02*
X0031175Y0133144D01*
X0029600Y0130781D01*
X0028026Y0133144D01*
X0032159Y0136096D02*
X0032159Y0129404D01*
X0033291Y0129404D02*
X0033291Y0136096D01*
X0034276Y0133144D02*
X0037425Y0133144D01*
X0035850Y0130781D01*
X0034276Y0133144D01*
X0038409Y0136096D02*
X0038409Y0129404D01*
X0032947Y0141441D02*
X0026254Y0141441D01*
X0027632Y0144000D02*
X0029994Y0142425D01*
X0029994Y0145575D01*
X0027632Y0144000D01*
X0026254Y0146559D02*
X0032947Y0146559D01*
X0032947Y0147691D02*
X0026254Y0147691D01*
X0027632Y0150250D02*
X0029994Y0148675D01*
X0029994Y0151825D01*
X0027632Y0150250D01*
X0026254Y0152809D02*
X0032947Y0152809D01*
X0060004Y0152809D02*
X0066697Y0152809D01*
X0063744Y0151825D02*
X0063744Y0148675D01*
X0061382Y0150250D01*
X0063744Y0151825D01*
X0066697Y0147691D02*
X0060004Y0147691D01*
X0060004Y0146559D02*
X0066697Y0146559D01*
X0063744Y0145575D02*
X0063744Y0142425D01*
X0061382Y0144000D01*
X0063744Y0145575D01*
X0066697Y0141441D02*
X0060004Y0141441D01*
X0060791Y0136096D02*
X0060791Y0129404D01*
X0063350Y0130781D02*
X0064925Y0133144D01*
X0061776Y0133144D01*
X0063350Y0130781D01*
X0065909Y0129404D02*
X0065909Y0136096D01*
X0067041Y0136096D02*
X0067041Y0129404D01*
X0069600Y0130781D02*
X0071175Y0133144D01*
X0068026Y0133144D01*
X0069600Y0130781D01*
X0072159Y0129404D02*
X0072159Y0136096D01*
X0093754Y0141441D02*
X0100447Y0141441D01*
X0097494Y0142425D02*
X0097494Y0145575D01*
X0095132Y0144000D01*
X0097494Y0142425D01*
X0100447Y0146559D02*
X0093754Y0146559D01*
X0093754Y0147691D02*
X0100447Y0147691D01*
X0097494Y0148675D02*
X0097494Y0151825D01*
X0095132Y0150250D01*
X0097494Y0148675D01*
X0100447Y0152809D02*
X0093754Y0152809D01*
X0094541Y0136096D02*
X0094541Y0129404D01*
X0097100Y0130781D02*
X0095526Y0133144D01*
X0098675Y0133144D01*
X0097100Y0130781D01*
X0099659Y0129404D02*
X0099659Y0136096D01*
X0100791Y0136096D02*
X0100791Y0129404D01*
X0103350Y0130781D02*
X0104925Y0133144D01*
X0101776Y0133144D01*
X0103350Y0130781D01*
X0105909Y0129404D02*
X0105909Y0136096D01*
X0127504Y0141441D02*
X0134197Y0141441D01*
X0131244Y0142425D02*
X0128882Y0144000D01*
X0131244Y0145575D01*
X0131244Y0142425D01*
X0134197Y0146559D02*
X0127504Y0146559D01*
X0127504Y0147691D02*
X0134197Y0147691D01*
X0131244Y0148675D02*
X0131244Y0151825D01*
X0128882Y0150250D01*
X0131244Y0148675D01*
X0134197Y0152809D02*
X0127504Y0152809D01*
X0128291Y0136096D02*
X0128291Y0129404D01*
X0130850Y0130781D02*
X0132425Y0133144D01*
X0129276Y0133144D01*
X0130850Y0130781D01*
X0133409Y0129404D02*
X0133409Y0136096D01*
X0134541Y0136096D02*
X0134541Y0129404D01*
X0137100Y0130781D02*
X0138675Y0133144D01*
X0135526Y0133144D01*
X0137100Y0130781D01*
X0139659Y0129404D02*
X0139659Y0136096D01*
X0161254Y0141441D02*
X0167947Y0141441D01*
X0164994Y0142425D02*
X0164994Y0145575D01*
X0162632Y0144000D01*
X0164994Y0142425D01*
X0167947Y0146559D02*
X0161254Y0146559D01*
X0161254Y0147691D02*
X0167947Y0147691D01*
X0164994Y0148675D02*
X0164994Y0151825D01*
X0162632Y0150250D01*
X0164994Y0148675D01*
X0167947Y0152809D02*
X0161254Y0152809D01*
X0162041Y0136096D02*
X0162041Y0129404D01*
X0164600Y0130781D02*
X0163026Y0133144D01*
X0166175Y0133144D01*
X0164600Y0130781D01*
X0167159Y0129404D02*
X0167159Y0136096D01*
X0168291Y0136096D02*
X0168291Y0129404D01*
X0170850Y0130781D02*
X0172425Y0133144D01*
X0169276Y0133144D01*
X0170850Y0130781D01*
X0173409Y0129404D02*
X0173409Y0136096D01*
X0195004Y0141441D02*
X0201697Y0141441D01*
X0198744Y0142425D02*
X0196382Y0144000D01*
X0198744Y0145575D01*
X0198744Y0142425D01*
X0201697Y0146559D02*
X0195004Y0146559D01*
X0195004Y0147691D02*
X0201697Y0147691D01*
X0198744Y0148675D02*
X0198744Y0151825D01*
X0196382Y0150250D01*
X0198744Y0148675D01*
X0201697Y0152809D02*
X0195004Y0152809D01*
X0195791Y0136096D02*
X0195791Y0129404D01*
X0198350Y0130781D02*
X0199925Y0133144D01*
X0196776Y0133144D01*
X0198350Y0130781D01*
X0200909Y0129404D02*
X0200909Y0136096D01*
X0202041Y0136096D02*
X0202041Y0129404D01*
X0204600Y0130781D02*
X0203026Y0133144D01*
X0206175Y0133144D01*
X0204600Y0130781D01*
X0207159Y0129404D02*
X0207159Y0136096D01*
X0228754Y0141441D02*
X0235447Y0141441D01*
X0232494Y0142425D02*
X0232494Y0145575D01*
X0230132Y0144000D01*
X0232494Y0142425D01*
X0235447Y0146559D02*
X0228754Y0146559D01*
X0228754Y0147691D02*
X0235447Y0147691D01*
X0232494Y0148675D02*
X0232494Y0151825D01*
X0230132Y0150250D01*
X0232494Y0148675D01*
X0235447Y0152809D02*
X0228754Y0152809D01*
X0229541Y0136096D02*
X0229541Y0129404D01*
X0232100Y0130781D02*
X0230526Y0133144D01*
X0233675Y0133144D01*
X0232100Y0130781D01*
X0234659Y0129404D02*
X0234659Y0136096D01*
X0235791Y0136096D02*
X0235791Y0129404D01*
X0238350Y0130781D02*
X0239925Y0133144D01*
X0236776Y0133144D01*
X0238350Y0130781D01*
X0240909Y0129404D02*
X0240909Y0136096D01*
X0262504Y0141441D02*
X0269197Y0141441D01*
X0266244Y0142425D02*
X0263882Y0144000D01*
X0266244Y0145575D01*
X0266244Y0142425D01*
X0269197Y0146559D02*
X0262504Y0146559D01*
X0262504Y0147691D02*
X0269197Y0147691D01*
X0266244Y0148675D02*
X0266244Y0151825D01*
X0263882Y0150250D01*
X0266244Y0148675D01*
X0269197Y0152809D02*
X0262504Y0152809D01*
X0263291Y0136096D02*
X0263291Y0129404D01*
X0265850Y0130781D02*
X0267425Y0133144D01*
X0264276Y0133144D01*
X0265850Y0130781D01*
X0268409Y0129404D02*
X0268409Y0136096D01*
X0269541Y0136096D02*
X0269541Y0129404D01*
X0272100Y0130781D02*
X0270526Y0133144D01*
X0273675Y0133144D01*
X0272100Y0130781D01*
X0274659Y0129404D02*
X0274659Y0136096D01*
X0241159Y0223954D02*
X0236041Y0223954D01*
X0236041Y0230646D01*
X0241159Y0230646D01*
X0241159Y0223954D01*
X0240963Y0225725D02*
X0236238Y0225725D01*
X0236238Y0226119D01*
X0240963Y0226119D01*
X0234563Y0226119D02*
X0229838Y0226119D01*
X0229838Y0225725D01*
X0234563Y0225725D01*
X0234759Y0223954D02*
X0229641Y0223954D01*
X0229641Y0230646D01*
X0234759Y0230646D01*
X0234759Y0223954D01*
X0228359Y0223954D02*
X0223241Y0223954D01*
X0223241Y0230646D01*
X0228359Y0230646D01*
X0228359Y0223954D01*
X0228163Y0225725D02*
X0223438Y0225725D01*
X0223438Y0226119D01*
X0228163Y0226119D01*
X0228359Y0238354D02*
X0223241Y0238354D01*
X0223241Y0245046D01*
X0228359Y0245046D01*
X0228359Y0238354D01*
X0229641Y0238354D02*
X0229641Y0245046D01*
X0234759Y0245046D01*
X0234759Y0238354D01*
X0229641Y0238354D01*
X0229838Y0240125D02*
X0229838Y0240519D01*
X0234563Y0240519D01*
X0234563Y0240125D02*
X0229838Y0240125D01*
X0228163Y0240125D02*
X0223438Y0240125D01*
X0223438Y0240519D01*
X0228163Y0240519D01*
X0236238Y0240519D02*
X0240963Y0240519D01*
X0240963Y0240125D02*
X0236238Y0240125D01*
X0236238Y0240519D01*
X0236041Y0238354D02*
X0236041Y0245046D01*
X0241159Y0245046D01*
X0241159Y0238354D01*
X0236041Y0238354D01*
X0236041Y0252754D02*
X0236041Y0259446D01*
X0241159Y0259446D01*
X0241159Y0252754D01*
X0236041Y0252754D01*
X0234759Y0252754D02*
X0229641Y0252754D01*
X0229641Y0259446D01*
X0234759Y0259446D01*
X0234759Y0252754D01*
X0234563Y0254525D02*
X0229838Y0254525D01*
X0229838Y0254919D01*
X0234563Y0254919D01*
X0236238Y0254919D02*
X0240963Y0254919D01*
X0240963Y0254525D02*
X0236238Y0254525D01*
X0236238Y0254919D01*
X0228163Y0254919D02*
X0223438Y0254919D01*
X0223438Y0254525D01*
X0228163Y0254525D01*
X0228359Y0252754D02*
X0223241Y0252754D01*
X0223241Y0259446D01*
X0228359Y0259446D01*
X0228359Y0252754D01*
X0228359Y0267154D02*
X0223241Y0267154D01*
X0223241Y0273846D01*
X0228359Y0273846D01*
X0228359Y0267154D01*
X0229641Y0267154D02*
X0229641Y0273846D01*
X0234759Y0273846D01*
X0234759Y0267154D01*
X0229641Y0267154D01*
X0229838Y0268925D02*
X0229838Y0269319D01*
X0234563Y0269319D01*
X0234563Y0268925D02*
X0229838Y0268925D01*
X0228163Y0268925D02*
X0223438Y0268925D01*
X0223438Y0269319D01*
X0228163Y0269319D01*
X0236238Y0269319D02*
X0240963Y0269319D01*
X0240963Y0268925D02*
X0236238Y0268925D01*
X0236238Y0269319D01*
X0236041Y0267154D02*
X0236041Y0273846D01*
X0241159Y0273846D01*
X0241159Y0267154D01*
X0236041Y0267154D01*
X0236041Y0281554D02*
X0236041Y0288246D01*
X0241159Y0288246D01*
X0241159Y0281554D01*
X0236041Y0281554D01*
X0234759Y0281554D02*
X0229641Y0281554D01*
X0229641Y0288246D01*
X0234759Y0288246D01*
X0234759Y0281554D01*
X0234563Y0283325D02*
X0229838Y0283325D01*
X0229838Y0283719D01*
X0234563Y0283719D01*
X0236238Y0283719D02*
X0240963Y0283719D01*
X0240963Y0283325D02*
X0236238Y0283325D01*
X0236238Y0283719D01*
X0228163Y0283719D02*
X0223438Y0283719D01*
X0223438Y0283325D01*
X0228163Y0283325D01*
X0228359Y0281554D02*
X0223241Y0281554D01*
X0223241Y0288246D01*
X0228359Y0288246D01*
X0228359Y0281554D01*
X0213859Y0281554D02*
X0208741Y0281554D01*
X0208741Y0288246D01*
X0213859Y0288246D01*
X0213859Y0281554D01*
X0213663Y0283325D02*
X0208938Y0283325D01*
X0208938Y0283719D01*
X0213663Y0283719D01*
X0207263Y0283719D02*
X0202538Y0283719D01*
X0202538Y0283325D01*
X0207263Y0283325D01*
X0207459Y0281554D02*
X0202341Y0281554D01*
X0202341Y0288246D01*
X0207459Y0288246D01*
X0207459Y0281554D01*
X0207459Y0273846D02*
X0202341Y0273846D01*
X0202341Y0267154D01*
X0207459Y0267154D01*
X0207459Y0273846D01*
X0208741Y0273846D02*
X0213859Y0273846D01*
X0213859Y0267154D01*
X0208741Y0267154D01*
X0208741Y0273846D01*
X0208938Y0269319D02*
X0213663Y0269319D01*
X0213663Y0268925D02*
X0208938Y0268925D01*
X0208938Y0269319D01*
X0207263Y0269319D02*
X0202538Y0269319D01*
X0202538Y0268925D01*
X0207263Y0268925D01*
X0200863Y0268925D02*
X0196138Y0268925D01*
X0196138Y0269319D01*
X0200863Y0269319D01*
X0201059Y0267154D02*
X0195941Y0267154D01*
X0195941Y0273846D01*
X0201059Y0273846D01*
X0201059Y0267154D01*
X0201059Y0259446D02*
X0195941Y0259446D01*
X0195941Y0252754D01*
X0201059Y0252754D01*
X0201059Y0259446D01*
X0202341Y0259446D02*
X0207459Y0259446D01*
X0207459Y0252754D01*
X0202341Y0252754D01*
X0202341Y0259446D01*
X0202538Y0254919D02*
X0207263Y0254919D01*
X0207263Y0254525D02*
X0202538Y0254525D01*
X0202538Y0254919D01*
X0200863Y0254919D02*
X0196138Y0254919D01*
X0196138Y0254525D01*
X0200863Y0254525D01*
X0208741Y0252754D02*
X0208741Y0259446D01*
X0213859Y0259446D01*
X0213859Y0252754D01*
X0208741Y0252754D01*
X0208938Y0254525D02*
X0208938Y0254919D01*
X0213663Y0254919D01*
X0213663Y0254525D02*
X0208938Y0254525D01*
X0208741Y0245046D02*
X0213859Y0245046D01*
X0213859Y0238354D01*
X0208741Y0238354D01*
X0208741Y0245046D01*
X0207459Y0245046D02*
X0202341Y0245046D01*
X0202341Y0238354D01*
X0207459Y0238354D01*
X0207459Y0245046D01*
X0207263Y0240519D02*
X0202538Y0240519D01*
X0202538Y0240125D01*
X0207263Y0240125D01*
X0208938Y0240125D02*
X0208938Y0240519D01*
X0213663Y0240519D01*
X0213663Y0240125D02*
X0208938Y0240125D01*
X0201059Y0238354D02*
X0195941Y0238354D01*
X0195941Y0245046D01*
X0201059Y0245046D01*
X0201059Y0238354D01*
X0200863Y0240125D02*
X0196138Y0240125D01*
X0196138Y0240519D01*
X0200863Y0240519D01*
X0201059Y0230646D02*
X0195941Y0230646D01*
X0195941Y0223954D01*
X0201059Y0223954D01*
X0201059Y0230646D01*
X0202341Y0230646D02*
X0207459Y0230646D01*
X0207459Y0223954D01*
X0202341Y0223954D01*
X0202341Y0230646D01*
X0202538Y0226119D02*
X0207263Y0226119D01*
X0207263Y0225725D02*
X0202538Y0225725D01*
X0202538Y0226119D01*
X0200863Y0226119D02*
X0196138Y0226119D01*
X0196138Y0225725D01*
X0200863Y0225725D01*
X0208741Y0223954D02*
X0208741Y0230646D01*
X0213859Y0230646D01*
X0213859Y0223954D01*
X0208741Y0223954D01*
X0208938Y0225725D02*
X0208938Y0226119D01*
X0213663Y0226119D01*
X0213663Y0225725D02*
X0208938Y0225725D01*
X0186559Y0223954D02*
X0181441Y0223954D01*
X0181441Y0230646D01*
X0186559Y0230646D01*
X0186559Y0223954D01*
X0186363Y0225725D02*
X0181638Y0225725D01*
X0181638Y0226119D01*
X0186363Y0226119D01*
X0179963Y0226119D02*
X0175238Y0226119D01*
X0175238Y0225725D01*
X0179963Y0225725D01*
X0180159Y0223954D02*
X0175041Y0223954D01*
X0175041Y0230646D01*
X0180159Y0230646D01*
X0180159Y0223954D01*
X0173759Y0223954D02*
X0173759Y0230646D01*
X0168641Y0230646D01*
X0168641Y0223954D01*
X0173759Y0223954D01*
X0173563Y0225725D02*
X0168838Y0225725D01*
X0168838Y0226119D01*
X0173563Y0226119D01*
X0173759Y0238354D02*
X0168641Y0238354D01*
X0168641Y0245046D01*
X0173759Y0245046D01*
X0173759Y0238354D01*
X0175041Y0238354D02*
X0175041Y0245046D01*
X0180159Y0245046D01*
X0180159Y0238354D01*
X0175041Y0238354D01*
X0175238Y0240125D02*
X0175238Y0240519D01*
X0179963Y0240519D01*
X0179963Y0240125D02*
X0175238Y0240125D01*
X0173563Y0240125D02*
X0168838Y0240125D01*
X0168838Y0240519D01*
X0173563Y0240519D01*
X0181638Y0240519D02*
X0186363Y0240519D01*
X0186363Y0240125D02*
X0181638Y0240125D01*
X0181638Y0240519D01*
X0181441Y0238354D02*
X0181441Y0245046D01*
X0186559Y0245046D01*
X0186559Y0238354D01*
X0181441Y0238354D01*
X0181441Y0252754D02*
X0181441Y0259446D01*
X0186559Y0259446D01*
X0186559Y0252754D01*
X0181441Y0252754D01*
X0180159Y0252754D02*
X0175041Y0252754D01*
X0175041Y0259446D01*
X0180159Y0259446D01*
X0180159Y0252754D01*
X0179963Y0254525D02*
X0175238Y0254525D01*
X0175238Y0254919D01*
X0179963Y0254919D01*
X0181638Y0254919D02*
X0186363Y0254919D01*
X0186363Y0254525D02*
X0181638Y0254525D01*
X0181638Y0254919D01*
X0173563Y0254919D02*
X0168838Y0254919D01*
X0168838Y0254525D01*
X0173563Y0254525D01*
X0173759Y0252754D02*
X0168641Y0252754D01*
X0168641Y0259446D01*
X0173759Y0259446D01*
X0173759Y0252754D01*
X0173759Y0267154D02*
X0168641Y0267154D01*
X0168641Y0273846D01*
X0173759Y0273846D01*
X0173759Y0267154D01*
X0175041Y0267154D02*
X0175041Y0273846D01*
X0180159Y0273846D01*
X0180159Y0267154D01*
X0175041Y0267154D01*
X0175238Y0268925D02*
X0175238Y0269319D01*
X0179963Y0269319D01*
X0179963Y0268925D02*
X0175238Y0268925D01*
X0173563Y0268925D02*
X0168838Y0268925D01*
X0168838Y0269319D01*
X0173563Y0269319D01*
X0181638Y0269319D02*
X0186363Y0269319D01*
X0186363Y0268925D02*
X0181638Y0268925D01*
X0181638Y0269319D01*
X0181441Y0267154D02*
X0181441Y0273846D01*
X0186559Y0273846D01*
X0186559Y0267154D01*
X0181441Y0267154D01*
X0181441Y0281554D02*
X0181441Y0288246D01*
X0186559Y0288246D01*
X0186559Y0281554D01*
X0181441Y0281554D01*
X0180159Y0281554D02*
X0175041Y0281554D01*
X0175041Y0288246D01*
X0180159Y0288246D01*
X0180159Y0281554D01*
X0179963Y0283325D02*
X0175238Y0283325D01*
X0175238Y0283719D01*
X0179963Y0283719D01*
X0181638Y0283719D02*
X0186363Y0283719D01*
X0186363Y0283325D02*
X0181638Y0283325D01*
X0181638Y0283719D01*
X0173563Y0283719D02*
X0168838Y0283719D01*
X0168838Y0283325D01*
X0173563Y0283325D01*
X0173759Y0281554D02*
X0168641Y0281554D01*
X0168641Y0288246D01*
X0173759Y0288246D01*
X0173759Y0281554D01*
X0159259Y0281554D02*
X0154141Y0281554D01*
X0154141Y0288246D01*
X0159259Y0288246D01*
X0159259Y0281554D01*
X0159063Y0283325D02*
X0154338Y0283325D01*
X0154338Y0283719D01*
X0159063Y0283719D01*
X0152663Y0283719D02*
X0147938Y0283719D01*
X0147938Y0283325D01*
X0152663Y0283325D01*
X0152859Y0281554D02*
X0147741Y0281554D01*
X0147741Y0288246D01*
X0152859Y0288246D01*
X0152859Y0281554D01*
X0152859Y0273846D02*
X0147741Y0273846D01*
X0147741Y0267154D01*
X0152859Y0267154D01*
X0152859Y0273846D01*
X0154141Y0273846D02*
X0159259Y0273846D01*
X0159259Y0267154D01*
X0154141Y0267154D01*
X0154141Y0273846D01*
X0154338Y0269319D02*
X0159063Y0269319D01*
X0159063Y0268925D02*
X0154338Y0268925D01*
X0154338Y0269319D01*
X0152663Y0269319D02*
X0147938Y0269319D01*
X0147938Y0268925D01*
X0152663Y0268925D01*
X0146263Y0268925D02*
X0141538Y0268925D01*
X0141538Y0269319D01*
X0146263Y0269319D01*
X0146459Y0267154D02*
X0141341Y0267154D01*
X0141341Y0273846D01*
X0146459Y0273846D01*
X0146459Y0267154D01*
X0146459Y0259446D02*
X0141341Y0259446D01*
X0141341Y0252754D01*
X0146459Y0252754D01*
X0146459Y0259446D01*
X0147741Y0259446D02*
X0152859Y0259446D01*
X0152859Y0252754D01*
X0147741Y0252754D01*
X0147741Y0259446D01*
X0147938Y0254919D02*
X0152663Y0254919D01*
X0152663Y0254525D02*
X0147938Y0254525D01*
X0147938Y0254919D01*
X0146263Y0254919D02*
X0141538Y0254919D01*
X0141538Y0254525D01*
X0146263Y0254525D01*
X0154141Y0252754D02*
X0154141Y0259446D01*
X0159259Y0259446D01*
X0159259Y0252754D01*
X0154141Y0252754D01*
X0154338Y0254525D02*
X0154338Y0254919D01*
X0159063Y0254919D01*
X0159063Y0254525D02*
X0154338Y0254525D01*
X0154141Y0245046D02*
X0159259Y0245046D01*
X0159259Y0238354D01*
X0154141Y0238354D01*
X0154141Y0245046D01*
X0152859Y0245046D02*
X0147741Y0245046D01*
X0147741Y0238354D01*
X0152859Y0238354D01*
X0152859Y0245046D01*
X0152663Y0240519D02*
X0147938Y0240519D01*
X0147938Y0240125D01*
X0152663Y0240125D01*
X0154338Y0240125D02*
X0154338Y0240519D01*
X0159063Y0240519D01*
X0159063Y0240125D02*
X0154338Y0240125D01*
X0146459Y0238354D02*
X0141341Y0238354D01*
X0141341Y0245046D01*
X0146459Y0245046D01*
X0146459Y0238354D01*
X0146263Y0240125D02*
X0141538Y0240125D01*
X0141538Y0240519D01*
X0146263Y0240519D01*
X0146459Y0230646D02*
X0141341Y0230646D01*
X0141341Y0223954D01*
X0146459Y0223954D01*
X0146459Y0230646D01*
X0147741Y0230646D02*
X0152859Y0230646D01*
X0152859Y0223954D01*
X0147741Y0223954D01*
X0147741Y0230646D01*
X0147938Y0226119D02*
X0152663Y0226119D01*
X0152663Y0225725D02*
X0147938Y0225725D01*
X0147938Y0226119D01*
X0146263Y0226119D02*
X0141538Y0226119D01*
X0141538Y0225725D01*
X0146263Y0225725D01*
X0154141Y0223954D02*
X0154141Y0230646D01*
X0159259Y0230646D01*
X0159259Y0223954D01*
X0154141Y0223954D01*
X0154338Y0225725D02*
X0154338Y0226119D01*
X0159063Y0226119D01*
X0159063Y0225725D02*
X0154338Y0225725D01*
X0130709Y0223954D02*
X0125591Y0223954D01*
X0125591Y0230646D01*
X0130709Y0230646D01*
X0130709Y0223954D01*
X0130513Y0225725D02*
X0125788Y0225725D01*
X0125788Y0226119D01*
X0130513Y0226119D01*
X0124113Y0226119D02*
X0119388Y0226119D01*
X0119388Y0225725D01*
X0124113Y0225725D01*
X0124309Y0223954D02*
X0119191Y0223954D01*
X0119191Y0230646D01*
X0124309Y0230646D01*
X0124309Y0223954D01*
X0117909Y0223954D02*
X0117909Y0230646D01*
X0112791Y0230646D01*
X0112791Y0223954D01*
X0117909Y0223954D01*
X0117713Y0225725D02*
X0112988Y0225725D01*
X0112988Y0226119D01*
X0117713Y0226119D01*
X0117909Y0238354D02*
X0112791Y0238354D01*
X0112791Y0245046D01*
X0117909Y0245046D01*
X0117909Y0238354D01*
X0119191Y0238354D02*
X0119191Y0245046D01*
X0124309Y0245046D01*
X0124309Y0238354D01*
X0119191Y0238354D01*
X0119388Y0240125D02*
X0119388Y0240519D01*
X0124113Y0240519D01*
X0124113Y0240125D02*
X0119388Y0240125D01*
X0117713Y0240125D02*
X0112988Y0240125D01*
X0112988Y0240519D01*
X0117713Y0240519D01*
X0125788Y0240519D02*
X0130513Y0240519D01*
X0130513Y0240125D02*
X0125788Y0240125D01*
X0125788Y0240519D01*
X0125591Y0238354D02*
X0125591Y0245046D01*
X0130709Y0245046D01*
X0130709Y0238354D01*
X0125591Y0238354D01*
X0125591Y0252754D02*
X0125591Y0259446D01*
X0130709Y0259446D01*
X0130709Y0252754D01*
X0125591Y0252754D01*
X0124309Y0252754D02*
X0119191Y0252754D01*
X0119191Y0259446D01*
X0124309Y0259446D01*
X0124309Y0252754D01*
X0124113Y0254525D02*
X0119388Y0254525D01*
X0119388Y0254919D01*
X0124113Y0254919D01*
X0125788Y0254919D02*
X0130513Y0254919D01*
X0130513Y0254525D02*
X0125788Y0254525D01*
X0125788Y0254919D01*
X0117713Y0254919D02*
X0112988Y0254919D01*
X0112988Y0254525D01*
X0117713Y0254525D01*
X0117909Y0252754D02*
X0112791Y0252754D01*
X0112791Y0259446D01*
X0117909Y0259446D01*
X0117909Y0252754D01*
X0117909Y0267154D02*
X0112791Y0267154D01*
X0112791Y0273846D01*
X0117909Y0273846D01*
X0117909Y0267154D01*
X0119191Y0267154D02*
X0119191Y0273846D01*
X0124309Y0273846D01*
X0124309Y0267154D01*
X0119191Y0267154D01*
X0119388Y0268925D02*
X0119388Y0269319D01*
X0124113Y0269319D01*
X0124113Y0268925D02*
X0119388Y0268925D01*
X0117713Y0268925D02*
X0112988Y0268925D01*
X0112988Y0269319D01*
X0117713Y0269319D01*
X0125788Y0269319D02*
X0130513Y0269319D01*
X0130513Y0268925D02*
X0125788Y0268925D01*
X0125788Y0269319D01*
X0125591Y0267154D02*
X0125591Y0273846D01*
X0130709Y0273846D01*
X0130709Y0267154D01*
X0125591Y0267154D01*
X0125591Y0281554D02*
X0125591Y0288246D01*
X0130709Y0288246D01*
X0130709Y0281554D01*
X0125591Y0281554D01*
X0124309Y0281554D02*
X0119191Y0281554D01*
X0119191Y0288246D01*
X0124309Y0288246D01*
X0124309Y0281554D01*
X0124113Y0283325D02*
X0119388Y0283325D01*
X0119388Y0283719D01*
X0124113Y0283719D01*
X0125788Y0283719D02*
X0130513Y0283719D01*
X0130513Y0283325D02*
X0125788Y0283325D01*
X0125788Y0283719D01*
X0117713Y0283719D02*
X0112988Y0283719D01*
X0112988Y0283325D01*
X0117713Y0283325D01*
X0117909Y0281554D02*
X0112791Y0281554D01*
X0112791Y0288246D01*
X0117909Y0288246D01*
X0117909Y0281554D01*
X0103409Y0281554D02*
X0098291Y0281554D01*
X0098291Y0288246D01*
X0103409Y0288246D01*
X0103409Y0281554D01*
X0103213Y0283325D02*
X0098488Y0283325D01*
X0098488Y0283719D01*
X0103213Y0283719D01*
X0096813Y0283719D02*
X0092088Y0283719D01*
X0092088Y0283325D01*
X0096813Y0283325D01*
X0097009Y0281554D02*
X0091891Y0281554D01*
X0091891Y0288246D01*
X0097009Y0288246D01*
X0097009Y0281554D01*
X0097009Y0273846D02*
X0091891Y0273846D01*
X0091891Y0267154D01*
X0097009Y0267154D01*
X0097009Y0273846D01*
X0098291Y0273846D02*
X0103409Y0273846D01*
X0103409Y0267154D01*
X0098291Y0267154D01*
X0098291Y0273846D01*
X0098488Y0269319D02*
X0103213Y0269319D01*
X0103213Y0268925D02*
X0098488Y0268925D01*
X0098488Y0269319D01*
X0096813Y0269319D02*
X0092088Y0269319D01*
X0092088Y0268925D01*
X0096813Y0268925D01*
X0090413Y0268925D02*
X0085688Y0268925D01*
X0085688Y0269319D01*
X0090413Y0269319D01*
X0090609Y0267154D02*
X0085491Y0267154D01*
X0085491Y0273846D01*
X0090609Y0273846D01*
X0090609Y0267154D01*
X0090609Y0259446D02*
X0085491Y0259446D01*
X0085491Y0252754D01*
X0090609Y0252754D01*
X0090609Y0259446D01*
X0091891Y0259446D02*
X0097009Y0259446D01*
X0097009Y0252754D01*
X0091891Y0252754D01*
X0091891Y0259446D01*
X0092088Y0254919D02*
X0096813Y0254919D01*
X0096813Y0254525D02*
X0092088Y0254525D01*
X0092088Y0254919D01*
X0090413Y0254919D02*
X0085688Y0254919D01*
X0085688Y0254525D01*
X0090413Y0254525D01*
X0098291Y0252754D02*
X0098291Y0259446D01*
X0103409Y0259446D01*
X0103409Y0252754D01*
X0098291Y0252754D01*
X0098488Y0254525D02*
X0098488Y0254919D01*
X0103213Y0254919D01*
X0103213Y0254525D02*
X0098488Y0254525D01*
X0098291Y0245046D02*
X0103409Y0245046D01*
X0103409Y0238354D01*
X0098291Y0238354D01*
X0098291Y0245046D01*
X0097009Y0245046D02*
X0091891Y0245046D01*
X0091891Y0238354D01*
X0097009Y0238354D01*
X0097009Y0245046D01*
X0096813Y0240519D02*
X0092088Y0240519D01*
X0092088Y0240125D01*
X0096813Y0240125D01*
X0098488Y0240125D02*
X0098488Y0240519D01*
X0103213Y0240519D01*
X0103213Y0240125D02*
X0098488Y0240125D01*
X0090609Y0238354D02*
X0085491Y0238354D01*
X0085491Y0245046D01*
X0090609Y0245046D01*
X0090609Y0238354D01*
X0090413Y0240125D02*
X0085688Y0240125D01*
X0085688Y0240519D01*
X0090413Y0240519D01*
X0090609Y0230646D02*
X0085491Y0230646D01*
X0085491Y0223954D01*
X0090609Y0223954D01*
X0090609Y0230646D01*
X0091891Y0230646D02*
X0097009Y0230646D01*
X0097009Y0223954D01*
X0091891Y0223954D01*
X0091891Y0230646D01*
X0092088Y0226119D02*
X0096813Y0226119D01*
X0096813Y0225725D02*
X0092088Y0225725D01*
X0092088Y0226119D01*
X0090413Y0226119D02*
X0085688Y0226119D01*
X0085688Y0225725D01*
X0090413Y0225725D01*
X0098291Y0223954D02*
X0098291Y0230646D01*
X0103409Y0230646D01*
X0103409Y0223954D01*
X0098291Y0223954D01*
X0098488Y0225725D02*
X0098488Y0226119D01*
X0103213Y0226119D01*
X0103213Y0225725D02*
X0098488Y0225725D01*
X0076109Y0223954D02*
X0070991Y0223954D01*
X0070991Y0230646D01*
X0076109Y0230646D01*
X0076109Y0223954D01*
X0075913Y0225725D02*
X0071188Y0225725D01*
X0071188Y0226119D01*
X0075913Y0226119D01*
X0069513Y0226119D02*
X0064788Y0226119D01*
X0064788Y0225725D01*
X0069513Y0225725D01*
X0069709Y0223954D02*
X0064591Y0223954D01*
X0064591Y0230646D01*
X0069709Y0230646D01*
X0069709Y0223954D01*
X0063309Y0223954D02*
X0063309Y0230646D01*
X0058191Y0230646D01*
X0058191Y0223954D01*
X0063309Y0223954D01*
X0063113Y0225725D02*
X0058388Y0225725D01*
X0058388Y0226119D01*
X0063113Y0226119D01*
X0063309Y0238354D02*
X0058191Y0238354D01*
X0058191Y0245046D01*
X0063309Y0245046D01*
X0063309Y0238354D01*
X0064591Y0238354D02*
X0064591Y0245046D01*
X0069709Y0245046D01*
X0069709Y0238354D01*
X0064591Y0238354D01*
X0064788Y0240125D02*
X0064788Y0240519D01*
X0069513Y0240519D01*
X0069513Y0240125D02*
X0064788Y0240125D01*
X0063113Y0240125D02*
X0058388Y0240125D01*
X0058388Y0240519D01*
X0063113Y0240519D01*
X0071188Y0240519D02*
X0075913Y0240519D01*
X0075913Y0240125D02*
X0071188Y0240125D01*
X0071188Y0240519D01*
X0070991Y0238354D02*
X0070991Y0245046D01*
X0076109Y0245046D01*
X0076109Y0238354D01*
X0070991Y0238354D01*
X0070991Y0252754D02*
X0070991Y0259446D01*
X0076109Y0259446D01*
X0076109Y0252754D01*
X0070991Y0252754D01*
X0069709Y0252754D02*
X0064591Y0252754D01*
X0064591Y0259446D01*
X0069709Y0259446D01*
X0069709Y0252754D01*
X0069513Y0254525D02*
X0064788Y0254525D01*
X0064788Y0254919D01*
X0069513Y0254919D01*
X0071188Y0254919D02*
X0075913Y0254919D01*
X0075913Y0254525D02*
X0071188Y0254525D01*
X0071188Y0254919D01*
X0063113Y0254919D02*
X0058388Y0254919D01*
X0058388Y0254525D01*
X0063113Y0254525D01*
X0063309Y0252754D02*
X0058191Y0252754D01*
X0058191Y0259446D01*
X0063309Y0259446D01*
X0063309Y0252754D01*
X0048809Y0252754D02*
X0043691Y0252754D01*
X0043691Y0259446D01*
X0048809Y0259446D01*
X0048809Y0252754D01*
X0048613Y0254525D02*
X0043888Y0254525D01*
X0043888Y0254919D01*
X0048613Y0254919D01*
X0042213Y0254919D02*
X0037488Y0254919D01*
X0037488Y0254525D01*
X0042213Y0254525D01*
X0042409Y0252754D02*
X0037291Y0252754D01*
X0037291Y0259446D01*
X0042409Y0259446D01*
X0042409Y0252754D01*
X0036009Y0252754D02*
X0030891Y0252754D01*
X0030891Y0259446D01*
X0036009Y0259446D01*
X0036009Y0252754D01*
X0035813Y0254525D02*
X0031088Y0254525D01*
X0031088Y0254919D01*
X0035813Y0254919D01*
X0036009Y0245046D02*
X0030891Y0245046D01*
X0030891Y0238354D01*
X0036009Y0238354D01*
X0036009Y0245046D01*
X0037291Y0245046D02*
X0042409Y0245046D01*
X0042409Y0238354D01*
X0037291Y0238354D01*
X0037291Y0245046D01*
X0037488Y0240519D02*
X0042213Y0240519D01*
X0042213Y0240125D02*
X0037488Y0240125D01*
X0037488Y0240519D01*
X0035813Y0240519D02*
X0031088Y0240519D01*
X0031088Y0240125D01*
X0035813Y0240125D01*
X0043691Y0238354D02*
X0043691Y0245046D01*
X0048809Y0245046D01*
X0048809Y0238354D01*
X0043691Y0238354D01*
X0043888Y0240125D02*
X0043888Y0240519D01*
X0048613Y0240519D01*
X0048613Y0240125D02*
X0043888Y0240125D01*
X0043691Y0230646D02*
X0048809Y0230646D01*
X0048809Y0223954D01*
X0043691Y0223954D01*
X0043691Y0230646D01*
X0042409Y0230646D02*
X0037291Y0230646D01*
X0037291Y0223954D01*
X0042409Y0223954D01*
X0042409Y0230646D01*
X0042213Y0226119D02*
X0037488Y0226119D01*
X0037488Y0225725D01*
X0042213Y0225725D01*
X0043888Y0225725D02*
X0043888Y0226119D01*
X0048613Y0226119D01*
X0048613Y0225725D02*
X0043888Y0225725D01*
X0036009Y0223954D02*
X0036009Y0230646D01*
X0030891Y0230646D01*
X0030891Y0223954D01*
X0036009Y0223954D01*
X0035813Y0225725D02*
X0031088Y0225725D01*
X0031088Y0226119D01*
X0035813Y0226119D01*
X0036009Y0267154D02*
X0030891Y0267154D01*
X0030891Y0273846D01*
X0036009Y0273846D01*
X0036009Y0267154D01*
X0037291Y0267154D02*
X0037291Y0273846D01*
X0042409Y0273846D01*
X0042409Y0267154D01*
X0037291Y0267154D01*
X0037488Y0268925D02*
X0037488Y0269319D01*
X0042213Y0269319D01*
X0042213Y0268925D02*
X0037488Y0268925D01*
X0035813Y0268925D02*
X0031088Y0268925D01*
X0031088Y0269319D01*
X0035813Y0269319D01*
X0043691Y0267154D02*
X0043691Y0273846D01*
X0048809Y0273846D01*
X0048809Y0267154D01*
X0043691Y0267154D01*
X0043888Y0268925D02*
X0043888Y0269319D01*
X0048613Y0269319D01*
X0048613Y0268925D02*
X0043888Y0268925D01*
X0043691Y0281554D02*
X0043691Y0288246D01*
X0048809Y0288246D01*
X0048809Y0281554D01*
X0043691Y0281554D01*
X0042409Y0281554D02*
X0037291Y0281554D01*
X0037291Y0288246D01*
X0042409Y0288246D01*
X0042409Y0281554D01*
X0042213Y0283325D02*
X0037488Y0283325D01*
X0037488Y0283719D01*
X0042213Y0283719D01*
X0043888Y0283719D02*
X0048613Y0283719D01*
X0048613Y0283325D02*
X0043888Y0283325D01*
X0043888Y0283719D01*
X0036009Y0281554D02*
X0030891Y0281554D01*
X0030891Y0288246D01*
X0036009Y0288246D01*
X0036009Y0281554D01*
X0035813Y0283325D02*
X0031088Y0283325D01*
X0031088Y0283719D01*
X0035813Y0283719D01*
X0036009Y0300154D02*
X0030891Y0300154D01*
X0030891Y0306846D01*
X0036009Y0306846D01*
X0036009Y0300154D01*
X0037291Y0300154D02*
X0037291Y0306846D01*
X0042409Y0306846D01*
X0042409Y0300154D01*
X0037291Y0300154D01*
X0037488Y0301925D02*
X0037488Y0302319D01*
X0042213Y0302319D01*
X0042213Y0301925D02*
X0037488Y0301925D01*
X0035813Y0301925D02*
X0031088Y0301925D01*
X0031088Y0302319D01*
X0035813Y0302319D01*
X0043691Y0300154D02*
X0043691Y0306846D01*
X0048809Y0306846D01*
X0048809Y0300154D01*
X0043691Y0300154D01*
X0043888Y0301925D02*
X0043888Y0302319D01*
X0048613Y0302319D01*
X0048613Y0301925D02*
X0043888Y0301925D01*
X0043691Y0314554D02*
X0043691Y0321246D01*
X0048809Y0321246D01*
X0048809Y0314554D01*
X0043691Y0314554D01*
X0042409Y0314554D02*
X0037291Y0314554D01*
X0037291Y0321246D01*
X0042409Y0321246D01*
X0042409Y0314554D01*
X0042213Y0316325D02*
X0037488Y0316325D01*
X0037488Y0316719D01*
X0042213Y0316719D01*
X0043888Y0316719D02*
X0048613Y0316719D01*
X0048613Y0316325D02*
X0043888Y0316325D01*
X0043888Y0316719D01*
X0036009Y0314554D02*
X0030891Y0314554D01*
X0030891Y0321246D01*
X0036009Y0321246D01*
X0036009Y0314554D01*
X0035813Y0316325D02*
X0031088Y0316325D01*
X0031088Y0316719D01*
X0035813Y0316719D01*
X0036009Y0328954D02*
X0030891Y0328954D01*
X0030891Y0335646D01*
X0036009Y0335646D01*
X0036009Y0328954D01*
X0037291Y0328954D02*
X0037291Y0335646D01*
X0042409Y0335646D01*
X0042409Y0328954D01*
X0037291Y0328954D01*
X0037488Y0330725D02*
X0037488Y0331119D01*
X0042213Y0331119D01*
X0042213Y0330725D02*
X0037488Y0330725D01*
X0035813Y0330725D02*
X0031088Y0330725D01*
X0031088Y0331119D01*
X0035813Y0331119D01*
X0043691Y0328954D02*
X0043691Y0335646D01*
X0048809Y0335646D01*
X0048809Y0328954D01*
X0043691Y0328954D01*
X0043888Y0330725D02*
X0043888Y0331119D01*
X0048613Y0331119D01*
X0048613Y0330725D02*
X0043888Y0330725D01*
X0043691Y0343354D02*
X0043691Y0350046D01*
X0048809Y0350046D01*
X0048809Y0343354D01*
X0043691Y0343354D01*
X0042409Y0343354D02*
X0037291Y0343354D01*
X0037291Y0350046D01*
X0042409Y0350046D01*
X0042409Y0343354D01*
X0042213Y0345125D02*
X0037488Y0345125D01*
X0037488Y0345519D01*
X0042213Y0345519D01*
X0043888Y0345519D02*
X0048613Y0345519D01*
X0048613Y0345125D02*
X0043888Y0345125D01*
X0043888Y0345519D01*
X0036009Y0343354D02*
X0030891Y0343354D01*
X0030891Y0350046D01*
X0036009Y0350046D01*
X0036009Y0343354D01*
X0035813Y0345125D02*
X0031088Y0345125D01*
X0031088Y0345519D01*
X0035813Y0345519D01*
X0036009Y0357754D02*
X0030891Y0357754D01*
X0030891Y0364446D01*
X0036009Y0364446D01*
X0036009Y0357754D01*
X0037291Y0357754D02*
X0037291Y0364446D01*
X0042409Y0364446D01*
X0042409Y0357754D01*
X0037291Y0357754D01*
X0037488Y0359525D02*
X0037488Y0359919D01*
X0042213Y0359919D01*
X0042213Y0359525D02*
X0037488Y0359525D01*
X0035813Y0359525D02*
X0031088Y0359525D01*
X0031088Y0359919D01*
X0035813Y0359919D01*
X0043691Y0357754D02*
X0043691Y0364446D01*
X0048809Y0364446D01*
X0048809Y0357754D01*
X0043691Y0357754D01*
X0043888Y0359525D02*
X0043888Y0359919D01*
X0048613Y0359919D01*
X0048613Y0359525D02*
X0043888Y0359525D01*
X0058191Y0357754D02*
X0058191Y0364446D01*
X0063309Y0364446D01*
X0063309Y0357754D01*
X0058191Y0357754D01*
X0058388Y0359525D02*
X0058388Y0359919D01*
X0063113Y0359919D01*
X0063113Y0359525D02*
X0058388Y0359525D01*
X0064788Y0359525D02*
X0064788Y0359919D01*
X0069513Y0359919D01*
X0069513Y0359525D02*
X0064788Y0359525D01*
X0064591Y0357754D02*
X0064591Y0364446D01*
X0069709Y0364446D01*
X0069709Y0357754D01*
X0064591Y0357754D01*
X0070991Y0357754D02*
X0070991Y0364446D01*
X0076109Y0364446D01*
X0076109Y0357754D01*
X0070991Y0357754D01*
X0071188Y0359525D02*
X0071188Y0359919D01*
X0075913Y0359919D01*
X0075913Y0359525D02*
X0071188Y0359525D01*
X0070991Y0350046D02*
X0076109Y0350046D01*
X0076109Y0343354D01*
X0070991Y0343354D01*
X0070991Y0350046D01*
X0069709Y0350046D02*
X0064591Y0350046D01*
X0064591Y0343354D01*
X0069709Y0343354D01*
X0069709Y0350046D01*
X0069513Y0345519D02*
X0064788Y0345519D01*
X0064788Y0345125D01*
X0069513Y0345125D01*
X0071188Y0345125D02*
X0071188Y0345519D01*
X0075913Y0345519D01*
X0075913Y0345125D02*
X0071188Y0345125D01*
X0063309Y0343354D02*
X0058191Y0343354D01*
X0058191Y0350046D01*
X0063309Y0350046D01*
X0063309Y0343354D01*
X0063113Y0345125D02*
X0058388Y0345125D01*
X0058388Y0345519D01*
X0063113Y0345519D01*
X0063309Y0335646D02*
X0058191Y0335646D01*
X0058191Y0328954D01*
X0063309Y0328954D01*
X0063309Y0335646D01*
X0064591Y0335646D02*
X0069709Y0335646D01*
X0069709Y0328954D01*
X0064591Y0328954D01*
X0064591Y0335646D01*
X0064788Y0331119D02*
X0069513Y0331119D01*
X0069513Y0330725D02*
X0064788Y0330725D01*
X0064788Y0331119D01*
X0063113Y0331119D02*
X0058388Y0331119D01*
X0058388Y0330725D01*
X0063113Y0330725D01*
X0070991Y0328954D02*
X0070991Y0335646D01*
X0076109Y0335646D01*
X0076109Y0328954D01*
X0070991Y0328954D01*
X0071188Y0330725D02*
X0071188Y0331119D01*
X0075913Y0331119D01*
X0075913Y0330725D02*
X0071188Y0330725D01*
X0070991Y0321246D02*
X0076109Y0321246D01*
X0076109Y0314554D01*
X0070991Y0314554D01*
X0070991Y0321246D01*
X0069709Y0321246D02*
X0064591Y0321246D01*
X0064591Y0314554D01*
X0069709Y0314554D01*
X0069709Y0321246D01*
X0069513Y0316719D02*
X0064788Y0316719D01*
X0064788Y0316325D01*
X0069513Y0316325D01*
X0071188Y0316325D02*
X0071188Y0316719D01*
X0075913Y0316719D01*
X0075913Y0316325D02*
X0071188Y0316325D01*
X0063309Y0314554D02*
X0058191Y0314554D01*
X0058191Y0321246D01*
X0063309Y0321246D01*
X0063309Y0314554D01*
X0063113Y0316325D02*
X0058388Y0316325D01*
X0058388Y0316719D01*
X0063113Y0316719D01*
X0063309Y0306846D02*
X0058191Y0306846D01*
X0058191Y0300154D01*
X0063309Y0300154D01*
X0063309Y0306846D01*
X0064591Y0306846D02*
X0069709Y0306846D01*
X0069709Y0300154D01*
X0064591Y0300154D01*
X0064591Y0306846D01*
X0064788Y0302319D02*
X0069513Y0302319D01*
X0069513Y0301925D02*
X0064788Y0301925D01*
X0064788Y0302319D01*
X0063113Y0302319D02*
X0058388Y0302319D01*
X0058388Y0301925D01*
X0063113Y0301925D01*
X0070991Y0300154D02*
X0070991Y0306846D01*
X0076109Y0306846D01*
X0076109Y0300154D01*
X0070991Y0300154D01*
X0071188Y0301925D02*
X0071188Y0302319D01*
X0075913Y0302319D01*
X0075913Y0301925D02*
X0071188Y0301925D01*
X0070991Y0288246D02*
X0076109Y0288246D01*
X0076109Y0281554D01*
X0070991Y0281554D01*
X0070991Y0288246D01*
X0069709Y0288246D02*
X0064591Y0288246D01*
X0064591Y0281554D01*
X0069709Y0281554D01*
X0069709Y0288246D01*
X0069513Y0283719D02*
X0064788Y0283719D01*
X0064788Y0283325D01*
X0069513Y0283325D01*
X0071188Y0283325D02*
X0071188Y0283719D01*
X0075913Y0283719D01*
X0075913Y0283325D02*
X0071188Y0283325D01*
X0063309Y0281554D02*
X0058191Y0281554D01*
X0058191Y0288246D01*
X0063309Y0288246D01*
X0063309Y0281554D01*
X0063113Y0283325D02*
X0058388Y0283325D01*
X0058388Y0283719D01*
X0063113Y0283719D01*
X0063309Y0273846D02*
X0058191Y0273846D01*
X0058191Y0267154D01*
X0063309Y0267154D01*
X0063309Y0273846D01*
X0064591Y0273846D02*
X0069709Y0273846D01*
X0069709Y0267154D01*
X0064591Y0267154D01*
X0064591Y0273846D01*
X0070991Y0273846D02*
X0076109Y0273846D01*
X0076109Y0267154D01*
X0070991Y0267154D01*
X0070991Y0273846D01*
X0071188Y0269319D02*
X0075913Y0269319D01*
X0075913Y0268925D02*
X0071188Y0268925D01*
X0071188Y0269319D01*
X0069513Y0269319D02*
X0064788Y0269319D01*
X0064788Y0268925D01*
X0069513Y0268925D01*
X0063113Y0268925D02*
X0058388Y0268925D01*
X0058388Y0269319D01*
X0063113Y0269319D01*
X0085491Y0281554D02*
X0085491Y0288246D01*
X0090609Y0288246D01*
X0090609Y0281554D01*
X0085491Y0281554D01*
X0085688Y0283325D02*
X0085688Y0283719D01*
X0090413Y0283719D01*
X0090413Y0283325D02*
X0085688Y0283325D01*
X0085491Y0300154D02*
X0085491Y0306846D01*
X0090609Y0306846D01*
X0090609Y0300154D01*
X0085491Y0300154D01*
X0085688Y0301925D02*
X0085688Y0302319D01*
X0090413Y0302319D01*
X0090413Y0301925D02*
X0085688Y0301925D01*
X0092088Y0301925D02*
X0092088Y0302319D01*
X0096813Y0302319D01*
X0096813Y0301925D02*
X0092088Y0301925D01*
X0091891Y0300154D02*
X0091891Y0306846D01*
X0097009Y0306846D01*
X0097009Y0300154D01*
X0091891Y0300154D01*
X0098291Y0300154D02*
X0098291Y0306846D01*
X0103409Y0306846D01*
X0103409Y0300154D01*
X0098291Y0300154D01*
X0098488Y0301925D02*
X0098488Y0302319D01*
X0103213Y0302319D01*
X0103213Y0301925D02*
X0098488Y0301925D01*
X0098291Y0314554D02*
X0098291Y0321246D01*
X0103409Y0321246D01*
X0103409Y0314554D01*
X0098291Y0314554D01*
X0097009Y0314554D02*
X0091891Y0314554D01*
X0091891Y0321246D01*
X0097009Y0321246D01*
X0097009Y0314554D01*
X0096813Y0316325D02*
X0092088Y0316325D01*
X0092088Y0316719D01*
X0096813Y0316719D01*
X0098488Y0316719D02*
X0103213Y0316719D01*
X0103213Y0316325D02*
X0098488Y0316325D01*
X0098488Y0316719D01*
X0090413Y0316719D02*
X0085688Y0316719D01*
X0085688Y0316325D01*
X0090413Y0316325D01*
X0090609Y0314554D02*
X0085491Y0314554D01*
X0085491Y0321246D01*
X0090609Y0321246D01*
X0090609Y0314554D01*
X0090609Y0328954D02*
X0085491Y0328954D01*
X0085491Y0335646D01*
X0090609Y0335646D01*
X0090609Y0328954D01*
X0091891Y0328954D02*
X0091891Y0335646D01*
X0097009Y0335646D01*
X0097009Y0328954D01*
X0091891Y0328954D01*
X0092088Y0330725D02*
X0092088Y0331119D01*
X0096813Y0331119D01*
X0096813Y0330725D02*
X0092088Y0330725D01*
X0090413Y0330725D02*
X0085688Y0330725D01*
X0085688Y0331119D01*
X0090413Y0331119D01*
X0098488Y0331119D02*
X0103213Y0331119D01*
X0103213Y0330725D02*
X0098488Y0330725D01*
X0098488Y0331119D01*
X0098291Y0328954D02*
X0098291Y0335646D01*
X0103409Y0335646D01*
X0103409Y0328954D01*
X0098291Y0328954D01*
X0098291Y0343354D02*
X0098291Y0350046D01*
X0103409Y0350046D01*
X0103409Y0343354D01*
X0098291Y0343354D01*
X0097009Y0343354D02*
X0091891Y0343354D01*
X0091891Y0350046D01*
X0097009Y0350046D01*
X0097009Y0343354D01*
X0096813Y0345125D02*
X0092088Y0345125D01*
X0092088Y0345519D01*
X0096813Y0345519D01*
X0098488Y0345519D02*
X0103213Y0345519D01*
X0103213Y0345125D02*
X0098488Y0345125D01*
X0098488Y0345519D01*
X0090413Y0345519D02*
X0085688Y0345519D01*
X0085688Y0345125D01*
X0090413Y0345125D01*
X0090609Y0343354D02*
X0085491Y0343354D01*
X0085491Y0350046D01*
X0090609Y0350046D01*
X0090609Y0343354D01*
X0090609Y0357754D02*
X0085491Y0357754D01*
X0085491Y0364446D01*
X0090609Y0364446D01*
X0090609Y0357754D01*
X0091891Y0357754D02*
X0091891Y0364446D01*
X0097009Y0364446D01*
X0097009Y0357754D01*
X0091891Y0357754D01*
X0092088Y0359525D02*
X0092088Y0359919D01*
X0096813Y0359919D01*
X0096813Y0359525D02*
X0092088Y0359525D01*
X0090413Y0359525D02*
X0085688Y0359525D01*
X0085688Y0359919D01*
X0090413Y0359919D01*
X0098488Y0359919D02*
X0103213Y0359919D01*
X0103213Y0359525D02*
X0098488Y0359525D01*
X0098488Y0359919D01*
X0098291Y0357754D02*
X0098291Y0364446D01*
X0103409Y0364446D01*
X0103409Y0357754D01*
X0098291Y0357754D01*
X0112791Y0357754D02*
X0112791Y0364446D01*
X0117909Y0364446D01*
X0117909Y0357754D01*
X0112791Y0357754D01*
X0112988Y0359525D02*
X0112988Y0359919D01*
X0117713Y0359919D01*
X0117713Y0359525D02*
X0112988Y0359525D01*
X0119388Y0359525D02*
X0119388Y0359919D01*
X0124113Y0359919D01*
X0124113Y0359525D02*
X0119388Y0359525D01*
X0119191Y0357754D02*
X0119191Y0364446D01*
X0124309Y0364446D01*
X0124309Y0357754D01*
X0119191Y0357754D01*
X0125591Y0357754D02*
X0125591Y0364446D01*
X0130709Y0364446D01*
X0130709Y0357754D01*
X0125591Y0357754D01*
X0125788Y0359525D02*
X0125788Y0359919D01*
X0130513Y0359919D01*
X0130513Y0359525D02*
X0125788Y0359525D01*
X0125591Y0350046D02*
X0130709Y0350046D01*
X0130709Y0343354D01*
X0125591Y0343354D01*
X0125591Y0350046D01*
X0124309Y0350046D02*
X0119191Y0350046D01*
X0119191Y0343354D01*
X0124309Y0343354D01*
X0124309Y0350046D01*
X0124113Y0345519D02*
X0119388Y0345519D01*
X0119388Y0345125D01*
X0124113Y0345125D01*
X0125788Y0345125D02*
X0125788Y0345519D01*
X0130513Y0345519D01*
X0130513Y0345125D02*
X0125788Y0345125D01*
X0117909Y0343354D02*
X0112791Y0343354D01*
X0112791Y0350046D01*
X0117909Y0350046D01*
X0117909Y0343354D01*
X0117713Y0345125D02*
X0112988Y0345125D01*
X0112988Y0345519D01*
X0117713Y0345519D01*
X0117909Y0335646D02*
X0112791Y0335646D01*
X0112791Y0328954D01*
X0117909Y0328954D01*
X0117909Y0335646D01*
X0119191Y0335646D02*
X0124309Y0335646D01*
X0124309Y0328954D01*
X0119191Y0328954D01*
X0119191Y0335646D01*
X0119388Y0331119D02*
X0124113Y0331119D01*
X0124113Y0330725D02*
X0119388Y0330725D01*
X0119388Y0331119D01*
X0117713Y0331119D02*
X0112988Y0331119D01*
X0112988Y0330725D01*
X0117713Y0330725D01*
X0125591Y0328954D02*
X0125591Y0335646D01*
X0130709Y0335646D01*
X0130709Y0328954D01*
X0125591Y0328954D01*
X0125788Y0330725D02*
X0125788Y0331119D01*
X0130513Y0331119D01*
X0130513Y0330725D02*
X0125788Y0330725D01*
X0125591Y0321246D02*
X0130709Y0321246D01*
X0130709Y0314554D01*
X0125591Y0314554D01*
X0125591Y0321246D01*
X0124309Y0321246D02*
X0119191Y0321246D01*
X0119191Y0314554D01*
X0124309Y0314554D01*
X0124309Y0321246D01*
X0124113Y0316719D02*
X0119388Y0316719D01*
X0119388Y0316325D01*
X0124113Y0316325D01*
X0125788Y0316325D02*
X0125788Y0316719D01*
X0130513Y0316719D01*
X0130513Y0316325D02*
X0125788Y0316325D01*
X0117909Y0314554D02*
X0112791Y0314554D01*
X0112791Y0321246D01*
X0117909Y0321246D01*
X0117909Y0314554D01*
X0117713Y0316325D02*
X0112988Y0316325D01*
X0112988Y0316719D01*
X0117713Y0316719D01*
X0117909Y0306846D02*
X0112791Y0306846D01*
X0112791Y0300154D01*
X0117909Y0300154D01*
X0117909Y0306846D01*
X0119191Y0306846D02*
X0124309Y0306846D01*
X0124309Y0300154D01*
X0119191Y0300154D01*
X0119191Y0306846D01*
X0119388Y0302319D02*
X0124113Y0302319D01*
X0124113Y0301925D02*
X0119388Y0301925D01*
X0119388Y0302319D01*
X0117713Y0302319D02*
X0112988Y0302319D01*
X0112988Y0301925D01*
X0117713Y0301925D01*
X0125591Y0300154D02*
X0125591Y0306846D01*
X0130709Y0306846D01*
X0130709Y0300154D01*
X0125591Y0300154D01*
X0125788Y0301925D02*
X0125788Y0302319D01*
X0130513Y0302319D01*
X0130513Y0301925D02*
X0125788Y0301925D01*
X0141341Y0300154D02*
X0141341Y0306846D01*
X0146459Y0306846D01*
X0146459Y0300154D01*
X0141341Y0300154D01*
X0141538Y0301925D02*
X0141538Y0302319D01*
X0146263Y0302319D01*
X0146263Y0301925D02*
X0141538Y0301925D01*
X0147938Y0301925D02*
X0147938Y0302319D01*
X0152663Y0302319D01*
X0152663Y0301925D02*
X0147938Y0301925D01*
X0147741Y0300154D02*
X0147741Y0306846D01*
X0152859Y0306846D01*
X0152859Y0300154D01*
X0147741Y0300154D01*
X0154141Y0300154D02*
X0154141Y0306846D01*
X0159259Y0306846D01*
X0159259Y0300154D01*
X0154141Y0300154D01*
X0154338Y0301925D02*
X0154338Y0302319D01*
X0159063Y0302319D01*
X0159063Y0301925D02*
X0154338Y0301925D01*
X0154141Y0314554D02*
X0154141Y0321246D01*
X0159259Y0321246D01*
X0159259Y0314554D01*
X0154141Y0314554D01*
X0152859Y0314554D02*
X0147741Y0314554D01*
X0147741Y0321246D01*
X0152859Y0321246D01*
X0152859Y0314554D01*
X0152663Y0316325D02*
X0147938Y0316325D01*
X0147938Y0316719D01*
X0152663Y0316719D01*
X0154338Y0316719D02*
X0159063Y0316719D01*
X0159063Y0316325D02*
X0154338Y0316325D01*
X0154338Y0316719D01*
X0146263Y0316719D02*
X0141538Y0316719D01*
X0141538Y0316325D01*
X0146263Y0316325D01*
X0146459Y0314554D02*
X0141341Y0314554D01*
X0141341Y0321246D01*
X0146459Y0321246D01*
X0146459Y0314554D01*
X0146459Y0328954D02*
X0141341Y0328954D01*
X0141341Y0335646D01*
X0146459Y0335646D01*
X0146459Y0328954D01*
X0147741Y0328954D02*
X0147741Y0335646D01*
X0152859Y0335646D01*
X0152859Y0328954D01*
X0147741Y0328954D01*
X0147938Y0330725D02*
X0147938Y0331119D01*
X0152663Y0331119D01*
X0152663Y0330725D02*
X0147938Y0330725D01*
X0146263Y0330725D02*
X0141538Y0330725D01*
X0141538Y0331119D01*
X0146263Y0331119D01*
X0154338Y0331119D02*
X0159063Y0331119D01*
X0159063Y0330725D02*
X0154338Y0330725D01*
X0154338Y0331119D01*
X0154141Y0328954D02*
X0154141Y0335646D01*
X0159259Y0335646D01*
X0159259Y0328954D01*
X0154141Y0328954D01*
X0154141Y0343354D02*
X0154141Y0350046D01*
X0159259Y0350046D01*
X0159259Y0343354D01*
X0154141Y0343354D01*
X0152859Y0343354D02*
X0147741Y0343354D01*
X0147741Y0350046D01*
X0152859Y0350046D01*
X0152859Y0343354D01*
X0152663Y0345125D02*
X0147938Y0345125D01*
X0147938Y0345519D01*
X0152663Y0345519D01*
X0154338Y0345519D02*
X0159063Y0345519D01*
X0159063Y0345125D02*
X0154338Y0345125D01*
X0154338Y0345519D01*
X0146263Y0345519D02*
X0141538Y0345519D01*
X0141538Y0345125D01*
X0146263Y0345125D01*
X0146459Y0343354D02*
X0141341Y0343354D01*
X0141341Y0350046D01*
X0146459Y0350046D01*
X0146459Y0343354D01*
X0146459Y0357754D02*
X0141341Y0357754D01*
X0141341Y0364446D01*
X0146459Y0364446D01*
X0146459Y0357754D01*
X0147741Y0357754D02*
X0147741Y0364446D01*
X0152859Y0364446D01*
X0152859Y0357754D01*
X0147741Y0357754D01*
X0147938Y0359525D02*
X0147938Y0359919D01*
X0152663Y0359919D01*
X0152663Y0359525D02*
X0147938Y0359525D01*
X0146263Y0359525D02*
X0141538Y0359525D01*
X0141538Y0359919D01*
X0146263Y0359919D01*
X0154338Y0359919D02*
X0159063Y0359919D01*
X0159063Y0359525D02*
X0154338Y0359525D01*
X0154338Y0359919D01*
X0154141Y0357754D02*
X0154141Y0364446D01*
X0159259Y0364446D01*
X0159259Y0357754D01*
X0154141Y0357754D01*
X0168641Y0357754D02*
X0168641Y0364446D01*
X0173759Y0364446D01*
X0173759Y0357754D01*
X0168641Y0357754D01*
X0168838Y0359525D02*
X0168838Y0359919D01*
X0173563Y0359919D01*
X0173563Y0359525D02*
X0168838Y0359525D01*
X0175238Y0359525D02*
X0175238Y0359919D01*
X0179963Y0359919D01*
X0179963Y0359525D02*
X0175238Y0359525D01*
X0175041Y0357754D02*
X0175041Y0364446D01*
X0180159Y0364446D01*
X0180159Y0357754D01*
X0175041Y0357754D01*
X0181441Y0357754D02*
X0181441Y0364446D01*
X0186559Y0364446D01*
X0186559Y0357754D01*
X0181441Y0357754D01*
X0181638Y0359525D02*
X0181638Y0359919D01*
X0186363Y0359919D01*
X0186363Y0359525D02*
X0181638Y0359525D01*
X0181441Y0350046D02*
X0186559Y0350046D01*
X0186559Y0343354D01*
X0181441Y0343354D01*
X0181441Y0350046D01*
X0180159Y0350046D02*
X0175041Y0350046D01*
X0175041Y0343354D01*
X0180159Y0343354D01*
X0180159Y0350046D01*
X0179963Y0345519D02*
X0175238Y0345519D01*
X0175238Y0345125D01*
X0179963Y0345125D01*
X0181638Y0345125D02*
X0181638Y0345519D01*
X0186363Y0345519D01*
X0186363Y0345125D02*
X0181638Y0345125D01*
X0173759Y0343354D02*
X0168641Y0343354D01*
X0168641Y0350046D01*
X0173759Y0350046D01*
X0173759Y0343354D01*
X0173563Y0345125D02*
X0168838Y0345125D01*
X0168838Y0345519D01*
X0173563Y0345519D01*
X0173759Y0335646D02*
X0168641Y0335646D01*
X0168641Y0328954D01*
X0173759Y0328954D01*
X0173759Y0335646D01*
X0175041Y0335646D02*
X0180159Y0335646D01*
X0180159Y0328954D01*
X0175041Y0328954D01*
X0175041Y0335646D01*
X0175238Y0331119D02*
X0179963Y0331119D01*
X0179963Y0330725D02*
X0175238Y0330725D01*
X0175238Y0331119D01*
X0173563Y0331119D02*
X0168838Y0331119D01*
X0168838Y0330725D01*
X0173563Y0330725D01*
X0181441Y0328954D02*
X0181441Y0335646D01*
X0186559Y0335646D01*
X0186559Y0328954D01*
X0181441Y0328954D01*
X0181638Y0330725D02*
X0181638Y0331119D01*
X0186363Y0331119D01*
X0186363Y0330725D02*
X0181638Y0330725D01*
X0181441Y0321246D02*
X0186559Y0321246D01*
X0186559Y0314554D01*
X0181441Y0314554D01*
X0181441Y0321246D01*
X0180159Y0321246D02*
X0175041Y0321246D01*
X0175041Y0314554D01*
X0180159Y0314554D01*
X0180159Y0321246D01*
X0179963Y0316719D02*
X0175238Y0316719D01*
X0175238Y0316325D01*
X0179963Y0316325D01*
X0181638Y0316325D02*
X0181638Y0316719D01*
X0186363Y0316719D01*
X0186363Y0316325D02*
X0181638Y0316325D01*
X0173759Y0314554D02*
X0168641Y0314554D01*
X0168641Y0321246D01*
X0173759Y0321246D01*
X0173759Y0314554D01*
X0173563Y0316325D02*
X0168838Y0316325D01*
X0168838Y0316719D01*
X0173563Y0316719D01*
X0173759Y0306846D02*
X0168641Y0306846D01*
X0168641Y0300154D01*
X0173759Y0300154D01*
X0173759Y0306846D01*
X0175041Y0306846D02*
X0180159Y0306846D01*
X0180159Y0300154D01*
X0175041Y0300154D01*
X0175041Y0306846D01*
X0175238Y0302319D02*
X0179963Y0302319D01*
X0179963Y0301925D02*
X0175238Y0301925D01*
X0175238Y0302319D01*
X0173563Y0302319D02*
X0168838Y0302319D01*
X0168838Y0301925D01*
X0173563Y0301925D01*
X0181441Y0300154D02*
X0181441Y0306846D01*
X0186559Y0306846D01*
X0186559Y0300154D01*
X0181441Y0300154D01*
X0181638Y0301925D02*
X0181638Y0302319D01*
X0186363Y0302319D01*
X0186363Y0301925D02*
X0181638Y0301925D01*
X0195941Y0300154D02*
X0195941Y0306846D01*
X0201059Y0306846D01*
X0201059Y0300154D01*
X0195941Y0300154D01*
X0196138Y0301925D02*
X0196138Y0302319D01*
X0200863Y0302319D01*
X0200863Y0301925D02*
X0196138Y0301925D01*
X0202538Y0301925D02*
X0202538Y0302319D01*
X0207263Y0302319D01*
X0207263Y0301925D02*
X0202538Y0301925D01*
X0202341Y0300154D02*
X0202341Y0306846D01*
X0207459Y0306846D01*
X0207459Y0300154D01*
X0202341Y0300154D01*
X0208741Y0300154D02*
X0208741Y0306846D01*
X0213859Y0306846D01*
X0213859Y0300154D01*
X0208741Y0300154D01*
X0208938Y0301925D02*
X0208938Y0302319D01*
X0213663Y0302319D01*
X0213663Y0301925D02*
X0208938Y0301925D01*
X0208741Y0314554D02*
X0208741Y0321246D01*
X0213859Y0321246D01*
X0213859Y0314554D01*
X0208741Y0314554D01*
X0207459Y0314554D02*
X0202341Y0314554D01*
X0202341Y0321246D01*
X0207459Y0321246D01*
X0207459Y0314554D01*
X0207263Y0316325D02*
X0202538Y0316325D01*
X0202538Y0316719D01*
X0207263Y0316719D01*
X0208938Y0316719D02*
X0213663Y0316719D01*
X0213663Y0316325D02*
X0208938Y0316325D01*
X0208938Y0316719D01*
X0200863Y0316719D02*
X0196138Y0316719D01*
X0196138Y0316325D01*
X0200863Y0316325D01*
X0201059Y0314554D02*
X0195941Y0314554D01*
X0195941Y0321246D01*
X0201059Y0321246D01*
X0201059Y0314554D01*
X0201059Y0328954D02*
X0195941Y0328954D01*
X0195941Y0335646D01*
X0201059Y0335646D01*
X0201059Y0328954D01*
X0202341Y0328954D02*
X0202341Y0335646D01*
X0207459Y0335646D01*
X0207459Y0328954D01*
X0202341Y0328954D01*
X0202538Y0330725D02*
X0202538Y0331119D01*
X0207263Y0331119D01*
X0207263Y0330725D02*
X0202538Y0330725D01*
X0200863Y0330725D02*
X0196138Y0330725D01*
X0196138Y0331119D01*
X0200863Y0331119D01*
X0208938Y0331119D02*
X0213663Y0331119D01*
X0213663Y0330725D02*
X0208938Y0330725D01*
X0208938Y0331119D01*
X0208741Y0328954D02*
X0208741Y0335646D01*
X0213859Y0335646D01*
X0213859Y0328954D01*
X0208741Y0328954D01*
X0208741Y0343354D02*
X0208741Y0350046D01*
X0213859Y0350046D01*
X0213859Y0343354D01*
X0208741Y0343354D01*
X0207459Y0343354D02*
X0202341Y0343354D01*
X0202341Y0350046D01*
X0207459Y0350046D01*
X0207459Y0343354D01*
X0207263Y0345125D02*
X0202538Y0345125D01*
X0202538Y0345519D01*
X0207263Y0345519D01*
X0208938Y0345519D02*
X0213663Y0345519D01*
X0213663Y0345125D02*
X0208938Y0345125D01*
X0208938Y0345519D01*
X0200863Y0345519D02*
X0196138Y0345519D01*
X0196138Y0345125D01*
X0200863Y0345125D01*
X0201059Y0343354D02*
X0195941Y0343354D01*
X0195941Y0350046D01*
X0201059Y0350046D01*
X0201059Y0343354D01*
X0201059Y0357754D02*
X0195941Y0357754D01*
X0195941Y0364446D01*
X0201059Y0364446D01*
X0201059Y0357754D01*
X0202341Y0357754D02*
X0202341Y0364446D01*
X0207459Y0364446D01*
X0207459Y0357754D01*
X0202341Y0357754D01*
X0202538Y0359525D02*
X0202538Y0359919D01*
X0207263Y0359919D01*
X0207263Y0359525D02*
X0202538Y0359525D01*
X0200863Y0359525D02*
X0196138Y0359525D01*
X0196138Y0359919D01*
X0200863Y0359919D01*
X0208938Y0359919D02*
X0213663Y0359919D01*
X0213663Y0359525D02*
X0208938Y0359525D01*
X0208938Y0359919D01*
X0208741Y0357754D02*
X0208741Y0364446D01*
X0213859Y0364446D01*
X0213859Y0357754D01*
X0208741Y0357754D01*
X0223241Y0357754D02*
X0223241Y0364446D01*
X0228359Y0364446D01*
X0228359Y0357754D01*
X0223241Y0357754D01*
X0223438Y0359525D02*
X0223438Y0359919D01*
X0228163Y0359919D01*
X0228163Y0359525D02*
X0223438Y0359525D01*
X0229838Y0359525D02*
X0229838Y0359919D01*
X0234563Y0359919D01*
X0234563Y0359525D02*
X0229838Y0359525D01*
X0229641Y0357754D02*
X0229641Y0364446D01*
X0234759Y0364446D01*
X0234759Y0357754D01*
X0229641Y0357754D01*
X0236041Y0357754D02*
X0236041Y0364446D01*
X0241159Y0364446D01*
X0241159Y0357754D01*
X0236041Y0357754D01*
X0236238Y0359525D02*
X0236238Y0359919D01*
X0240963Y0359919D01*
X0240963Y0359525D02*
X0236238Y0359525D01*
X0236041Y0350046D02*
X0241159Y0350046D01*
X0241159Y0343354D01*
X0236041Y0343354D01*
X0236041Y0350046D01*
X0234759Y0350046D02*
X0229641Y0350046D01*
X0229641Y0343354D01*
X0234759Y0343354D01*
X0234759Y0350046D01*
X0234563Y0345519D02*
X0229838Y0345519D01*
X0229838Y0345125D01*
X0234563Y0345125D01*
X0236238Y0345125D02*
X0236238Y0345519D01*
X0240963Y0345519D01*
X0240963Y0345125D02*
X0236238Y0345125D01*
X0228359Y0343354D02*
X0223241Y0343354D01*
X0223241Y0350046D01*
X0228359Y0350046D01*
X0228359Y0343354D01*
X0228163Y0345125D02*
X0223438Y0345125D01*
X0223438Y0345519D01*
X0228163Y0345519D01*
X0228359Y0335646D02*
X0223241Y0335646D01*
X0223241Y0328954D01*
X0228359Y0328954D01*
X0228359Y0335646D01*
X0229641Y0335646D02*
X0234759Y0335646D01*
X0234759Y0328954D01*
X0229641Y0328954D01*
X0229641Y0335646D01*
X0229838Y0331119D02*
X0234563Y0331119D01*
X0234563Y0330725D02*
X0229838Y0330725D01*
X0229838Y0331119D01*
X0228163Y0331119D02*
X0223438Y0331119D01*
X0223438Y0330725D01*
X0228163Y0330725D01*
X0236041Y0328954D02*
X0236041Y0335646D01*
X0241159Y0335646D01*
X0241159Y0328954D01*
X0236041Y0328954D01*
X0236238Y0330725D02*
X0236238Y0331119D01*
X0240963Y0331119D01*
X0240963Y0330725D02*
X0236238Y0330725D01*
X0236041Y0321246D02*
X0241159Y0321246D01*
X0241159Y0314554D01*
X0236041Y0314554D01*
X0236041Y0321246D01*
X0234759Y0321246D02*
X0234759Y0314554D01*
X0229641Y0314554D01*
X0229641Y0321246D01*
X0234759Y0321246D01*
X0234563Y0316719D02*
X0229838Y0316719D01*
X0229838Y0316325D01*
X0234563Y0316325D01*
X0236238Y0316325D02*
X0236238Y0316719D01*
X0240963Y0316719D01*
X0240963Y0316325D02*
X0236238Y0316325D01*
X0228359Y0314554D02*
X0223241Y0314554D01*
X0223241Y0321246D01*
X0228359Y0321246D01*
X0228359Y0314554D01*
X0228163Y0316325D02*
X0223438Y0316325D01*
X0223438Y0316719D01*
X0228163Y0316719D01*
X0228359Y0306846D02*
X0223241Y0306846D01*
X0223241Y0300154D01*
X0228359Y0300154D01*
X0228359Y0306846D01*
X0229641Y0306846D02*
X0234759Y0306846D01*
X0234759Y0300154D01*
X0229641Y0300154D01*
X0229641Y0306846D01*
X0229838Y0302319D02*
X0234563Y0302319D01*
X0234563Y0301925D02*
X0229838Y0301925D01*
X0229838Y0302319D01*
X0228163Y0302319D02*
X0223438Y0302319D01*
X0223438Y0301925D01*
X0228163Y0301925D01*
X0236041Y0300154D02*
X0236041Y0306846D01*
X0241159Y0306846D01*
X0241159Y0300154D01*
X0236041Y0300154D01*
X0236238Y0301925D02*
X0236238Y0302319D01*
X0240963Y0302319D01*
X0240963Y0301925D02*
X0236238Y0301925D01*
X0201059Y0288246D02*
X0201059Y0281554D01*
X0195941Y0281554D01*
X0195941Y0288246D01*
X0201059Y0288246D01*
X0200863Y0283719D02*
X0196138Y0283719D01*
X0196138Y0283325D01*
X0200863Y0283325D01*
X0146459Y0281554D02*
X0141341Y0281554D01*
X0141341Y0288246D01*
X0146459Y0288246D01*
X0146459Y0281554D01*
X0146263Y0283325D02*
X0141538Y0283325D01*
X0141538Y0283719D01*
X0146263Y0283719D01*
X0009350Y0376750D02*
X0005847Y0376750D01*
X0005847Y0378501D01*
X0006431Y0379085D01*
X0007599Y0379085D01*
X0008183Y0378501D01*
X0008183Y0376750D01*
X0008183Y0377918D02*
X0009350Y0379085D01*
X0008767Y0380433D02*
X0007599Y0380433D01*
X0007015Y0381017D01*
X0007015Y0382185D01*
X0007599Y0382768D01*
X0008183Y0382768D01*
X0008183Y0380433D01*
X0008767Y0380433D02*
X0009350Y0381017D01*
X0009350Y0382185D01*
X0007015Y0384116D02*
X0009350Y0385284D01*
X0007015Y0386452D01*
X0007015Y0387799D02*
X0005847Y0388967D01*
X0009350Y0388967D01*
X0009350Y0387799D02*
X0009350Y0390135D01*
D16*
X0365694Y0146321D02*
X0372800Y0146321D01*
X0372800Y0149874D01*
X0371616Y0151059D01*
X0369247Y0151059D01*
X0368063Y0149874D01*
X0368063Y0146321D01*
X0369247Y0143508D02*
X0372800Y0143508D01*
X0372800Y0139955D01*
X0371616Y0138771D01*
X0370432Y0139955D01*
X0370432Y0143508D01*
X0369247Y0143508D02*
X0368063Y0142324D01*
X0368063Y0139955D01*
X0372800Y0135958D02*
X0372800Y0131220D01*
X0365694Y0131220D01*
X0369247Y0128407D02*
X0372800Y0128407D01*
X0372800Y0126039D02*
X0369247Y0126039D01*
X0368063Y0127223D01*
X0369247Y0128407D01*
X0369247Y0126039D02*
X0368063Y0124854D01*
X0368063Y0123670D01*
X0372800Y0123670D01*
X0371616Y0120857D02*
X0369247Y0120857D01*
X0368063Y0119672D01*
X0368063Y0117304D01*
X0369247Y0116119D01*
X0371616Y0116119D01*
X0372800Y0117304D01*
X0372800Y0119672D01*
X0371616Y0120857D01*
X0371616Y0113306D02*
X0369247Y0113306D01*
X0368063Y0112122D01*
X0368063Y0109753D01*
X0369247Y0108569D01*
X0371616Y0108569D01*
X0372800Y0109753D01*
X0372800Y0112122D01*
X0371616Y0113306D01*
X0372800Y0105756D02*
X0370432Y0103387D01*
X0370432Y0104572D02*
X0370432Y0101019D01*
X0372800Y0101019D02*
X0365694Y0101019D01*
X0365694Y0104572D01*
X0366879Y0105756D01*
X0369247Y0105756D01*
X0370432Y0104572D01*
X0372800Y0098354D02*
X0372800Y0095985D01*
X0372800Y0097169D02*
X0365694Y0097169D01*
X0365694Y0095985D01*
X0365694Y0092136D02*
X0372800Y0092136D01*
X0372800Y0093320D02*
X0372800Y0090951D01*
X0372800Y0088138D02*
X0372800Y0084585D01*
X0371616Y0083401D01*
X0370432Y0084585D01*
X0370432Y0088138D01*
X0369247Y0088138D02*
X0372800Y0088138D01*
X0369247Y0088138D02*
X0368063Y0086954D01*
X0368063Y0084585D01*
X0369247Y0080588D02*
X0372800Y0080588D01*
X0372800Y0078219D02*
X0369247Y0078219D01*
X0368063Y0079403D01*
X0369247Y0080588D01*
X0369247Y0078219D02*
X0368063Y0077035D01*
X0368063Y0075850D01*
X0372800Y0075850D01*
X0371616Y0073037D02*
X0370432Y0073037D01*
X0369247Y0071853D01*
X0369247Y0069484D01*
X0368063Y0068300D01*
X0366879Y0068300D01*
X0365694Y0069484D01*
X0365694Y0071853D01*
X0366879Y0073037D01*
X0371616Y0073037D02*
X0372800Y0071853D01*
X0372800Y0069484D01*
X0371616Y0068300D01*
X0365694Y0090951D02*
X0365694Y0092136D01*
X0369247Y0153872D02*
X0368063Y0155056D01*
X0368063Y0158609D01*
X0370432Y0157425D02*
X0370432Y0155056D01*
X0369247Y0153872D01*
X0372800Y0153872D02*
X0372800Y0157425D01*
X0371616Y0158609D01*
X0370432Y0157425D01*
D17*
X0371475Y0373375D03*
D18*
X0349598Y0137665D02*
X0349598Y0134596D01*
X0348064Y0136131D02*
X0351133Y0136131D01*
X0351900Y0131527D02*
X0347296Y0131527D01*
X0347296Y0133061D02*
X0347296Y0129992D01*
X0347296Y0128457D02*
X0351133Y0128457D01*
X0351900Y0127690D01*
X0351900Y0126155D01*
X0351133Y0125388D01*
X0347296Y0125388D01*
X0348064Y0123854D02*
X0347296Y0123086D01*
X0347296Y0121552D01*
X0348064Y0120784D01*
X0351133Y0120784D01*
X0351900Y0121552D01*
X0351900Y0123086D01*
X0351133Y0123854D01*
X0348064Y0123854D01*
X0349598Y0089942D02*
X0349598Y0086873D01*
X0348064Y0088408D02*
X0351133Y0088408D01*
X0351900Y0085339D02*
X0347296Y0085339D01*
X0347296Y0082269D02*
X0351900Y0085339D01*
X0351900Y0082269D02*
X0347296Y0082269D01*
X0347296Y0080735D02*
X0347296Y0079200D01*
X0347296Y0079967D02*
X0351900Y0079967D01*
X0351900Y0079200D02*
X0351900Y0080735D01*
X0301900Y0079967D02*
X0301133Y0079200D01*
X0298064Y0079200D01*
X0297296Y0079967D01*
X0297296Y0081502D01*
X0298064Y0082269D01*
X0299598Y0082269D02*
X0299598Y0080735D01*
X0299598Y0082269D02*
X0301133Y0082269D01*
X0301900Y0081502D01*
X0301900Y0079967D01*
X0301900Y0083804D02*
X0297296Y0083804D01*
X0301900Y0086873D01*
X0297296Y0086873D01*
X0297296Y0088408D02*
X0297296Y0090710D01*
X0298064Y0091477D01*
X0301133Y0091477D01*
X0301900Y0090710D01*
X0301900Y0088408D01*
X0297296Y0088408D01*
X0298064Y0125388D02*
X0301133Y0125388D01*
X0301900Y0126156D01*
X0301900Y0127690D01*
X0301133Y0128457D01*
X0299598Y0128457D01*
X0299598Y0126923D01*
X0298064Y0128457D02*
X0297296Y0127690D01*
X0297296Y0126156D01*
X0298064Y0125388D01*
X0297296Y0129992D02*
X0301900Y0133061D01*
X0297296Y0133061D01*
X0297296Y0134596D02*
X0297296Y0136898D01*
X0298064Y0137665D01*
X0301133Y0137665D01*
X0301900Y0136898D01*
X0301900Y0134596D01*
X0297296Y0134596D01*
X0297296Y0129992D02*
X0301900Y0129992D01*
D19*
X0317100Y0121500D03*
D20*
X0324600Y0091500D03*
D21*
X0307100Y0089000D03*
D22*
X0289800Y0084513D02*
X0289800Y0073487D01*
X0289856Y0073487D02*
X0289735Y0073414D01*
X0289612Y0073344D01*
X0289487Y0073278D01*
X0289360Y0073215D01*
X0289231Y0073155D01*
X0289101Y0073099D01*
X0288970Y0073047D01*
X0288837Y0072998D01*
X0288703Y0072952D01*
X0288567Y0072911D01*
X0288431Y0072873D01*
X0288293Y0072838D01*
X0288155Y0072808D01*
X0288016Y0072781D01*
X0287876Y0072758D01*
X0287736Y0072739D01*
X0287595Y0072724D01*
X0287454Y0072712D01*
X0287312Y0072704D01*
X0287171Y0072700D01*
X0287029Y0072700D01*
X0286888Y0072704D01*
X0286746Y0072712D01*
X0286605Y0072724D01*
X0286464Y0072739D01*
X0286324Y0072758D01*
X0286184Y0072781D01*
X0286045Y0072808D01*
X0285907Y0072838D01*
X0285769Y0072873D01*
X0285633Y0072911D01*
X0285497Y0072952D01*
X0285363Y0072998D01*
X0285230Y0073047D01*
X0285099Y0073099D01*
X0284969Y0073155D01*
X0284840Y0073215D01*
X0284713Y0073278D01*
X0284588Y0073344D01*
X0284465Y0073414D01*
X0284344Y0073487D01*
X0284400Y0073487D02*
X0284400Y0084513D01*
X0284344Y0084513D02*
X0284465Y0084586D01*
X0284588Y0084656D01*
X0284713Y0084722D01*
X0284840Y0084785D01*
X0284969Y0084845D01*
X0285099Y0084901D01*
X0285230Y0084953D01*
X0285363Y0085002D01*
X0285497Y0085048D01*
X0285633Y0085089D01*
X0285769Y0085127D01*
X0285907Y0085162D01*
X0286045Y0085192D01*
X0286184Y0085219D01*
X0286324Y0085242D01*
X0286464Y0085261D01*
X0286605Y0085276D01*
X0286746Y0085288D01*
X0286888Y0085296D01*
X0287029Y0085300D01*
X0287171Y0085300D01*
X0287312Y0085296D01*
X0287454Y0085288D01*
X0287595Y0085276D01*
X0287736Y0085261D01*
X0287876Y0085242D01*
X0288016Y0085219D01*
X0288155Y0085192D01*
X0288293Y0085162D01*
X0288431Y0085127D01*
X0288567Y0085089D01*
X0288703Y0085048D01*
X0288837Y0085002D01*
X0288970Y0084953D01*
X0289101Y0084901D01*
X0289231Y0084845D01*
X0289360Y0084785D01*
X0289487Y0084722D01*
X0289612Y0084656D01*
X0289735Y0084586D01*
X0289856Y0084513D01*
X0256050Y0084513D02*
X0256050Y0073487D01*
X0256106Y0073487D02*
X0255985Y0073414D01*
X0255862Y0073344D01*
X0255737Y0073278D01*
X0255610Y0073215D01*
X0255481Y0073155D01*
X0255351Y0073099D01*
X0255220Y0073047D01*
X0255087Y0072998D01*
X0254953Y0072952D01*
X0254817Y0072911D01*
X0254681Y0072873D01*
X0254543Y0072838D01*
X0254405Y0072808D01*
X0254266Y0072781D01*
X0254126Y0072758D01*
X0253986Y0072739D01*
X0253845Y0072724D01*
X0253704Y0072712D01*
X0253562Y0072704D01*
X0253421Y0072700D01*
X0253279Y0072700D01*
X0253138Y0072704D01*
X0252996Y0072712D01*
X0252855Y0072724D01*
X0252714Y0072739D01*
X0252574Y0072758D01*
X0252434Y0072781D01*
X0252295Y0072808D01*
X0252157Y0072838D01*
X0252019Y0072873D01*
X0251883Y0072911D01*
X0251747Y0072952D01*
X0251613Y0072998D01*
X0251480Y0073047D01*
X0251349Y0073099D01*
X0251219Y0073155D01*
X0251090Y0073215D01*
X0250963Y0073278D01*
X0250838Y0073344D01*
X0250715Y0073414D01*
X0250594Y0073487D01*
X0250650Y0073487D02*
X0250650Y0084513D01*
X0250594Y0084513D02*
X0250715Y0084586D01*
X0250838Y0084656D01*
X0250963Y0084722D01*
X0251090Y0084785D01*
X0251219Y0084845D01*
X0251349Y0084901D01*
X0251480Y0084953D01*
X0251613Y0085002D01*
X0251747Y0085048D01*
X0251883Y0085089D01*
X0252019Y0085127D01*
X0252157Y0085162D01*
X0252295Y0085192D01*
X0252434Y0085219D01*
X0252574Y0085242D01*
X0252714Y0085261D01*
X0252855Y0085276D01*
X0252996Y0085288D01*
X0253138Y0085296D01*
X0253279Y0085300D01*
X0253421Y0085300D01*
X0253562Y0085296D01*
X0253704Y0085288D01*
X0253845Y0085276D01*
X0253986Y0085261D01*
X0254126Y0085242D01*
X0254266Y0085219D01*
X0254405Y0085192D01*
X0254543Y0085162D01*
X0254681Y0085127D01*
X0254817Y0085089D01*
X0254953Y0085048D01*
X0255087Y0085002D01*
X0255220Y0084953D01*
X0255351Y0084901D01*
X0255481Y0084845D01*
X0255610Y0084785D01*
X0255737Y0084722D01*
X0255862Y0084656D01*
X0255985Y0084586D01*
X0256106Y0084513D01*
X0222300Y0084513D02*
X0222300Y0073487D01*
X0222356Y0073487D02*
X0222235Y0073414D01*
X0222112Y0073344D01*
X0221987Y0073278D01*
X0221860Y0073215D01*
X0221731Y0073155D01*
X0221601Y0073099D01*
X0221470Y0073047D01*
X0221337Y0072998D01*
X0221203Y0072952D01*
X0221067Y0072911D01*
X0220931Y0072873D01*
X0220793Y0072838D01*
X0220655Y0072808D01*
X0220516Y0072781D01*
X0220376Y0072758D01*
X0220236Y0072739D01*
X0220095Y0072724D01*
X0219954Y0072712D01*
X0219812Y0072704D01*
X0219671Y0072700D01*
X0219529Y0072700D01*
X0219388Y0072704D01*
X0219246Y0072712D01*
X0219105Y0072724D01*
X0218964Y0072739D01*
X0218824Y0072758D01*
X0218684Y0072781D01*
X0218545Y0072808D01*
X0218407Y0072838D01*
X0218269Y0072873D01*
X0218133Y0072911D01*
X0217997Y0072952D01*
X0217863Y0072998D01*
X0217730Y0073047D01*
X0217599Y0073099D01*
X0217469Y0073155D01*
X0217340Y0073215D01*
X0217213Y0073278D01*
X0217088Y0073344D01*
X0216965Y0073414D01*
X0216844Y0073487D01*
X0216900Y0073487D02*
X0216900Y0084513D01*
X0216844Y0084513D02*
X0216965Y0084586D01*
X0217088Y0084656D01*
X0217213Y0084722D01*
X0217340Y0084785D01*
X0217469Y0084845D01*
X0217599Y0084901D01*
X0217730Y0084953D01*
X0217863Y0085002D01*
X0217997Y0085048D01*
X0218133Y0085089D01*
X0218269Y0085127D01*
X0218407Y0085162D01*
X0218545Y0085192D01*
X0218684Y0085219D01*
X0218824Y0085242D01*
X0218964Y0085261D01*
X0219105Y0085276D01*
X0219246Y0085288D01*
X0219388Y0085296D01*
X0219529Y0085300D01*
X0219671Y0085300D01*
X0219812Y0085296D01*
X0219954Y0085288D01*
X0220095Y0085276D01*
X0220236Y0085261D01*
X0220376Y0085242D01*
X0220516Y0085219D01*
X0220655Y0085192D01*
X0220793Y0085162D01*
X0220931Y0085127D01*
X0221067Y0085089D01*
X0221203Y0085048D01*
X0221337Y0085002D01*
X0221470Y0084953D01*
X0221601Y0084901D01*
X0221731Y0084845D01*
X0221860Y0084785D01*
X0221987Y0084722D01*
X0222112Y0084656D01*
X0222235Y0084586D01*
X0222356Y0084513D01*
X0188550Y0084513D02*
X0188550Y0073487D01*
X0188606Y0073487D02*
X0188485Y0073414D01*
X0188362Y0073344D01*
X0188237Y0073278D01*
X0188110Y0073215D01*
X0187981Y0073155D01*
X0187851Y0073099D01*
X0187720Y0073047D01*
X0187587Y0072998D01*
X0187453Y0072952D01*
X0187317Y0072911D01*
X0187181Y0072873D01*
X0187043Y0072838D01*
X0186905Y0072808D01*
X0186766Y0072781D01*
X0186626Y0072758D01*
X0186486Y0072739D01*
X0186345Y0072724D01*
X0186204Y0072712D01*
X0186062Y0072704D01*
X0185921Y0072700D01*
X0185779Y0072700D01*
X0185638Y0072704D01*
X0185496Y0072712D01*
X0185355Y0072724D01*
X0185214Y0072739D01*
X0185074Y0072758D01*
X0184934Y0072781D01*
X0184795Y0072808D01*
X0184657Y0072838D01*
X0184519Y0072873D01*
X0184383Y0072911D01*
X0184247Y0072952D01*
X0184113Y0072998D01*
X0183980Y0073047D01*
X0183849Y0073099D01*
X0183719Y0073155D01*
X0183590Y0073215D01*
X0183463Y0073278D01*
X0183338Y0073344D01*
X0183215Y0073414D01*
X0183094Y0073487D01*
X0183150Y0073487D02*
X0183150Y0084513D01*
X0183094Y0084513D02*
X0183215Y0084586D01*
X0183338Y0084656D01*
X0183463Y0084722D01*
X0183590Y0084785D01*
X0183719Y0084845D01*
X0183849Y0084901D01*
X0183980Y0084953D01*
X0184113Y0085002D01*
X0184247Y0085048D01*
X0184383Y0085089D01*
X0184519Y0085127D01*
X0184657Y0085162D01*
X0184795Y0085192D01*
X0184934Y0085219D01*
X0185074Y0085242D01*
X0185214Y0085261D01*
X0185355Y0085276D01*
X0185496Y0085288D01*
X0185638Y0085296D01*
X0185779Y0085300D01*
X0185921Y0085300D01*
X0186062Y0085296D01*
X0186204Y0085288D01*
X0186345Y0085276D01*
X0186486Y0085261D01*
X0186626Y0085242D01*
X0186766Y0085219D01*
X0186905Y0085192D01*
X0187043Y0085162D01*
X0187181Y0085127D01*
X0187317Y0085089D01*
X0187453Y0085048D01*
X0187587Y0085002D01*
X0187720Y0084953D01*
X0187851Y0084901D01*
X0187981Y0084845D01*
X0188110Y0084785D01*
X0188237Y0084722D01*
X0188362Y0084656D01*
X0188485Y0084586D01*
X0188606Y0084513D01*
X0154800Y0084513D02*
X0154800Y0073487D01*
X0154856Y0073487D02*
X0154735Y0073414D01*
X0154612Y0073344D01*
X0154487Y0073278D01*
X0154360Y0073215D01*
X0154231Y0073155D01*
X0154101Y0073099D01*
X0153970Y0073047D01*
X0153837Y0072998D01*
X0153703Y0072952D01*
X0153567Y0072911D01*
X0153431Y0072873D01*
X0153293Y0072838D01*
X0153155Y0072808D01*
X0153016Y0072781D01*
X0152876Y0072758D01*
X0152736Y0072739D01*
X0152595Y0072724D01*
X0152454Y0072712D01*
X0152312Y0072704D01*
X0152171Y0072700D01*
X0152029Y0072700D01*
X0151888Y0072704D01*
X0151746Y0072712D01*
X0151605Y0072724D01*
X0151464Y0072739D01*
X0151324Y0072758D01*
X0151184Y0072781D01*
X0151045Y0072808D01*
X0150907Y0072838D01*
X0150769Y0072873D01*
X0150633Y0072911D01*
X0150497Y0072952D01*
X0150363Y0072998D01*
X0150230Y0073047D01*
X0150099Y0073099D01*
X0149969Y0073155D01*
X0149840Y0073215D01*
X0149713Y0073278D01*
X0149588Y0073344D01*
X0149465Y0073414D01*
X0149344Y0073487D01*
X0149400Y0073487D02*
X0149400Y0084513D01*
X0149344Y0084513D02*
X0149465Y0084586D01*
X0149588Y0084656D01*
X0149713Y0084722D01*
X0149840Y0084785D01*
X0149969Y0084845D01*
X0150099Y0084901D01*
X0150230Y0084953D01*
X0150363Y0085002D01*
X0150497Y0085048D01*
X0150633Y0085089D01*
X0150769Y0085127D01*
X0150907Y0085162D01*
X0151045Y0085192D01*
X0151184Y0085219D01*
X0151324Y0085242D01*
X0151464Y0085261D01*
X0151605Y0085276D01*
X0151746Y0085288D01*
X0151888Y0085296D01*
X0152029Y0085300D01*
X0152171Y0085300D01*
X0152312Y0085296D01*
X0152454Y0085288D01*
X0152595Y0085276D01*
X0152736Y0085261D01*
X0152876Y0085242D01*
X0153016Y0085219D01*
X0153155Y0085192D01*
X0153293Y0085162D01*
X0153431Y0085127D01*
X0153567Y0085089D01*
X0153703Y0085048D01*
X0153837Y0085002D01*
X0153970Y0084953D01*
X0154101Y0084901D01*
X0154231Y0084845D01*
X0154360Y0084785D01*
X0154487Y0084722D01*
X0154612Y0084656D01*
X0154735Y0084586D01*
X0154856Y0084513D01*
X0121050Y0084513D02*
X0121050Y0073487D01*
X0121106Y0073487D02*
X0120985Y0073414D01*
X0120862Y0073344D01*
X0120737Y0073278D01*
X0120610Y0073215D01*
X0120481Y0073155D01*
X0120351Y0073099D01*
X0120220Y0073047D01*
X0120087Y0072998D01*
X0119953Y0072952D01*
X0119817Y0072911D01*
X0119681Y0072873D01*
X0119543Y0072838D01*
X0119405Y0072808D01*
X0119266Y0072781D01*
X0119126Y0072758D01*
X0118986Y0072739D01*
X0118845Y0072724D01*
X0118704Y0072712D01*
X0118562Y0072704D01*
X0118421Y0072700D01*
X0118279Y0072700D01*
X0118138Y0072704D01*
X0117996Y0072712D01*
X0117855Y0072724D01*
X0117714Y0072739D01*
X0117574Y0072758D01*
X0117434Y0072781D01*
X0117295Y0072808D01*
X0117157Y0072838D01*
X0117019Y0072873D01*
X0116883Y0072911D01*
X0116747Y0072952D01*
X0116613Y0072998D01*
X0116480Y0073047D01*
X0116349Y0073099D01*
X0116219Y0073155D01*
X0116090Y0073215D01*
X0115963Y0073278D01*
X0115838Y0073344D01*
X0115715Y0073414D01*
X0115594Y0073487D01*
X0115650Y0073487D02*
X0115650Y0084513D01*
X0115594Y0084513D02*
X0115715Y0084586D01*
X0115838Y0084656D01*
X0115963Y0084722D01*
X0116090Y0084785D01*
X0116219Y0084845D01*
X0116349Y0084901D01*
X0116480Y0084953D01*
X0116613Y0085002D01*
X0116747Y0085048D01*
X0116883Y0085089D01*
X0117019Y0085127D01*
X0117157Y0085162D01*
X0117295Y0085192D01*
X0117434Y0085219D01*
X0117574Y0085242D01*
X0117714Y0085261D01*
X0117855Y0085276D01*
X0117996Y0085288D01*
X0118138Y0085296D01*
X0118279Y0085300D01*
X0118421Y0085300D01*
X0118562Y0085296D01*
X0118704Y0085288D01*
X0118845Y0085276D01*
X0118986Y0085261D01*
X0119126Y0085242D01*
X0119266Y0085219D01*
X0119405Y0085192D01*
X0119543Y0085162D01*
X0119681Y0085127D01*
X0119817Y0085089D01*
X0119953Y0085048D01*
X0120087Y0085002D01*
X0120220Y0084953D01*
X0120351Y0084901D01*
X0120481Y0084845D01*
X0120610Y0084785D01*
X0120737Y0084722D01*
X0120862Y0084656D01*
X0120985Y0084586D01*
X0121106Y0084513D01*
X0087300Y0084513D02*
X0087300Y0073487D01*
X0087356Y0073487D02*
X0087235Y0073414D01*
X0087112Y0073344D01*
X0086987Y0073278D01*
X0086860Y0073215D01*
X0086731Y0073155D01*
X0086601Y0073099D01*
X0086470Y0073047D01*
X0086337Y0072998D01*
X0086203Y0072952D01*
X0086067Y0072911D01*
X0085931Y0072873D01*
X0085793Y0072838D01*
X0085655Y0072808D01*
X0085516Y0072781D01*
X0085376Y0072758D01*
X0085236Y0072739D01*
X0085095Y0072724D01*
X0084954Y0072712D01*
X0084812Y0072704D01*
X0084671Y0072700D01*
X0084529Y0072700D01*
X0084388Y0072704D01*
X0084246Y0072712D01*
X0084105Y0072724D01*
X0083964Y0072739D01*
X0083824Y0072758D01*
X0083684Y0072781D01*
X0083545Y0072808D01*
X0083407Y0072838D01*
X0083269Y0072873D01*
X0083133Y0072911D01*
X0082997Y0072952D01*
X0082863Y0072998D01*
X0082730Y0073047D01*
X0082599Y0073099D01*
X0082469Y0073155D01*
X0082340Y0073215D01*
X0082213Y0073278D01*
X0082088Y0073344D01*
X0081965Y0073414D01*
X0081844Y0073487D01*
X0081900Y0073487D02*
X0081900Y0084513D01*
X0081844Y0084513D02*
X0081965Y0084586D01*
X0082088Y0084656D01*
X0082213Y0084722D01*
X0082340Y0084785D01*
X0082469Y0084845D01*
X0082599Y0084901D01*
X0082730Y0084953D01*
X0082863Y0085002D01*
X0082997Y0085048D01*
X0083133Y0085089D01*
X0083269Y0085127D01*
X0083407Y0085162D01*
X0083545Y0085192D01*
X0083684Y0085219D01*
X0083824Y0085242D01*
X0083964Y0085261D01*
X0084105Y0085276D01*
X0084246Y0085288D01*
X0084388Y0085296D01*
X0084529Y0085300D01*
X0084671Y0085300D01*
X0084812Y0085296D01*
X0084954Y0085288D01*
X0085095Y0085276D01*
X0085236Y0085261D01*
X0085376Y0085242D01*
X0085516Y0085219D01*
X0085655Y0085192D01*
X0085793Y0085162D01*
X0085931Y0085127D01*
X0086067Y0085089D01*
X0086203Y0085048D01*
X0086337Y0085002D01*
X0086470Y0084953D01*
X0086601Y0084901D01*
X0086731Y0084845D01*
X0086860Y0084785D01*
X0086987Y0084722D01*
X0087112Y0084656D01*
X0087235Y0084586D01*
X0087356Y0084513D01*
X0053550Y0084513D02*
X0053550Y0073487D01*
X0053606Y0073487D02*
X0053485Y0073414D01*
X0053362Y0073344D01*
X0053237Y0073278D01*
X0053110Y0073215D01*
X0052981Y0073155D01*
X0052851Y0073099D01*
X0052720Y0073047D01*
X0052587Y0072998D01*
X0052453Y0072952D01*
X0052317Y0072911D01*
X0052181Y0072873D01*
X0052043Y0072838D01*
X0051905Y0072808D01*
X0051766Y0072781D01*
X0051626Y0072758D01*
X0051486Y0072739D01*
X0051345Y0072724D01*
X0051204Y0072712D01*
X0051062Y0072704D01*
X0050921Y0072700D01*
X0050779Y0072700D01*
X0050638Y0072704D01*
X0050496Y0072712D01*
X0050355Y0072724D01*
X0050214Y0072739D01*
X0050074Y0072758D01*
X0049934Y0072781D01*
X0049795Y0072808D01*
X0049657Y0072838D01*
X0049519Y0072873D01*
X0049383Y0072911D01*
X0049247Y0072952D01*
X0049113Y0072998D01*
X0048980Y0073047D01*
X0048849Y0073099D01*
X0048719Y0073155D01*
X0048590Y0073215D01*
X0048463Y0073278D01*
X0048338Y0073344D01*
X0048215Y0073414D01*
X0048094Y0073487D01*
X0048150Y0073487D02*
X0048150Y0084513D01*
X0048094Y0084513D02*
X0048215Y0084586D01*
X0048338Y0084656D01*
X0048463Y0084722D01*
X0048590Y0084785D01*
X0048719Y0084845D01*
X0048849Y0084901D01*
X0048980Y0084953D01*
X0049113Y0085002D01*
X0049247Y0085048D01*
X0049383Y0085089D01*
X0049519Y0085127D01*
X0049657Y0085162D01*
X0049795Y0085192D01*
X0049934Y0085219D01*
X0050074Y0085242D01*
X0050214Y0085261D01*
X0050355Y0085276D01*
X0050496Y0085288D01*
X0050638Y0085296D01*
X0050779Y0085300D01*
X0050921Y0085300D01*
X0051062Y0085296D01*
X0051204Y0085288D01*
X0051345Y0085276D01*
X0051486Y0085261D01*
X0051626Y0085242D01*
X0051766Y0085219D01*
X0051905Y0085192D01*
X0052043Y0085162D01*
X0052181Y0085127D01*
X0052317Y0085089D01*
X0052453Y0085048D01*
X0052587Y0085002D01*
X0052720Y0084953D01*
X0052851Y0084901D01*
X0052981Y0084845D01*
X0053110Y0084785D01*
X0053237Y0084722D01*
X0053362Y0084656D01*
X0053485Y0084586D01*
X0053606Y0084513D01*
X0055850Y0021500D02*
X0050850Y0021500D01*
X0048350Y0019000D01*
X0045850Y0021500D01*
X0040850Y0021500D01*
X0038350Y0019000D01*
X0035850Y0021500D01*
X0030850Y0021500D01*
X0028350Y0019000D01*
X0025850Y0021500D01*
X0020850Y0021500D01*
X0018350Y0019000D01*
X0015850Y0021500D01*
X0010850Y0021500D01*
X0008350Y0019000D01*
X0008350Y0014000D01*
X0010850Y0011500D01*
X0015850Y0011500D01*
X0018350Y0014000D01*
X0020850Y0011500D01*
X0025850Y0011500D01*
X0028350Y0014000D01*
X0030850Y0011500D01*
X0035850Y0011500D01*
X0038350Y0014000D01*
X0040850Y0011500D01*
X0045850Y0011500D01*
X0048350Y0014000D01*
X0050850Y0011500D01*
X0055850Y0011500D01*
X0058350Y0014000D01*
X0060850Y0011500D01*
X0065850Y0011500D01*
X0068350Y0014000D01*
X0070850Y0011500D01*
X0075850Y0011500D01*
X0078350Y0014000D01*
X0080850Y0011500D01*
X0085850Y0011500D01*
X0088350Y0014000D01*
X0090850Y0011500D01*
X0095850Y0011500D01*
X0098350Y0014000D01*
X0100850Y0011500D01*
X0105850Y0011500D01*
X0108350Y0014000D01*
X0110850Y0011500D01*
X0115850Y0011500D01*
X0118350Y0014000D01*
X0120850Y0011500D01*
X0125850Y0011500D01*
X0128350Y0014000D01*
X0130850Y0011500D01*
X0135850Y0011500D01*
X0138350Y0014000D01*
X0140850Y0011500D01*
X0145850Y0011500D01*
X0148350Y0014000D01*
X0150850Y0011500D01*
X0155850Y0011500D01*
X0158350Y0014000D01*
X0160850Y0011500D01*
X0165850Y0011500D01*
X0168350Y0014000D01*
X0170850Y0011500D01*
X0175850Y0011500D01*
X0178350Y0014000D01*
X0180850Y0011500D01*
X0185850Y0011500D01*
X0188350Y0014000D01*
X0190850Y0011500D01*
X0195850Y0011500D01*
X0198350Y0014000D01*
X0200850Y0011500D01*
X0205850Y0011500D01*
X0208350Y0014000D01*
X0210850Y0011500D01*
X0215850Y0011500D01*
X0218350Y0014000D01*
X0220850Y0011500D01*
X0225850Y0011500D01*
X0228350Y0014000D01*
X0230850Y0011500D01*
X0235850Y0011500D01*
X0238350Y0014000D01*
X0240850Y0011500D01*
X0245850Y0011500D01*
X0248350Y0014000D01*
X0250850Y0011500D01*
X0255850Y0011500D01*
X0258350Y0014000D01*
X0260850Y0011500D01*
X0265850Y0011500D01*
X0268350Y0014000D01*
X0270850Y0011500D01*
X0275850Y0011500D01*
X0278350Y0014000D01*
X0280850Y0011500D01*
X0285850Y0011500D01*
X0288350Y0014000D01*
X0290850Y0011500D01*
X0295850Y0011500D01*
X0298350Y0014000D01*
X0300850Y0011500D01*
X0305850Y0011500D01*
X0308350Y0014000D01*
X0310850Y0011500D01*
X0315850Y0011500D01*
X0318350Y0014000D01*
X0320850Y0011500D01*
X0325850Y0011500D01*
X0328350Y0014000D01*
X0330850Y0011500D01*
X0335850Y0011500D01*
X0338350Y0014000D01*
X0340850Y0011500D01*
X0345850Y0011500D01*
X0348350Y0014000D01*
X0350850Y0011500D01*
X0355850Y0011500D01*
X0358350Y0014000D01*
X0360850Y0011500D01*
X0365850Y0011500D01*
X0368350Y0014000D01*
X0370850Y0011500D01*
X0375850Y0011500D01*
X0378350Y0014000D01*
X0380850Y0011500D01*
X0385850Y0011500D01*
X0388350Y0014000D01*
X0388350Y0019000D01*
X0385850Y0021500D01*
X0380850Y0021500D01*
X0378350Y0019000D01*
X0375850Y0021500D01*
X0370850Y0021500D01*
X0368350Y0019000D01*
X0365850Y0021500D01*
X0360850Y0021500D01*
X0358350Y0019000D01*
X0355850Y0021500D01*
X0350850Y0021500D01*
X0348350Y0019000D01*
X0345850Y0021500D01*
X0340850Y0021500D01*
X0338350Y0019000D01*
X0335850Y0021500D01*
X0330850Y0021500D01*
X0328350Y0019000D01*
X0325850Y0021500D01*
X0320850Y0021500D01*
X0318350Y0019000D01*
X0315850Y0021500D01*
X0310850Y0021500D01*
X0308350Y0019000D01*
X0305850Y0021500D01*
X0300850Y0021500D01*
X0298350Y0019000D01*
X0295850Y0021500D01*
X0290850Y0021500D01*
X0288350Y0019000D01*
X0285850Y0021500D01*
X0280850Y0021500D01*
X0278350Y0019000D01*
X0275850Y0021500D01*
X0270850Y0021500D01*
X0268350Y0019000D01*
X0265850Y0021500D01*
X0260850Y0021500D01*
X0258350Y0019000D01*
X0255850Y0021500D01*
X0250850Y0021500D01*
X0248350Y0019000D01*
X0245850Y0021500D01*
X0240850Y0021500D01*
X0238350Y0019000D01*
X0235850Y0021500D01*
X0230850Y0021500D01*
X0228350Y0019000D01*
X0225850Y0021500D01*
X0220850Y0021500D01*
X0218350Y0019000D01*
X0215850Y0021500D01*
X0210850Y0021500D01*
X0208350Y0019000D01*
X0205850Y0021500D01*
X0200850Y0021500D01*
X0198350Y0019000D01*
X0195850Y0021500D01*
X0190850Y0021500D01*
X0188350Y0019000D01*
X0185850Y0021500D01*
X0180850Y0021500D01*
X0178350Y0019000D01*
X0175850Y0021500D01*
X0170850Y0021500D01*
X0168350Y0019000D01*
X0165850Y0021500D01*
X0160850Y0021500D01*
X0158350Y0019000D01*
X0155850Y0021500D01*
X0150850Y0021500D01*
X0148350Y0019000D01*
X0145850Y0021500D01*
X0140850Y0021500D01*
X0138350Y0019000D01*
X0135850Y0021500D01*
X0130850Y0021500D01*
X0128350Y0019000D01*
X0125850Y0021500D01*
X0120850Y0021500D01*
X0118350Y0019000D01*
X0115850Y0021500D01*
X0110850Y0021500D01*
X0108350Y0019000D01*
X0105850Y0021500D01*
X0100850Y0021500D01*
X0098350Y0019000D01*
X0095850Y0021500D01*
X0090850Y0021500D01*
X0088350Y0019000D01*
X0085850Y0021500D01*
X0080850Y0021500D01*
X0078350Y0019000D01*
X0075850Y0021500D01*
X0070850Y0021500D01*
X0068350Y0019000D01*
X0065850Y0021500D01*
X0060850Y0021500D01*
X0058350Y0019000D01*
X0055850Y0021500D01*
X0065338Y0175050D02*
X0076363Y0175050D01*
X0076363Y0174994D02*
X0076436Y0175115D01*
X0076506Y0175238D01*
X0076572Y0175363D01*
X0076635Y0175490D01*
X0076695Y0175619D01*
X0076751Y0175749D01*
X0076803Y0175880D01*
X0076852Y0176013D01*
X0076898Y0176147D01*
X0076939Y0176283D01*
X0076977Y0176419D01*
X0077012Y0176557D01*
X0077042Y0176695D01*
X0077069Y0176834D01*
X0077092Y0176974D01*
X0077111Y0177114D01*
X0077126Y0177255D01*
X0077138Y0177396D01*
X0077146Y0177538D01*
X0077150Y0177679D01*
X0077150Y0177821D01*
X0077146Y0177962D01*
X0077138Y0178104D01*
X0077126Y0178245D01*
X0077111Y0178386D01*
X0077092Y0178526D01*
X0077069Y0178666D01*
X0077042Y0178805D01*
X0077012Y0178943D01*
X0076977Y0179081D01*
X0076939Y0179217D01*
X0076898Y0179353D01*
X0076852Y0179487D01*
X0076803Y0179620D01*
X0076751Y0179751D01*
X0076695Y0179881D01*
X0076635Y0180010D01*
X0076572Y0180137D01*
X0076506Y0180262D01*
X0076436Y0180385D01*
X0076363Y0180506D01*
X0076363Y0180450D02*
X0065338Y0180450D01*
X0065338Y0180506D02*
X0065265Y0180385D01*
X0065195Y0180262D01*
X0065129Y0180137D01*
X0065066Y0180010D01*
X0065006Y0179881D01*
X0064950Y0179751D01*
X0064898Y0179620D01*
X0064849Y0179487D01*
X0064803Y0179353D01*
X0064762Y0179217D01*
X0064724Y0179081D01*
X0064689Y0178943D01*
X0064659Y0178805D01*
X0064632Y0178666D01*
X0064609Y0178526D01*
X0064590Y0178386D01*
X0064575Y0178245D01*
X0064563Y0178104D01*
X0064555Y0177962D01*
X0064551Y0177821D01*
X0064551Y0177679D01*
X0064555Y0177538D01*
X0064563Y0177396D01*
X0064575Y0177255D01*
X0064590Y0177114D01*
X0064609Y0176974D01*
X0064632Y0176834D01*
X0064659Y0176695D01*
X0064689Y0176557D01*
X0064724Y0176419D01*
X0064762Y0176283D01*
X0064803Y0176147D01*
X0064849Y0176013D01*
X0064898Y0175880D01*
X0064950Y0175749D01*
X0065006Y0175619D01*
X0065066Y0175490D01*
X0065129Y0175363D01*
X0065195Y0175238D01*
X0065265Y0175115D01*
X0065338Y0174994D01*
X0042613Y0175050D02*
X0031588Y0175050D01*
X0031588Y0180450D02*
X0042613Y0180450D01*
X0042613Y0180506D02*
X0042686Y0180385D01*
X0042756Y0180262D01*
X0042822Y0180137D01*
X0042885Y0180010D01*
X0042945Y0179881D01*
X0043001Y0179751D01*
X0043053Y0179620D01*
X0043102Y0179487D01*
X0043148Y0179353D01*
X0043189Y0179217D01*
X0043227Y0179081D01*
X0043262Y0178943D01*
X0043292Y0178805D01*
X0043319Y0178666D01*
X0043342Y0178526D01*
X0043361Y0178386D01*
X0043376Y0178245D01*
X0043388Y0178104D01*
X0043396Y0177962D01*
X0043400Y0177821D01*
X0043400Y0177679D01*
X0043396Y0177538D01*
X0043388Y0177396D01*
X0043376Y0177255D01*
X0043361Y0177114D01*
X0043342Y0176974D01*
X0043319Y0176834D01*
X0043292Y0176695D01*
X0043262Y0176557D01*
X0043227Y0176419D01*
X0043189Y0176283D01*
X0043148Y0176147D01*
X0043102Y0176013D01*
X0043053Y0175880D01*
X0043001Y0175749D01*
X0042945Y0175619D01*
X0042885Y0175490D01*
X0042822Y0175363D01*
X0042756Y0175238D01*
X0042686Y0175115D01*
X0042613Y0174994D01*
X0031588Y0174994D02*
X0031515Y0175115D01*
X0031445Y0175238D01*
X0031379Y0175363D01*
X0031316Y0175490D01*
X0031256Y0175619D01*
X0031200Y0175749D01*
X0031148Y0175880D01*
X0031099Y0176013D01*
X0031053Y0176147D01*
X0031012Y0176283D01*
X0030974Y0176419D01*
X0030939Y0176557D01*
X0030909Y0176695D01*
X0030882Y0176834D01*
X0030859Y0176974D01*
X0030840Y0177114D01*
X0030825Y0177255D01*
X0030813Y0177396D01*
X0030805Y0177538D01*
X0030801Y0177679D01*
X0030801Y0177821D01*
X0030805Y0177962D01*
X0030813Y0178104D01*
X0030825Y0178245D01*
X0030840Y0178386D01*
X0030859Y0178526D01*
X0030882Y0178666D01*
X0030909Y0178805D01*
X0030939Y0178943D01*
X0030974Y0179081D01*
X0031012Y0179217D01*
X0031053Y0179353D01*
X0031099Y0179487D01*
X0031148Y0179620D01*
X0031200Y0179751D01*
X0031256Y0179881D01*
X0031316Y0180010D01*
X0031379Y0180137D01*
X0031445Y0180262D01*
X0031515Y0180385D01*
X0031588Y0180506D01*
X0099088Y0180450D02*
X0110113Y0180450D01*
X0110113Y0180506D02*
X0110186Y0180385D01*
X0110256Y0180262D01*
X0110322Y0180137D01*
X0110385Y0180010D01*
X0110445Y0179881D01*
X0110501Y0179751D01*
X0110553Y0179620D01*
X0110602Y0179487D01*
X0110648Y0179353D01*
X0110689Y0179217D01*
X0110727Y0179081D01*
X0110762Y0178943D01*
X0110792Y0178805D01*
X0110819Y0178666D01*
X0110842Y0178526D01*
X0110861Y0178386D01*
X0110876Y0178245D01*
X0110888Y0178104D01*
X0110896Y0177962D01*
X0110900Y0177821D01*
X0110900Y0177679D01*
X0110896Y0177538D01*
X0110888Y0177396D01*
X0110876Y0177255D01*
X0110861Y0177114D01*
X0110842Y0176974D01*
X0110819Y0176834D01*
X0110792Y0176695D01*
X0110762Y0176557D01*
X0110727Y0176419D01*
X0110689Y0176283D01*
X0110648Y0176147D01*
X0110602Y0176013D01*
X0110553Y0175880D01*
X0110501Y0175749D01*
X0110445Y0175619D01*
X0110385Y0175490D01*
X0110322Y0175363D01*
X0110256Y0175238D01*
X0110186Y0175115D01*
X0110113Y0174994D01*
X0110113Y0175050D02*
X0099088Y0175050D01*
X0099088Y0174994D02*
X0099015Y0175115D01*
X0098945Y0175238D01*
X0098879Y0175363D01*
X0098816Y0175490D01*
X0098756Y0175619D01*
X0098700Y0175749D01*
X0098648Y0175880D01*
X0098599Y0176013D01*
X0098553Y0176147D01*
X0098512Y0176283D01*
X0098474Y0176419D01*
X0098439Y0176557D01*
X0098409Y0176695D01*
X0098382Y0176834D01*
X0098359Y0176974D01*
X0098340Y0177114D01*
X0098325Y0177255D01*
X0098313Y0177396D01*
X0098305Y0177538D01*
X0098301Y0177679D01*
X0098301Y0177821D01*
X0098305Y0177962D01*
X0098313Y0178104D01*
X0098325Y0178245D01*
X0098340Y0178386D01*
X0098359Y0178526D01*
X0098382Y0178666D01*
X0098409Y0178805D01*
X0098439Y0178943D01*
X0098474Y0179081D01*
X0098512Y0179217D01*
X0098553Y0179353D01*
X0098599Y0179487D01*
X0098648Y0179620D01*
X0098700Y0179751D01*
X0098756Y0179881D01*
X0098816Y0180010D01*
X0098879Y0180137D01*
X0098945Y0180262D01*
X0099015Y0180385D01*
X0099088Y0180506D01*
X0132838Y0180450D02*
X0143863Y0180450D01*
X0143863Y0175050D02*
X0132838Y0175050D01*
X0132838Y0174994D02*
X0132765Y0175115D01*
X0132695Y0175238D01*
X0132629Y0175363D01*
X0132566Y0175490D01*
X0132506Y0175619D01*
X0132450Y0175749D01*
X0132398Y0175880D01*
X0132349Y0176013D01*
X0132303Y0176147D01*
X0132262Y0176283D01*
X0132224Y0176419D01*
X0132189Y0176557D01*
X0132159Y0176695D01*
X0132132Y0176834D01*
X0132109Y0176974D01*
X0132090Y0177114D01*
X0132075Y0177255D01*
X0132063Y0177396D01*
X0132055Y0177538D01*
X0132051Y0177679D01*
X0132051Y0177821D01*
X0132055Y0177962D01*
X0132063Y0178104D01*
X0132075Y0178245D01*
X0132090Y0178386D01*
X0132109Y0178526D01*
X0132132Y0178666D01*
X0132159Y0178805D01*
X0132189Y0178943D01*
X0132224Y0179081D01*
X0132262Y0179217D01*
X0132303Y0179353D01*
X0132349Y0179487D01*
X0132398Y0179620D01*
X0132450Y0179751D01*
X0132506Y0179881D01*
X0132566Y0180010D01*
X0132629Y0180137D01*
X0132695Y0180262D01*
X0132765Y0180385D01*
X0132838Y0180506D01*
X0143863Y0180506D02*
X0143936Y0180385D01*
X0144006Y0180262D01*
X0144072Y0180137D01*
X0144135Y0180010D01*
X0144195Y0179881D01*
X0144251Y0179751D01*
X0144303Y0179620D01*
X0144352Y0179487D01*
X0144398Y0179353D01*
X0144439Y0179217D01*
X0144477Y0179081D01*
X0144512Y0178943D01*
X0144542Y0178805D01*
X0144569Y0178666D01*
X0144592Y0178526D01*
X0144611Y0178386D01*
X0144626Y0178245D01*
X0144638Y0178104D01*
X0144646Y0177962D01*
X0144650Y0177821D01*
X0144650Y0177679D01*
X0144646Y0177538D01*
X0144638Y0177396D01*
X0144626Y0177255D01*
X0144611Y0177114D01*
X0144592Y0176974D01*
X0144569Y0176834D01*
X0144542Y0176695D01*
X0144512Y0176557D01*
X0144477Y0176419D01*
X0144439Y0176283D01*
X0144398Y0176147D01*
X0144352Y0176013D01*
X0144303Y0175880D01*
X0144251Y0175749D01*
X0144195Y0175619D01*
X0144135Y0175490D01*
X0144072Y0175363D01*
X0144006Y0175238D01*
X0143936Y0175115D01*
X0143863Y0174994D01*
X0167838Y0175050D02*
X0178863Y0175050D01*
X0178863Y0174994D02*
X0178936Y0175115D01*
X0179006Y0175238D01*
X0179072Y0175363D01*
X0179135Y0175490D01*
X0179195Y0175619D01*
X0179251Y0175749D01*
X0179303Y0175880D01*
X0179352Y0176013D01*
X0179398Y0176147D01*
X0179439Y0176283D01*
X0179477Y0176419D01*
X0179512Y0176557D01*
X0179542Y0176695D01*
X0179569Y0176834D01*
X0179592Y0176974D01*
X0179611Y0177114D01*
X0179626Y0177255D01*
X0179638Y0177396D01*
X0179646Y0177538D01*
X0179650Y0177679D01*
X0179650Y0177821D01*
X0179646Y0177962D01*
X0179638Y0178104D01*
X0179626Y0178245D01*
X0179611Y0178386D01*
X0179592Y0178526D01*
X0179569Y0178666D01*
X0179542Y0178805D01*
X0179512Y0178943D01*
X0179477Y0179081D01*
X0179439Y0179217D01*
X0179398Y0179353D01*
X0179352Y0179487D01*
X0179303Y0179620D01*
X0179251Y0179751D01*
X0179195Y0179881D01*
X0179135Y0180010D01*
X0179072Y0180137D01*
X0179006Y0180262D01*
X0178936Y0180385D01*
X0178863Y0180506D01*
X0178863Y0180450D02*
X0167838Y0180450D01*
X0167838Y0180506D02*
X0167765Y0180385D01*
X0167695Y0180262D01*
X0167629Y0180137D01*
X0167566Y0180010D01*
X0167506Y0179881D01*
X0167450Y0179751D01*
X0167398Y0179620D01*
X0167349Y0179487D01*
X0167303Y0179353D01*
X0167262Y0179217D01*
X0167224Y0179081D01*
X0167189Y0178943D01*
X0167159Y0178805D01*
X0167132Y0178666D01*
X0167109Y0178526D01*
X0167090Y0178386D01*
X0167075Y0178245D01*
X0167063Y0178104D01*
X0167055Y0177962D01*
X0167051Y0177821D01*
X0167051Y0177679D01*
X0167055Y0177538D01*
X0167063Y0177396D01*
X0167075Y0177255D01*
X0167090Y0177114D01*
X0167109Y0176974D01*
X0167132Y0176834D01*
X0167159Y0176695D01*
X0167189Y0176557D01*
X0167224Y0176419D01*
X0167262Y0176283D01*
X0167303Y0176147D01*
X0167349Y0176013D01*
X0167398Y0175880D01*
X0167450Y0175749D01*
X0167506Y0175619D01*
X0167566Y0175490D01*
X0167629Y0175363D01*
X0167695Y0175238D01*
X0167765Y0175115D01*
X0167838Y0174994D01*
X0201588Y0175050D02*
X0212613Y0175050D01*
X0212613Y0174994D02*
X0212686Y0175115D01*
X0212756Y0175238D01*
X0212822Y0175363D01*
X0212885Y0175490D01*
X0212945Y0175619D01*
X0213001Y0175749D01*
X0213053Y0175880D01*
X0213102Y0176013D01*
X0213148Y0176147D01*
X0213189Y0176283D01*
X0213227Y0176419D01*
X0213262Y0176557D01*
X0213292Y0176695D01*
X0213319Y0176834D01*
X0213342Y0176974D01*
X0213361Y0177114D01*
X0213376Y0177255D01*
X0213388Y0177396D01*
X0213396Y0177538D01*
X0213400Y0177679D01*
X0213400Y0177821D01*
X0213396Y0177962D01*
X0213388Y0178104D01*
X0213376Y0178245D01*
X0213361Y0178386D01*
X0213342Y0178526D01*
X0213319Y0178666D01*
X0213292Y0178805D01*
X0213262Y0178943D01*
X0213227Y0179081D01*
X0213189Y0179217D01*
X0213148Y0179353D01*
X0213102Y0179487D01*
X0213053Y0179620D01*
X0213001Y0179751D01*
X0212945Y0179881D01*
X0212885Y0180010D01*
X0212822Y0180137D01*
X0212756Y0180262D01*
X0212686Y0180385D01*
X0212613Y0180506D01*
X0212613Y0180450D02*
X0201588Y0180450D01*
X0201588Y0180506D02*
X0201515Y0180385D01*
X0201445Y0180262D01*
X0201379Y0180137D01*
X0201316Y0180010D01*
X0201256Y0179881D01*
X0201200Y0179751D01*
X0201148Y0179620D01*
X0201099Y0179487D01*
X0201053Y0179353D01*
X0201012Y0179217D01*
X0200974Y0179081D01*
X0200939Y0178943D01*
X0200909Y0178805D01*
X0200882Y0178666D01*
X0200859Y0178526D01*
X0200840Y0178386D01*
X0200825Y0178245D01*
X0200813Y0178104D01*
X0200805Y0177962D01*
X0200801Y0177821D01*
X0200801Y0177679D01*
X0200805Y0177538D01*
X0200813Y0177396D01*
X0200825Y0177255D01*
X0200840Y0177114D01*
X0200859Y0176974D01*
X0200882Y0176834D01*
X0200909Y0176695D01*
X0200939Y0176557D01*
X0200974Y0176419D01*
X0201012Y0176283D01*
X0201053Y0176147D01*
X0201099Y0176013D01*
X0201148Y0175880D01*
X0201200Y0175749D01*
X0201256Y0175619D01*
X0201316Y0175490D01*
X0201379Y0175363D01*
X0201445Y0175238D01*
X0201515Y0175115D01*
X0201588Y0174994D01*
X0234088Y0175050D02*
X0245113Y0175050D01*
X0245113Y0174994D02*
X0245186Y0175115D01*
X0245256Y0175238D01*
X0245322Y0175363D01*
X0245385Y0175490D01*
X0245445Y0175619D01*
X0245501Y0175749D01*
X0245553Y0175880D01*
X0245602Y0176013D01*
X0245648Y0176147D01*
X0245689Y0176283D01*
X0245727Y0176419D01*
X0245762Y0176557D01*
X0245792Y0176695D01*
X0245819Y0176834D01*
X0245842Y0176974D01*
X0245861Y0177114D01*
X0245876Y0177255D01*
X0245888Y0177396D01*
X0245896Y0177538D01*
X0245900Y0177679D01*
X0245900Y0177821D01*
X0245896Y0177962D01*
X0245888Y0178104D01*
X0245876Y0178245D01*
X0245861Y0178386D01*
X0245842Y0178526D01*
X0245819Y0178666D01*
X0245792Y0178805D01*
X0245762Y0178943D01*
X0245727Y0179081D01*
X0245689Y0179217D01*
X0245648Y0179353D01*
X0245602Y0179487D01*
X0245553Y0179620D01*
X0245501Y0179751D01*
X0245445Y0179881D01*
X0245385Y0180010D01*
X0245322Y0180137D01*
X0245256Y0180262D01*
X0245186Y0180385D01*
X0245113Y0180506D01*
X0245113Y0180450D02*
X0234088Y0180450D01*
X0234088Y0180506D02*
X0234015Y0180385D01*
X0233945Y0180262D01*
X0233879Y0180137D01*
X0233816Y0180010D01*
X0233756Y0179881D01*
X0233700Y0179751D01*
X0233648Y0179620D01*
X0233599Y0179487D01*
X0233553Y0179353D01*
X0233512Y0179217D01*
X0233474Y0179081D01*
X0233439Y0178943D01*
X0233409Y0178805D01*
X0233382Y0178666D01*
X0233359Y0178526D01*
X0233340Y0178386D01*
X0233325Y0178245D01*
X0233313Y0178104D01*
X0233305Y0177962D01*
X0233301Y0177821D01*
X0233301Y0177679D01*
X0233305Y0177538D01*
X0233313Y0177396D01*
X0233325Y0177255D01*
X0233340Y0177114D01*
X0233359Y0176974D01*
X0233382Y0176834D01*
X0233409Y0176695D01*
X0233439Y0176557D01*
X0233474Y0176419D01*
X0233512Y0176283D01*
X0233553Y0176147D01*
X0233599Y0176013D01*
X0233648Y0175880D01*
X0233700Y0175749D01*
X0233756Y0175619D01*
X0233816Y0175490D01*
X0233879Y0175363D01*
X0233945Y0175238D01*
X0234015Y0175115D01*
X0234088Y0174994D01*
X0267838Y0175050D02*
X0278863Y0175050D01*
X0278863Y0174994D02*
X0278936Y0175115D01*
X0279006Y0175238D01*
X0279072Y0175363D01*
X0279135Y0175490D01*
X0279195Y0175619D01*
X0279251Y0175749D01*
X0279303Y0175880D01*
X0279352Y0176013D01*
X0279398Y0176147D01*
X0279439Y0176283D01*
X0279477Y0176419D01*
X0279512Y0176557D01*
X0279542Y0176695D01*
X0279569Y0176834D01*
X0279592Y0176974D01*
X0279611Y0177114D01*
X0279626Y0177255D01*
X0279638Y0177396D01*
X0279646Y0177538D01*
X0279650Y0177679D01*
X0279650Y0177821D01*
X0279646Y0177962D01*
X0279638Y0178104D01*
X0279626Y0178245D01*
X0279611Y0178386D01*
X0279592Y0178526D01*
X0279569Y0178666D01*
X0279542Y0178805D01*
X0279512Y0178943D01*
X0279477Y0179081D01*
X0279439Y0179217D01*
X0279398Y0179353D01*
X0279352Y0179487D01*
X0279303Y0179620D01*
X0279251Y0179751D01*
X0279195Y0179881D01*
X0279135Y0180010D01*
X0279072Y0180137D01*
X0279006Y0180262D01*
X0278936Y0180385D01*
X0278863Y0180506D01*
X0278863Y0180450D02*
X0267838Y0180450D01*
X0267838Y0180506D02*
X0267765Y0180385D01*
X0267695Y0180262D01*
X0267629Y0180137D01*
X0267566Y0180010D01*
X0267506Y0179881D01*
X0267450Y0179751D01*
X0267398Y0179620D01*
X0267349Y0179487D01*
X0267303Y0179353D01*
X0267262Y0179217D01*
X0267224Y0179081D01*
X0267189Y0178943D01*
X0267159Y0178805D01*
X0267132Y0178666D01*
X0267109Y0178526D01*
X0267090Y0178386D01*
X0267075Y0178245D01*
X0267063Y0178104D01*
X0267055Y0177962D01*
X0267051Y0177821D01*
X0267051Y0177679D01*
X0267055Y0177538D01*
X0267063Y0177396D01*
X0267075Y0177255D01*
X0267090Y0177114D01*
X0267109Y0176974D01*
X0267132Y0176834D01*
X0267159Y0176695D01*
X0267189Y0176557D01*
X0267224Y0176419D01*
X0267262Y0176283D01*
X0267303Y0176147D01*
X0267349Y0176013D01*
X0267398Y0175880D01*
X0267450Y0175749D01*
X0267506Y0175619D01*
X0267566Y0175490D01*
X0267629Y0175363D01*
X0267695Y0175238D01*
X0267765Y0175115D01*
X0267838Y0174994D01*
M02*
