%
M48
M72
T01C0.01200
T02C0.03543
T03C0.03937
%
T01
X29600Y69000
X50850Y70250
X63350Y69000
X84600Y70250
X97100Y67750
X118350Y70250
X130850Y67750
X152100Y70250
X164600Y67750
X185850Y70250
X198350Y67750
X198350Y51500
X219600Y70250
X232100Y67750
X253350Y70250
X265850Y67750
X287100Y70250
X280850Y106500
X269600Y121500
X254600Y119000
X247100Y106500
X235850Y121500
X220850Y119000
X213350Y106500
X202100Y121500
X187100Y119000
X179600Y106500
X168350Y121500
X153350Y119000
X145850Y106500
X134600Y121500
X119600Y119000
X112100Y106500
X100850Y121500
X85850Y119000
X78350Y106500
X67100Y121500
X52100Y119000
X44600Y106500
X33350Y121500
X44600Y162750
X33350Y172750
X48350Y177750
X53350Y177750
X67100Y171500
X78350Y162750
X82100Y177750
X87100Y177750
X100850Y171500
X112100Y162750
X115850Y177750
X120850Y177750
X134600Y171500
X145850Y162750
X149600Y177750
X154600Y177750
X169600Y171500
X179600Y162750
X183350Y177750
X188350Y177750
X203350Y171500
X213350Y162750
X217100Y177750
X222100Y177750
X235850Y171500
X247100Y162750
X250850Y177750
X255850Y177750
X269600Y171500
X280850Y162750
X284600Y177750
X290850Y175250
X244600Y223300
X242200Y231300
X244600Y237700
X242200Y245700
X244600Y252100
X242200Y260100
X244600Y266500
X242200Y274500
X244600Y280900
X242200Y288900
X247705Y292125
X250205Y289000
X252705Y285250
X255205Y277750
X257705Y274625
X260205Y270875
X262705Y263375
X265205Y260250
X268148Y256282
X271278Y249396
X274408Y245640
X277538Y241884
X280668Y234998
X283798Y230616
X286928Y227486
X222200Y231300
X217300Y237700
X214900Y231300
X217300Y223300
X214900Y245700
X217300Y252100
X222200Y245700
X222200Y260100
X214900Y260100
X217300Y266500
X214900Y274500
X217300Y280900
X222200Y274500
X222200Y288900
X214900Y288900
X217300Y299500
X214900Y307500
X217300Y313900
X222200Y307500
X222200Y321900
X217300Y328300
X214900Y321900
X214913Y336500
X217300Y342700
X222413Y336500
X222200Y350700
X214900Y350700
X217300Y357100
X214900Y365100
X222200Y365100
X216900Y373900
X194900Y365100
X187600Y365100
X190000Y357100
X187600Y350700
X194900Y350700
X190000Y342700
X187413Y336500
X194913Y336500
X190000Y328300
X187600Y321900
X194900Y321900
X190000Y313900
X187600Y307500
X194900Y307500
X190000Y299500
X187600Y288900
X194900Y288900
X190000Y280900
X187600Y274500
X194900Y274500
X190000Y266500
X187600Y260100
X194900Y260100
X190000Y252100
X187600Y245700
X194900Y245700
X190000Y237700
X187600Y231300
X194900Y231300
X190000Y223300
X167600Y231300
X160300Y231300
X162700Y237700
X160300Y245700
X162700Y252100
X167600Y245700
X167600Y260100
X160300Y260100
X162700Y266500
X160300Y274500
X162700Y280900
X167600Y274500
X167600Y288900
X160300Y288900
X162700Y299500
X160300Y307500
X162700Y313900
X167600Y307500
X167600Y321900
X160300Y321900
X162700Y328300
X160225Y336500
X162700Y342700
X167725Y336500
X167600Y350700
X160300Y350700
X162700Y357100
X160300Y365100
X167600Y365100
X162300Y377100
X140300Y365100
X131750Y365100
X134150Y357100
X131750Y350700
X134150Y342700
X131788Y336500
X134150Y328300
X131750Y321900
X134150Y313900
X131750Y307500
X134150Y299500
X140300Y307500
X140300Y321900
X140538Y336500
X140300Y350700
X111750Y350700
X104450Y350700
X106850Y357100
X104450Y365100
X111750Y365100
X106450Y380300
X84450Y365100
X77150Y365100
X79550Y357163
X77150Y350700
X84450Y350700
X79550Y342700
X77100Y336500
X84600Y336500
X79550Y328300
X77150Y321900
X84450Y321900
X79550Y313900
X77150Y307500
X84450Y307500
X79550Y299500
X77150Y288900
X84450Y288900
X79550Y280963
X77150Y274500
X84450Y274500
X79550Y266500
X77150Y260100
X84450Y260100
X79550Y252100
X77150Y245700
X84450Y245700
X79550Y237700
X77150Y231300
X84450Y231300
X79550Y223300
X57150Y231300
X52250Y237700
X57150Y245700
X52250Y252100
X57150Y260100
X52250Y266500
X57150Y274500
X52250Y280900
X57150Y288900
X52250Y299500
X57150Y307500
X52250Y313900
X57150Y321900
X52250Y328300
X57100Y336500
X52250Y342700
X57150Y350700
X52250Y357100
X57150Y365100
X51850Y382700
X79150Y381900
X106850Y342700
X104600Y336500
X111788Y336500
X106850Y328300
X104450Y321900
X111750Y321900
X106850Y313900
X104450Y307500
X111750Y307500
X106850Y299500
X104450Y288900
X111750Y288900
X106850Y280900
X104450Y274500
X111750Y274500
X106850Y266500
X104450Y260100
X111750Y260100
X106850Y252100
X104450Y245700
X111750Y245700
X106850Y237700
X104450Y231300
X111750Y231300
X106850Y223300
X131750Y231300
X134150Y237700
X131750Y245700
X134150Y252100
X131750Y260100
X134150Y266500
X131750Y274500
X134150Y280900
X131750Y288900
X140300Y288900
X140300Y274500
X140300Y260100
X140300Y245700
X140300Y231300
X134150Y223300
X162700Y223300
X244600Y299500
X242200Y307500
X244600Y313900
X242200Y321900
X244600Y328300
X242413Y336813
X244600Y342700
X242200Y350700
X244600Y357100
X242200Y365100
X244200Y372300
X247705Y368375
X250205Y365250
X252705Y360875
X255205Y354000
X257705Y350875
X260205Y346500
X262705Y339625
X265205Y336500
X268148Y332028
X271278Y325142
X274408Y322012
X277538Y317630
X280668Y310744
X283798Y307614
X286928Y303232
X317100Y325250
X322100Y321500
X319600Y317750
X324600Y310250
X329600Y306500
X327100Y304000
X312100Y331500
X314600Y336500
X309600Y339000
X304600Y346500
X307100Y351500
X302100Y354000
X297100Y361500
X299600Y365250
X293350Y369000
X189600Y375500
X133750Y378700
X52250Y223300
T02
X299600Y74000
X309600Y74000
X339600Y74000
X349600Y74000
X349600Y144000
X339600Y144000
X309600Y144000
X299600Y144000
T03
X13350Y16500
X23350Y16500
X33350Y16500
X43350Y16500
X53350Y16500
X63350Y16500
X73350Y16500
X83350Y16500
X93350Y16500
X103350Y16500
X113350Y16500
X123350Y16500
X133350Y16500
X143350Y16500
X153350Y16500
X163350Y16500
X173350Y16500
X183350Y16500
X193350Y16500
X203350Y16500
X213350Y16500
X223350Y16500
X233350Y16500
X243350Y16500
X253350Y16500
X263350Y16500
X273350Y16500
X283350Y16500
X293350Y16500
X303350Y16500
X313350Y16500
X323350Y16500
X333350Y16500
X343350Y16500
X353350Y16500
X363350Y16500
X373350Y16500
X383350Y16500
M30
