G75*
%MOIN*%
%OFA0B0*%
%FSLAX25Y25*%
%IPPOS*%
%LPD*%
%AMOC8*
5,1,8,0,0,1.08239X$1,22.5*
%
%ADD10C,0.00394*%
%ADD11C,0.05943*%
%ADD12R,0.05943X0.05943*%
%ADD13R,0.06337X0.06337*%
%ADD14OC8,0.06337*%
D10*
X0003350Y0001500D02*
X0397051Y0001500D01*
X0397051Y0395201D01*
X0003350Y0395201D01*
X0003350Y0001500D01*
D11*
X0299600Y0074000D03*
X0309600Y0074000D03*
X0309600Y0144000D03*
X0299600Y0144000D03*
D12*
X0339600Y0144000D03*
X0349600Y0144000D03*
X0349600Y0074000D03*
X0339600Y0074000D03*
D13*
X0013350Y0016500D03*
D14*
X0023350Y0016500D03*
X0033350Y0016500D03*
X0043350Y0016500D03*
X0053350Y0016500D03*
X0063350Y0016500D03*
X0073350Y0016500D03*
X0083350Y0016500D03*
X0093350Y0016500D03*
X0103350Y0016500D03*
X0113350Y0016500D03*
X0123350Y0016500D03*
X0133350Y0016500D03*
X0143350Y0016500D03*
X0153350Y0016500D03*
X0163350Y0016500D03*
X0173350Y0016500D03*
X0183350Y0016500D03*
X0193350Y0016500D03*
X0203350Y0016500D03*
X0213350Y0016500D03*
X0223350Y0016500D03*
X0233350Y0016500D03*
X0243350Y0016500D03*
X0253350Y0016500D03*
X0263350Y0016500D03*
X0273350Y0016500D03*
X0283350Y0016500D03*
X0293350Y0016500D03*
X0303350Y0016500D03*
X0313350Y0016500D03*
X0323350Y0016500D03*
X0333350Y0016500D03*
X0343350Y0016500D03*
X0353350Y0016500D03*
X0363350Y0016500D03*
X0373350Y0016500D03*
X0383350Y0016500D03*
M02*
